<?xml version="1.0" standalone="no"?>
<!DOCTYPE svg PUBLIC "-//W3C//DTD SVG 20010904//EN"
 "http://www.w3.org/TR/2001/REC-SVG-20010904/DTD/svg10.dtd">
<svg version="1.0" xmlns="http://www.w3.org/2000/svg"
 width="860.000000pt" height="1024.000000pt" viewBox="0 0 860.000000 1024.000000"
 preserveAspectRatio="xMidYMid meet">

<g transform="translate(0.000000,1024.000000) scale(0.100000,-0.100000)"
fill="#000000" stroke="none">
<path d="M3990 10171 c0 -6 7 -25 15 -42 19 -36 11 -53 -21 -45 -26 7 -34 -11
-10 -20 8 -3 17 -22 21 -42 4 -20 14 -45 22 -54 15 -16 15 -18 0 -18 -9 0 -18
4 -21 9 -8 13 -44 2 -50 -16 -9 -21 3 -36 18 -24 10 8 13 4 14 -18 1 -27 -2
-29 -21 -22 -12 5 -23 18 -25 30 -3 20 -32 34 -76 35 -31 1 -29 22 4 36 36 15
37 23 5 44 -25 17 -85 22 -85 8 0 -5 14 -6 31 -4 20 3 34 0 40 -9 16 -25 9
-31 -31 -27 -30 3 -41 0 -45 -12 -3 -9 -27 -23 -53 -32 -47 -15 -49 -14 -76 8
-28 24 -46 31 -46 16 0 -4 5 -13 12 -20 7 -7 10 -12 8 -13 -3 0 -15 -2 -28 -5
-13 -2 -33 2 -44 10 -11 8 -27 12 -36 9 -10 -4 -13 -2 -8 5 5 8 -2 12 -22 12
-45 0 -94 20 -88 36 7 19 0 18 -21 -3 -10 -10 -17 -29 -17 -43 1 -14 -6 -33
-15 -44 -9 -10 -15 -21 -14 -25 1 -3 0 -16 -3 -28 -7 -27 -51 -38 -125 -31
-34 4 -52 1 -60 -8 -6 -8 -18 -14 -26 -14 -11 0 -13 -7 -9 -26 6 -21 4 -25 -8
-21 -9 4 -16 3 -16 -2 0 -5 -11 -7 -23 -6 -20 2 -23 -1 -19 -21 2 -13 11 -24
18 -24 8 0 14 -4 14 -10 0 -5 -7 -10 -16 -10 -13 0 -14 -3 -5 -13 16 -21 -10
-53 -35 -42 -10 4 -26 7 -35 6 -9 -1 -19 5 -22 14 -8 18 1 45 15 45 5 0 6 5 3
10 -8 13 -55 13 -55 1 0 -6 4 -12 9 -15 5 -3 7 -15 4 -26 -4 -15 -14 -20 -36
-20 -25 0 -117 -35 -117 -45 0 -1 18 3 40 8 28 8 46 8 62 0 13 -6 30 -13 38
-16 8 -2 0 -7 -17 -11 -19 -5 -33 -14 -33 -22 0 -15 4 -15 60 4 9 3 6 -2 -5
-11 -11 -9 -40 -17 -65 -17 -41 -1 -163 -28 -132 -29 6 -1 12 -4 12 -8 -1 -11
-68 -43 -90 -43 -11 0 -19 -3 -17 -8 1 -4 -14 -23 -35 -42 -20 -19 -38 -44
-40 -55 -1 -11 -12 -28 -23 -37 l-20 -17 20 -1 c12 -1 -2 -12 -38 -31 -32 -16
-55 -34 -52 -39 3 -6 2 -10 -4 -10 -22 0 -69 -50 -64 -69 3 -10 0 -22 -6 -25
-22 -14 -12 -33 14 -28 14 2 25 0 25 -5 0 -16 -48 -63 -64 -63 -8 0 -17 -4
-20 -9 -4 -5 3 -7 14 -4 32 9 23 -11 -25 -53 -24 -21 -45 -45 -45 -52 0 -28
-54 -72 -86 -72 -34 0 -151 -65 -146 -81 1 -5 -9 -14 -22 -19 -13 -5 -28 -19
-32 -32 -4 -13 -31 -51 -60 -86 -30 -35 -54 -67 -54 -72 0 -4 -3 -17 -7 -27
-3 -10 16 6 44 35 28 28 56 52 62 52 7 0 10 4 6 10 -9 14 52 41 79 34 13 -3
27 -1 30 5 4 6 24 11 44 11 l37 -1 -39 -20 c-25 -14 -50 -19 -70 -16 -17 2
-40 1 -51 -4 -14 -5 -7 -8 28 -8 26 -1 47 -5 47 -11 0 -5 -5 -10 -12 -10 -6 0
-9 -3 -6 -6 3 -3 15 0 26 7 24 15 61 4 44 -13 -7 -7 -12 -20 -12 -31 0 -10 -5
-15 -10 -12 -6 4 -17 1 -25 -5 -8 -7 -26 -10 -40 -8 -14 3 -30 -1 -36 -8 -6
-8 -19 -14 -29 -14 -12 0 -17 -8 -17 -31 0 -17 -5 -34 -12 -38 -7 -5 -14 -28
-15 -52 -2 -24 -5 -50 -7 -58 -2 -7 2 -16 10 -19 10 -3 12 0 8 13 -9 22 16 75
53 110 24 23 32 26 44 16 10 -8 16 -9 21 -1 3 5 12 10 18 9 9 0 9 -2 0 -6 -7
-2 -13 -13 -13 -24 0 -10 -7 -19 -15 -19 -18 0 -20 -17 -3 -22 9 -3 5 -17 -14
-45 -22 -33 -35 -42 -67 -48 -45 -7 -61 -22 -40 -36 10 -6 11 -9 2 -9 -7 0
-13 -6 -13 -12 1 -7 11 -1 23 15 13 15 30 27 40 27 16 0 15 -3 -3 -37 -23 -43
-21 -47 11 -34 13 5 18 10 11 10 -7 1 -10 6 -6 12 10 17 26 -16 20 -43 -3 -13
-10 -41 -16 -63 -6 -22 -13 -49 -15 -60 -5 -28 -20 -86 -30 -114 -5 -15 -4
-21 3 -17 19 12 23 -12 8 -51 -13 -35 -26 -83 -27 -100 0 -5 -7 -18 -15 -30
-8 -13 -12 -23 -8 -23 4 0 1 -6 -5 -14 -9 -11 -10 -20 -1 -35 6 -12 12 -62 13
-112 3 -76 6 -94 22 -105 10 -8 15 -14 11 -14 -5 0 -3 -6 3 -14 6 -7 9 -20 5
-29 -3 -8 -1 -18 5 -22 6 -3 11 -16 11 -28 0 -12 11 -43 25 -69 14 -26 25 -51
24 -55 -1 -4 0 -10 1 -13 1 -3 3 -25 4 -50 2 -25 6 -52 9 -60 3 -8 11 -41 17
-72 6 -32 16 -60 21 -64 6 -3 8 -12 5 -20 -3 -8 1 -14 8 -14 8 0 17 -25 25
-72 8 -48 19 -80 33 -95 12 -13 17 -23 11 -23 -6 0 -14 6 -16 13 -3 6 -6 3 -6
-8 0 -11 4 -27 9 -35 9 -13 13 -12 29 7 11 13 17 31 14 43 -3 11 0 27 7 35 6
8 9 19 5 24 -3 6 1 21 8 33 8 13 14 37 12 53 -1 17 3 39 9 50 5 11 9 25 8 31
-1 7 3 25 9 40 7 16 11 35 10 42 -1 6 3 12 9 12 5 0 10 6 10 14 0 16 48 103
61 111 5 4 9 16 9 29 0 12 12 47 26 77 15 30 27 60 27 68 0 8 9 16 19 19 10 2
18 10 18 17 0 7 7 18 15 25 8 7 13 16 10 20 -3 4 2 13 10 20 8 7 15 18 15 24
0 6 14 20 30 29 17 10 30 22 30 27 0 5 16 14 35 20 31 10 34 14 28 40 -7 37
17 49 52 26 32 -21 52 -22 35 -1 -19 23 -10 25 35 9 61 -22 161 -30 180 -14
13 11 15 9 11 -11 -3 -13 -5 -26 -6 -29 -2 -3 -2 -8 -1 -12 0 -5 -7 -8 -16 -8
-10 -1 -28 -9 -40 -19 -43 -36 -29 -34 79 12 18 8 23 14 15 19 -8 5 -7 8 4 8
9 0 22 12 30 28 22 43 65 72 52 35 -3 -10 -13 -26 -20 -35 -13 -15 -13 -16 9
-10 30 7 40 18 64 69 19 43 40 55 50 28 9 -23 22 -9 35 38 11 41 12 41 22 17
l10 -25 10 33 c11 34 33 39 30 6 -1 -10 4 -22 10 -26 9 -6 8 -11 -3 -18 -12
-8 -11 -10 7 -10 24 0 40 16 21 22 -25 9 -13 97 20 143 13 19 14 19 7 -2 -5
-17 -2 -23 9 -23 9 0 16 -4 16 -10 0 -5 7 -10 15 -10 8 0 15 5 15 11 0 5 -4 7
-10 4 -9 -6 -14 10 -13 43 1 6 -8 12 -19 12 -13 0 -18 6 -16 17 4 22 28 29 28
9 0 -9 5 -16 10 -16 6 0 10 5 10 10 0 6 6 10 14 10 9 0 12 7 9 21 -5 19 -3 20
18 14 13 -4 27 -13 31 -18 9 -15 64 5 60 21 -3 16 30 15 47 0 11 -10 13 -10 7
0 -11 19 8 14 34 -8 13 -11 28 -20 34 -20 6 0 4 5 -4 10 -11 7 -12 10 -2 10 7
0 20 -7 28 -15 14 -13 14 -15 0 -15 -9 0 -16 -4 -16 -9 0 -13 27 -21 46 -14
14 5 14 3 3 -15 -18 -29 3 -52 49 -52 19 0 43 -7 53 -15 12 -11 25 -14 45 -9
29 8 29 8 5 14 -31 7 -40 30 -12 30 24 0 24 17 0 40 -29 27 -32 66 -7 87 13
10 34 40 46 68 l24 49 -21 17 c-20 16 -20 17 15 58 20 22 44 41 55 41 13 0 18
6 16 22 -1 15 4 23 18 26 21 5 46 32 39 44 -6 10 26 -2 44 -15 6 -5 12 -6 12
-1 2 29 27 -46 29 -83 0 -25 6 -53 11 -63 6 -10 10 -31 10 -46 0 -27 0 -27 21
-8 17 15 20 27 16 61 -2 24 -1 43 4 43 4 0 10 9 14 19 7 25 92 34 114 13 8 -8
10 -17 5 -20 -15 -12 -14 -62 1 -62 11 0 14 -11 12 -40 -1 -22 -7 -40 -13 -40
-18 0 -66 -49 -59 -60 3 -6 -3 -10 -14 -10 -22 0 -46 34 -35 51 3 6 17 8 32 4
22 -5 24 -4 13 9 -11 13 -11 16 2 16 8 0 17 10 20 22 8 29 0 36 -16 14 -7 -10
-27 -18 -45 -18 -20 -1 -32 -6 -32 -15 0 -7 -7 -13 -15 -13 -19 0 -19 -24 0
-44 9 -9 12 -22 8 -33 -6 -16 -5 -17 13 -3 18 14 18 14 1 -6 -9 -11 -14 -24
-10 -27 3 -4 -2 -7 -12 -7 -14 0 -15 -3 -5 -15 10 -13 10 -19 -4 -33 -9 -10
-14 -21 -11 -24 3 -2 -19 -17 -49 -32 -57 -29 -95 -34 -161 -21 -45 9 -40 -4
8 -20 69 -23 247 45 247 94 0 6 13 11 29 11 24 0 29 4 29 25 0 14 10 35 23 47
16 14 20 22 12 25 -28 10 -11 24 25 21 32 -3 37 -7 40 -30 2 -20 -1 -28 -12
-28 -9 0 -16 -4 -16 -10 0 -5 7 -10 15 -10 14 0 14 -3 0 -24 -15 -22 -14 -24
7 -30 34 -9 45 -7 28 4 -13 9 -13 11 0 20 8 5 23 7 33 4 11 -4 17 0 17 11 0 9
15 23 33 31 l32 15 -34 -7 c-24 -4 -32 -3 -26 6 4 6 9 9 12 7 2 -3 16 1 30 8
25 13 52 10 64 -7 3 -5 27 2 54 16 77 41 82 39 89 -34 3 -28 33 -40 42 -16 3
9 13 16 21 16 8 0 11 5 8 10 -4 6 0 22 9 35 13 20 22 23 49 19 17 -4 42 -13
55 -21 12 -7 27 -11 32 -8 5 3 29 1 52 -6 24 -7 53 -11 64 -11 26 2 74 -40 74
-65 0 -10 16 -35 36 -56 35 -36 64 -48 64 -26 0 5 4 8 10 4 5 -3 7 -12 3 -20
-3 -10 2 -15 16 -15 13 0 21 -6 21 -17 0 -15 2 -16 10 -3 8 13 10 13 10 -1 0
-20 34 -31 49 -16 7 7 14 7 23 0 21 -18 54 -19 73 -3 15 13 19 12 31 -4 7 -11
28 -20 45 -21 17 -2 34 -7 38 -13 3 -5 16 -12 27 -16 12 -4 24 -16 27 -26 3
-12 1 -18 -5 -14 -6 4 -5 -3 2 -15 6 -12 18 -25 26 -28 8 -3 14 -10 13 -17 -4
-31 2 -56 13 -54 7 2 13 -4 13 -12 0 -8 -5 -14 -11 -13 -16 3 -6 -122 12 -156
9 -16 10 -29 4 -37 -20 -23 -28 -102 -14 -129 12 -24 11 -26 -12 -35 -14 -6
-29 -10 -34 -10 -5 0 -14 -8 -19 -19 -12 -22 -63 -34 -74 -18 -4 7 -6 -1 -5
-18 3 -25 -2 -33 -30 -47 -29 -15 -39 -15 -82 -4 -28 7 -50 10 -50 6 0 -4 -6
-7 -12 -8 -7 0 -29 -4 -48 -7 -19 -4 -71 -9 -115 -12 -44 -3 -83 -10 -87 -17
-5 -7 -8 -5 -8 7 0 13 -7 17 -32 15 -18 -1 -36 -7 -40 -13 -5 -6 -8 -7 -8 0 0
12 -69 12 -115 1 l-30 -7 25 15 c16 10 19 15 10 16 -13 0 -13 1 0 10 20 13 5
12 -41 -2 -22 -6 -39 -14 -39 -18 0 -5 -11 -11 -25 -14 -32 -8 -32 -22 0 -30
31 -8 25 -22 -14 -31 -24 -5 -31 -14 -41 -51 -15 -52 -10 -62 26 -45 30 13 40
9 28 -11 -5 -7 -10 -22 -11 -33 -2 -19 -1 -18 14 3 8 12 23 22 31 22 13 0 12
-3 -4 -14 -14 -11 -16 -18 -8 -26 9 -9 18 -8 38 5 28 18 36 6 11 -15 -18 -15
-13 -22 18 -26 56 -7 86 -17 81 -26 -7 -11 50 -7 96 7 24 7 25 7 5 -9 -19 -16
-19 -16 8 -6 15 5 54 7 87 3 39 -4 64 -2 73 6 8 6 34 14 58 17 24 3 48 10 53
15 15 14 36 11 36 -6 0 -8 -8 -15 -17 -16 -11 0 -13 -2 -5 -6 7 -3 24 2 37 11
28 19 71 23 45 5 -12 -8 -10 -9 10 -5 70 17 83 19 76 8 -3 -5 0 -12 6 -15 8
-3 3 -9 -12 -16 -22 -10 -19 -11 22 -7 26 2 45 0 42 -5 -3 -5 3 -10 13 -10 10
-1 23 -2 28 -4 6 -1 19 -3 30 -4 17 -1 18 -3 5 -11 -11 -7 -7 -10 20 -11 24
-1 28 -3 12 -6 -12 -2 -20 -9 -16 -14 3 -5 10 -6 16 -3 7 5 9 0 6 -14 -5 -19
-1 -21 41 -24 30 -2 46 -8 46 -16 0 -8 8 -19 18 -26 9 -7 17 -19 17 -25 0 -6
10 -25 21 -40 12 -16 18 -34 15 -40 -4 -6 -2 -11 3 -11 6 0 11 -8 11 -18 0
-10 9 -25 20 -35 11 -9 20 -15 20 -12 0 3 9 -3 19 -12 11 -9 17 -21 15 -27 -3
-7 4 -21 14 -32 22 -23 34 -72 20 -80 -5 -4 -5 -10 0 -17 17 -22 22 -75 8 -80
-12 -5 -12 -16 -1 -66 7 -34 9 -64 4 -67 -5 -3 -9 -18 -9 -35 0 -16 -5 -29
-12 -29 -8 0 -9 -3 -3 -8 6 -4 15 -21 21 -39 10 -26 9 -33 -3 -37 -8 -3 -11
-1 -8 4 7 12 -5 13 -23 1 -17 -10 -27 -127 -12 -136 6 -3 8 -11 5 -16 -4 -5 2
-9 12 -10 16 0 16 -1 -2 -9 -18 -8 -18 -9 -2 -9 15 -1 17 -6 12 -31 -4 -20 -3
-30 5 -30 6 0 10 -6 7 -12 -2 -7 2 -17 8 -23 18 -14 27 -62 14 -71 -8 -4 -7
-9 2 -14 10 -7 10 -11 0 -24 -8 -9 -20 -16 -27 -16 -8 0 -14 -4 -14 -10 0 -5
7 -10 15 -10 21 0 19 -16 -7 -40 -12 -11 -18 -20 -12 -20 5 0 9 -16 10 -35 0
-29 -3 -35 -20 -36 -21 0 -21 -1 -1 -9 11 -5 14 -9 8 -9 -16 -1 -17 -71 -2
-71 8 0 10 -12 6 -34 -5 -32 -3 -36 30 -51 25 -12 32 -20 24 -28 -7 -7 -15 -6
-27 4 -16 12 -17 12 -11 -3 5 -13 1 -18 -13 -18 -11 0 -20 -7 -20 -15 0 -8 -4
-15 -9 -15 -30 0 -37 -134 -8 -152 8 -5 6 -8 -5 -8 -10 0 -18 -6 -18 -12 0 -7
-8 -32 -17 -55 -13 -30 -24 -43 -38 -44 -19 0 -18 -1 3 -11 22 -11 31 -48 11
-48 -5 0 -8 -4 -5 -9 7 -10 -16 -71 -26 -71 -4 0 -8 -9 -8 -21 0 -16 -5 -20
-26 -17 -28 3 -61 -30 -38 -39 13 -4 -138 -163 -155 -163 -7 0 -9 -5 -6 -10 3
-5 2 -10 -4 -10 -6 0 -8 -7 -5 -15 4 -8 2 -15 -4 -15 -5 0 -12 7 -16 15 -3 9
-12 12 -22 8 -15 -6 -14 -7 4 -14 23 -9 28 -34 13 -58 -7 -10 -22 -12 -62 -7
-30 3 -59 7 -66 8 -31 4 -63 44 -66 83 -1 22 -7 47 -12 55 -5 8 -10 24 -10 35
-3 38 -36 97 -77 133 -23 20 -55 49 -71 65 -17 15 -37 27 -46 27 -9 0 -43 14
-76 30 -33 16 -62 25 -65 20 -3 -5 -12 -5 -20 0 -8 6 -26 10 -39 10 -44 0
-103 24 -129 52 -16 17 -33 26 -43 23 -10 -3 -19 1 -23 10 -3 8 -12 15 -21 15
-8 0 -15 3 -15 8 0 4 -4 13 -9 20 -7 11 -19 11 -67 -2 -52 -13 -116 -20 -166
-17 -21 1 -14 33 13 57 26 24 24 35 -7 30 -69 -13 -122 -76 -74 -89 27 -7 24
-57 -5 -72 -11 -6 -21 -21 -23 -33 -2 -16 -10 -22 -28 -22 -13 0 -24 -4 -24
-10 0 -5 -9 -18 -20 -28 -13 -12 -19 -27 -16 -43 3 -13 5 -27 5 -31 1 -4 8 -5
18 -1 13 5 15 2 10 -16 -4 -17 2 -27 29 -44 18 -12 41 -37 50 -55 8 -18 28
-38 42 -44 15 -6 37 -15 49 -21 13 -6 44 -11 70 -12 27 -1 56 -5 65 -9 9 -4
26 -3 37 4 12 6 21 7 21 3 0 -4 4 -2 9 6 7 11 13 8 26 -13 14 -21 15 -29 5
-41 -10 -12 -10 -18 0 -30 19 -23 -4 -44 -45 -40 -23 2 -32 0 -29 -9 2 -6 -6
-21 -18 -33 -22 -19 -52 -29 -124 -39 -17 -2 -48 -11 -69 -20 -61 -25 -171
-36 -230 -22 -16 4 -23 4 -15 1 19 -8 -145 -33 -220 -34 -50 0 -52 -1 -25 -10
17 -5 56 -8 87 -6 32 2 59 1 60 -4 2 -4 48 -4 103 1 67 5 102 4 107 -3 4 -7
11 -7 20 0 17 15 71 4 64 -12 -6 -17 41 -36 79 -33 17 1 40 -4 52 -10 17 -9
22 -9 26 1 3 9 9 7 24 -6 25 -22 111 -23 139 -2 10 8 31 15 45 15 15 0 32 7
39 15 10 12 16 13 26 4 8 -6 14 -8 14 -3 0 5 4 3 9 -5 8 -12 12 -12 25 -2 8 7
14 18 12 24 -1 7 -1 9 1 5 8 -13 23 -9 23 6 0 8 13 20 29 27 16 7 27 18 23 24
-3 5 3 3 13 -5 17 -14 18 -13 13 7 -3 12 -1 24 5 26 18 6 18 119 0 140 -15 16
-14 17 13 18 29 1 29 1 -5 9 -37 9 -52 25 -44 47 5 11 9 11 27 -2 11 -9 29
-18 38 -21 18 -7 31 -31 23 -44 -3 -5 -1 -11 5 -15 6 -4 8 -11 4 -16 -3 -6 1
-18 10 -28 9 -10 18 -35 19 -54 4 -43 17 -62 17 -24 0 15 5 27 10 27 6 0 10
-13 10 -29 0 -17 -4 -33 -10 -36 -5 -3 -10 -20 -10 -36 0 -26 -3 -30 -22 -27
-18 2 -23 -2 -24 -20 -1 -12 5 -26 13 -31 12 -6 13 -12 4 -29 -18 -34 -14 -62
9 -62 11 0 20 -5 20 -11 0 -6 -7 -9 -14 -6 -11 4 -13 1 -9 -10 4 -9 2 -14 -3
-11 -5 3 -17 -3 -26 -13 -16 -17 -16 -19 3 -33 21 -14 21 -14 -3 -22 -12 -4
-27 -13 -33 -20 -5 -7 -23 -15 -40 -19 -23 -4 -25 -3 -10 4 18 8 19 9 2 16
-20 8 -92 -3 -82 -13 7 -7 12 -8 40 -11 8 0 20 -11 26 -23 12 -22 12 -22 -14
-5 -35 23 -44 22 -22 -3 10 -11 24 -20 31 -20 7 0 16 -4 19 -10 3 -6 -4 -9
-19 -8 -13 1 -22 6 -20 10 3 4 2 8 -3 8 -13 0 -55 -79 -48 -90 8 -13 -1 -13
-26 0 -17 10 -19 7 -19 -26 0 -28 -3 -35 -15 -30 -9 3 -15 0 -15 -9 0 -9 -9
-14 -23 -13 -13 1 -36 -3 -53 -10 -17 -7 -93 -13 -194 -15 -147 -2 -167 0
-183 16 -10 10 -15 22 -12 26 2 5 -2 12 -11 15 -13 5 -14 9 -4 21 17 21 1 19
-37 -5 -18 -11 -30 -25 -28 -32 3 -8 -4 -14 -21 -15 -15 0 -30 -6 -34 -13 -6
-10 -9 -9 -12 0 -3 10 -9 10 -28 -1 -34 -18 -48 -19 -76 -7 -19 9 -28 8 -43
-6 -11 -10 -17 -25 -14 -33 7 -17 -74 -98 -108 -108 -21 -7 -25 5 -7 23 9 9 9
12 1 12 -7 0 -15 -4 -18 -10 -10 -17 -25 -11 -18 7 4 11 3 14 -5 9 -7 -4 -12
-3 -12 3 0 5 6 12 13 14 6 3 7 6 1 6 -5 1 -20 -12 -32 -29 -13 -17 -30 -30
-40 -30 -15 1 -15 2 2 11 14 9 15 13 5 19 -10 7 -10 11 1 25 12 15 11 15 -16
4 -16 -7 -38 -20 -49 -29 -36 -30 -51 -34 -26 -7 l23 26 -23 -5 c-22 -4 -22
-4 -4 5 11 5 39 15 63 22 63 19 43 22 -26 5 -74 -20 -76 -20 -68 -1 3 8 4 15
3 15 -1 0 -17 -4 -35 -9 -25 -8 -32 -7 -29 2 2 7 13 12 24 12 12 0 24 3 28 7
17 16 -57 0 -76 -18 -22 -19 -22 -19 -10 3 6 13 21 28 32 34 29 15 17 22 -14
8 -29 -13 -97 -4 -97 13 0 6 8 20 17 30 16 18 16 19 -12 8 -62 -24 -68 -21
-36 16 35 39 38 49 15 40 -11 -4 -15 -2 -11 8 4 10 -1 12 -16 9 -18 -4 -20 -3
-7 7 12 10 10 10 -10 5 -14 -4 -38 -9 -55 -12 -16 -3 -37 -11 -45 -17 -13 -9
-13 -9 -2 6 8 10 22 20 32 23 12 4 16 12 13 24 -3 14 3 22 24 29 22 8 24 11 8
11 -11 1 -31 -6 -43 -15 -13 -9 -25 -14 -28 -11 -8 8 -13 48 -6 43 4 -2 16 3
27 11 19 15 19 15 -4 8 -16 -5 -21 -4 -17 4 4 6 9 20 11 30 3 14 -1 18 -11 14
-8 -3 -13 -8 -10 -10 6 -7 -19 -33 -32 -33 -5 0 2 21 15 48 13 26 25 67 27 90
2 24 9 49 15 55 6 6 11 21 11 34 0 13 10 29 25 39 14 9 25 22 25 29 0 15 41 8
52 -9 5 -8 12 -6 24 5 17 18 63 12 131 -16 47 -20 87 -20 79 0 -4 10 7 18 37
26 23 7 46 12 51 10 4 -1 14 3 21 9 7 6 20 8 29 4 9 -3 16 -2 16 4 0 5 -40 11
-88 14 -49 3 -99 11 -113 18 -38 21 -161 19 -183 -3 -21 -21 -56 -23 -56 -2 0
8 -6 12 -12 10 -9 -3 -14 6 -15 25 -1 16 3 30 8 30 6 0 9 -7 5 -15 -3 -8 -1
-15 5 -15 5 0 12 14 16 30 3 17 12 30 19 30 8 0 20 11 26 25 6 14 17 25 25 25
7 0 13 6 13 13 0 8 9 22 20 32 21 19 28 7 8 -13 -7 -7 -8 -12 -4 -12 4 0 17
11 28 25 11 14 28 25 38 25 10 0 22 5 25 10 10 16 28 12 21 -5 -5 -13 -2 -14
15 -4 12 6 32 8 46 4 20 -5 24 -3 20 9 -3 8 1 17 9 20 8 3 14 1 14 -5 0 -6 6
-6 19 0 15 8 20 7 25 -5 4 -11 10 -13 19 -7 22 18 70 25 77 12 6 -9 14 -7 31
5 13 9 34 16 48 16 13 0 29 8 36 17 9 12 24 17 52 15 33 -3 44 2 75 33 50 50
59 102 25 139 -15 16 -35 26 -53 26 -16 0 -35 4 -43 9 -18 12 -41 3 -41 -15 0
-12 -4 -12 -20 -4 -11 6 -20 20 -20 31 0 15 -4 18 -17 12 -26 -12 -68 -10 -66
4 3 13 -63 -2 -84 -19 -7 -6 -20 -7 -29 -4 -8 3 -22 -1 -30 -9 -9 -8 -12 -15
-7 -15 5 0 14 5 20 11 8 8 13 8 17 0 10 -15 -3 -33 -19 -27 -16 6 -105 -20
-120 -35 -7 -7 -4 -8 10 -3 24 9 20 5 -24 -26 -33 -23 -33 -23 -26 -1 8 26 -2
27 -40 0 -16 -11 -48 -29 -70 -41 l-40 -21 19 22 c24 26 12 27 -21 1 -19 -15
-30 -17 -44 -9 -13 6 -19 6 -19 -1 0 -5 -10 -9 -22 -7 -14 1 -23 -4 -26 -16
-2 -9 -31 -45 -65 -80 -34 -34 -71 -73 -82 -87 l-20 -25 24 20 c17 14 23 16
19 5 -2 -8 -15 -20 -27 -26 -26 -13 -56 -52 -47 -61 3 -4 17 6 30 21 22 27 23
27 22 6 -1 -13 -13 -28 -31 -38 -16 -10 -31 -26 -33 -37 -2 -19 -1 -18 14 2 9
13 23 23 31 23 16 0 7 -14 -34 -52 -27 -25 -64 -94 -56 -102 12 -12 22 -6 26
17 3 20 4 20 12 4 6 -14 1 -25 -19 -44 -14 -13 -24 -28 -21 -34 4 -5 0 -9 -7
-9 -9 0 -10 -3 -2 -8 6 -4 15 -18 19 -32 11 -34 13 -110 3 -110 -4 0 -8 -7 -8
-15 0 -8 -7 -15 -16 -15 -8 0 -22 -7 -30 -15 -9 -8 -21 -15 -27 -15 -7 0 -4 7
6 14 20 16 22 26 3 26 -10 0 -12 9 -6 40 4 22 3 37 -1 34 -13 -8 -11 10 3 24
9 9 9 12 -2 12 -11 0 -11 3 -2 12 16 16 15 25 -4 32 -8 3 -22 -1 -30 -9 -22
-21 -33 -19 -33 7 -1 58 -2 60 -18 54 -19 -8 -33 10 -33 40 0 12 -8 25 -17 29
-17 6 -17 7 1 21 11 7 16 17 12 21 -11 12 -40 -12 -47 -38 l-5 -24 -8 22 c-4
13 -5 27 -1 33 3 6 -1 7 -9 4 -26 -10 -18 11 9 26 14 7 23 15 21 17 -2 3 -18
-3 -35 -11 -19 -10 -32 -12 -36 -6 -9 15 3 30 25 30 10 0 20 6 23 14 4 10 0
12 -15 8 -16 -4 -20 -1 -16 10 4 8 3 21 -2 28 -6 10 -14 10 -39 -3 -30 -15
-31 -15 -37 10 -4 14 -2 34 5 44 15 25 14 29 -6 30 -10 0 0 6 22 14 27 9 33
13 18 14 -36 2 -76 -18 -69 -34 4 -12 1 -12 -20 -3 -13 6 -23 16 -22 22 2 6 0
11 -4 11 -4 0 -15 10 -23 22 -12 17 -13 28 -5 42 14 26 13 38 -2 23 -16 -16
-28 -15 -28 3 0 8 5 15 10 15 5 0 1 9 -9 19 -11 11 -23 36 -26 55 -4 19 -13
37 -21 40 -7 3 -11 12 -8 21 4 8 1 15 -6 15 -7 0 -10 7 -6 15 3 9 -1 15 -11
15 -12 0 -13 3 -4 14 9 10 8 15 -4 20 -8 3 -15 17 -15 31 0 14 -5 25 -11 25
-6 0 -8 9 -4 20 3 11 2 20 -3 20 -8 0 -35 70 -37 95 0 6 -3 15 -6 20 -9 15
-58 184 -65 225 -2 8 -12 53 -24 100 -21 87 -34 183 -49 348 -8 93 -21 136
-21 69 0 -19 -5 -48 -12 -64 -6 -15 -12 -31 -13 -35 -2 -5 -3 -9 -5 -10 -6 -8
-6 -48 0 -48 23 0 47 -153 39 -256 -1 -15 3 -29 9 -33 10 -6 12 -61 2 -61 -3
0 -5 -27 -5 -59 0 -37 4 -57 10 -53 6 3 2 -4 -9 -16 -15 -17 -16 -25 -7 -36 8
-10 9 -16 1 -21 -11 -7 -50 -78 -50 -92 0 -4 11 8 25 27 38 52 72 68 62 29 -3
-11 1 -36 9 -56 11 -26 12 -38 4 -48 -8 -10 -7 -15 3 -22 19 -10 28 -78 14
-92 -8 -8 -8 -11 1 -11 7 0 12 -14 12 -35 0 -19 8 -44 17 -55 10 -12 16 -32
15 -49 -2 -16 1 -32 7 -36 6 -3 11 -17 11 -31 0 -21 -4 -24 -39 -24 -28 0 -49
8 -76 30 -40 32 -59 33 -33 3 8 -10 18 -26 21 -35 6 -16 63 -38 100 -38 9 0
17 -7 17 -15 0 -8 5 -15 11 -15 6 0 9 -6 6 -12 -2 -7 4 -27 13 -43 9 -17 16
-45 15 -63 -1 -17 1 -32 4 -32 3 0 7 -14 8 -30 1 -17 -2 -30 -7 -30 -13 0 0
-61 16 -81 8 -9 11 -19 7 -22 -3 -4 -1 -7 6 -7 6 0 17 -12 23 -28 15 -36 16
-46 3 -54 -6 -5 -5 -11 4 -17 11 -7 11 -9 0 -14 -8 -3 -3 -6 10 -6 20 -1 23
-5 19 -31 -3 -17 -1 -33 4 -36 4 -3 8 -13 8 -23 0 -10 6 -24 14 -31 8 -6 12
-18 9 -26 -3 -8 1 -14 11 -14 9 0 16 -6 16 -14 0 -7 7 -19 15 -26 8 -7 15 -21
15 -31 0 -11 4 -19 9 -19 24 0 44 -156 27 -207 -6 -20 -4 -23 21 -23 27 -1 27
-1 9 -15 -14 -11 -16 -15 -5 -15 26 0 -13 -20 -41 -20 -24 -1 -24 -1 5 -15 17
-7 26 -14 21 -14 -6 -1 -2 -7 8 -14 17 -12 17 -14 2 -20 -9 -4 -16 -2 -16 4 0
6 -5 7 -12 3 -7 -5 -9 -2 -6 7 4 10 -1 15 -15 17 -16 1 -18 -1 -8 -7 8 -5 11
-16 7 -29 -6 -17 -15 -20 -46 -19 -21 1 -36 5 -34 9 3 5 10 5 16 2 7 -4 8 -2
4 4 -4 6 -14 8 -24 5 -15 -6 -15 -5 -3 10 8 10 9 17 3 17 -31 0 -38 -65 -9
-86 16 -12 17 -15 5 -11 -19 7 -25 -8 -8 -18 6 -3 10 -11 10 -16 0 -6 -4 -7
-10 -4 -5 3 -10 1 -10 -4 0 -6 6 -11 13 -12 6 0 3 -4 -8 -9 -18 -7 -18 -9 -3
-15 9 -4 14 -13 12 -20 -6 -16 -41 -8 -48 11 -3 8 -12 11 -23 7 -16 -6 -16 -5
-4 10 18 23 9 21 -19 -3 l-23 -20 21 0 c12 0 22 -5 22 -11 0 -5 -4 -8 -9 -5
-8 5 -24 -29 -22 -46 0 -4 -5 -5 -13 -2 -7 3 -16 -2 -19 -10 -4 -10 -1 -16 8
-16 8 0 15 -5 15 -11 0 -5 -5 -7 -11 -3 -7 4 -10 1 -7 -7 3 -8 14 -12 24 -11
10 2 16 1 12 -3 -5 -5 -24 -11 -49 -14 -3 -1 -16 -9 -27 -20 -23 -19 -29 -41
-12 -41 6 0 9 -3 9 -7 -4 -27 2 -33 20 -23 11 5 26 10 33 10 7 -1 -3 -9 -22
-20 -19 -11 -30 -19 -23 -20 8 0 4 -16 -12 -46 -30 -55 -29 -54 -9 -54 9 0 14
5 12 12 -2 6 10 27 28 46 26 28 39 35 72 36 l41 1 -21 -22 c-18 -19 -23 -20
-32 -8 -14 19 -26 9 -50 -37 -10 -21 -27 -40 -38 -44 -13 -4 -17 -11 -13 -24
3 -10 1 -21 -5 -25 -5 -3 -10 -11 -10 -18 0 -6 18 8 41 32 23 23 43 40 46 37
3 -3 0 -12 -6 -20 -9 -11 -10 -20 -2 -33 8 -14 11 -15 11 -3 0 9 6 5 15 -10
19 -33 18 -36 -3 -45 -28 -12 -62 -14 -62 -4 0 6 -5 7 -11 3 -7 -4 -7 -9 -2
-13 13 -8 38 -54 35 -63 -1 -5 5 -8 13 -8 18 0 21 -50 3 -51 -7 -1 -2 -4 12
-8 20 -6 26 -14 28 -46 2 -22 9 -43 15 -47 9 -6 9 -8 0 -8 -7 0 -13 -4 -13
-10 0 -5 7 -10 15 -10 8 0 14 -3 14 -7 -3 -19 3 -21 32 -11 43 15 48 2 5 -16
-20 -8 -36 -19 -36 -25 0 -6 15 -4 35 5 39 16 55 18 55 6 0 -4 -20 -14 -45
-21 -50 -15 -49 -14 -34 -42 12 -23 4 -53 -11 -44 -8 5 -7 12 2 23 10 12 10
14 1 8 -8 -4 -13 -2 -13 7 0 22 -27 28 -42 10 -11 -14 -10 -15 10 -9 26 9 29
-1 5 -21 -12 -10 -13 -13 -4 -11 8 3 23 -4 34 -15 16 -16 17 -21 6 -28 -11 -7
-10 -9 4 -9 10 0 15 -4 12 -10 -4 -6 6 -10 24 -10 24 0 29 -3 24 -16 -5 -13
-2 -15 18 -9 31 10 31 10 52 0 12 -5 15 -10 7 -15 -16 -10 0 -42 18 -35 12 4
13 3 2 -10 -18 -21 -6 -29 19 -13 18 11 23 11 31 -2 14 -23 12 -30 -12 -40
-13 -5 -18 -9 -13 -9 6 -1 16 -10 23 -22 12 -18 11 -20 -5 -15 -10 3 -29 -1
-43 -9 -14 -8 -19 -14 -11 -15 11 0 10 -4 -3 -19 -10 -11 -15 -24 -12 -29 6
-11 -30 -46 -59 -57 -20 -7 -20 -7 0 -15 19 -7 19 -7 -3 -21 -12 -8 -22 -19
-22 -26 0 -7 -5 -13 -11 -13 -5 0 -8 -4 -5 -8 3 -5 -5 -18 -17 -30 -28 -26
-47 -49 -47 -58 0 -3 -9 -17 -20 -31 -11 -14 -17 -30 -13 -36 4 -6 0 -8 -8 -5
-10 4 -15 -2 -17 -18 -2 -25 5 -28 33 -18 13 5 14 8 3 15 -9 6 -4 9 17 10 17
1 22 3 13 6 -19 5 -25 23 -7 23 5 0 8 4 5 9 -3 5 1 12 10 15 24 9 26 8 19 -13
-3 -11 -1 -22 5 -26 14 -9 13 -25 -2 -20 -7 3 -20 1 -28 -5 -13 -8 -12 -11 4
-23 17 -13 16 -14 -15 -10 l-34 4 25 -15 c25 -15 21 -20 -12 -17 -10 1 -18 -3
-18 -9 0 -7 7 -10 15 -7 8 4 17 2 20 -3 6 -10 -8 -13 -50 -12 -17 1 -18 0 -2
-4 10 -3 17 -13 15 -22 -5 -22 47 -46 70 -33 14 8 12 11 -11 16 -15 4 -27 11
-27 16 0 12 14 11 27 -2 14 -14 47 -4 38 11 -4 6 6 10 22 10 21 0 24 -3 13
-10 -12 -7 -10 -11 10 -19 24 -9 24 -10 -10 -11 -32 -2 -33 -3 -10 -10 14 -4
19 -8 11 -9 -8 -1 -11 -8 -8 -21 3 -11 1 -18 -4 -14 -12 7 -11 2 7 -41 12 -28
12 -36 2 -32 -7 2 -12 12 -12 21 1 9 -4 16 -11 16 -8 0 -11 -8 -8 -19 4 -16 1
-19 -19 -15 -18 4 -17 2 7 -10 l30 -14 -30 -1 c-29 -1 -28 -2 20 -27 38 -19
43 -24 20 -19 -44 9 -93 15 -72 9 23 -7 16 -30 -9 -27 -10 1 -4 -4 14 -12 17
-8 32 -18 32 -21 0 -3 -15 -3 -32 1 -30 5 -31 5 -15 -8 10 -9 15 -21 11 -31
-7 -18 7 -21 23 -5 8 8 11 6 10 -7 -1 -11 -6 -22 -12 -26 -5 -4 -2 -10 7 -13
9 -4 14 -13 12 -20 -3 -7 -1 -16 5 -19 6 -4 8 -13 5 -21 -9 -23 24 -30 47 -9
15 13 17 20 7 26 -9 6 -7 8 7 6 12 -2 28 6 39 20 16 20 25 23 55 18 33 -5 34
-5 11 6 -21 9 -22 12 -7 15 9 3 17 10 17 16 0 8 4 7 12 -1 7 -7 20 -12 30 -12
11 0 18 -7 18 -20 0 -15 -7 -20 -26 -20 -15 0 -23 -4 -19 -11 4 -6 13 -8 21
-5 7 3 16 1 19 -3 2 -5 -5 -11 -16 -14 -12 -3 -18 -10 -14 -16 3 -6 -1 -11
-11 -11 -11 0 -15 -6 -11 -20 3 -10 1 -20 -3 -22 -5 -2 -10 -12 -12 -23 -1
-11 -10 -25 -18 -32 -13 -11 -12 -12 8 -13 15 0 22 6 22 20 0 17 5 19 33 13
29 -6 31 -5 18 10 -12 15 -10 16 20 11 19 -4 41 -13 50 -20 20 -18 34 -18 54
2 10 10 24 14 40 10 25 -6 34 -30 15 -41 -7 -4 -7 -12 0 -25 9 -16 6 -19 -22
-23 l-33 -4 33 -1 c32 -2 36 -8 32 -50 -1 -13 4 -30 10 -38 10 -11 8 -14 -11
-14 -19 0 -21 -2 -9 -9 8 -6 18 -7 24 -4 5 3 6 1 2 -5 -4 -7 -15 -12 -24 -13
-14 0 -13 -2 3 -9 13 -5 24 -4 30 4 21 27 88 -1 77 -32 -2 -7 9 -15 27 -18 37
-8 56 -28 47 -50 -5 -13 -1 -15 21 -10 21 5 24 4 13 -4 -17 -11 -11 -12 47
-10 33 1 42 -2 48 -19 3 -11 14 -22 23 -24 15 -4 15 -5 -1 -6 -16 -1 -17 -3
-3 -16 8 -8 18 -15 23 -15 5 0 17 -14 27 -31 10 -17 23 -28 29 -26 7 2 26 -13
42 -35 55 -71 174 -213 189 -226 13 -10 19 -7 38 25 13 21 32 56 43 78 10 22
41 77 67 123 26 45 48 87 48 92 0 6 4 10 8 10 5 0 14 12 21 27 18 40 151 233
232 338 38 50 89 115 111 145 23 30 47 60 52 67 6 6 29 37 50 67 22 31 43 56
47 56 10 0 40 49 49 81 5 17 5 29 -1 29 -5 0 -9 -9 -9 -20 0 -13 -5 -18 -15
-14 -12 5 -13 10 -4 20 9 11 7 14 -10 14 -12 0 -21 -6 -21 -15 0 -8 -4 -15
-10 -15 -14 0 -13 23 2 38 7 7 8 12 4 12 -5 0 -17 -10 -28 -22 -11 -13 -32
-23 -50 -24 -17 -1 -34 -7 -38 -14 -6 -10 -15 -9 -41 4 -24 12 -35 13 -40 5
-4 -8 -8 -3 -11 12 -2 14 -14 29 -30 37 -16 7 -28 17 -28 23 0 5 -9 9 -19 9
-11 0 -23 5 -26 10 -3 6 -15 10 -26 10 -10 0 -27 8 -37 18 -10 10 -23 17 -28
15 -5 -2 -17 15 -27 37 -13 31 -22 40 -41 40 -14 0 -28 5 -31 10 -4 6 -11 7
-17 4 -7 -5 -9 2 -4 20 6 26 5 27 -32 30 -8 1 -20 12 -27 26 -8 14 -15 21 -15
15 -1 -13 -39 66 -40 82 0 6 -8 14 -19 18 -30 9 -81 63 -81 85 0 11 -5 20 -11
20 -6 0 -9 8 -7 18 2 10 -15 35 -44 64 -31 31 -51 61 -59 90 -16 60 -36 97
-70 125 -16 14 -27 28 -24 33 3 4 -3 18 -13 31 -27 36 -102 196 -102 217 0 7
-4 12 -9 12 -5 0 -11 18 -15 40 -3 22 -11 40 -17 40 -6 0 -9 9 -6 20 3 11 1
20 -4 20 -11 0 -43 60 -32 60 5 0 2 4 -6 9 -7 5 -21 27 -32 50 -17 38 -17 41
-1 42 10 0 6 5 -10 11 -29 10 -33 37 -10 60 14 14 23 7 24 -18 2 -19 48 -31
48 -12 0 5 -4 6 -10 3 -5 -3 -10 3 -10 15 0 28 24 21 28 -8 2 -16 -4 -25 -20
-31 -21 -9 -21 -10 -3 -10 12 -1 26 4 33 11 10 10 16 7 30 -12 9 -14 16 -29
14 -34 -4 -12 55 -66 73 -66 9 0 13 -4 10 -10 -6 -10 0 -20 49 -73 18 -20 30
-27 33 -19 10 27 24 11 18 -21 -5 -29 -5 -30 9 -14 14 18 15 18 42 1 27 -18
27 -18 15 4 -19 36 -4 27 79 -49 9 -9 31 -22 49 -30 23 -10 31 -19 27 -32 -3
-14 -2 -16 9 -7 9 7 20 8 32 2 10 -6 35 -18 56 -28 42 -21 43 -23 21 -38 -12
-9 -4 -11 38 -11 29 1 64 5 78 9 l25 7 -24 -20 c-17 -16 -19 -21 -8 -21 9 0
19 5 22 10 11 18 51 10 74 -14 19 -20 30 -23 57 -19 27 5 34 2 34 -11 0 -14 8
-17 43 -14 29 2 41 7 39 17 -2 10 4 12 20 7 13 -3 29 -6 36 -6 8 0 10 -5 6
-12 -5 -8 -2 -9 11 -5 9 4 24 2 32 -4 11 -10 22 -8 52 9 39 22 103 33 71 12
-12 -8 -13 -10 -1 -10 8 0 23 7 33 17 10 9 21 13 25 9 4 -4 1 -11 -7 -16 -8
-5 -12 -12 -8 -15 3 -3 19 6 36 20 16 14 35 25 40 25 21 0 24 -22 6 -36 -18
-14 -18 -14 6 -12 14 2 25 9 25 17 0 8 6 16 14 19 8 3 11 0 7 -7 -7 -11 -1
-13 54 -13 42 0 42 0 28 15 -7 8 -21 12 -32 9 -13 -3 -17 -1 -12 6 4 7 14 12
22 12 8 0 14 5 14 10 0 6 5 10 11 10 8 0 8 -5 -1 -15 -8 -9 -9 -15 -2 -15 6 0
14 5 18 11 5 8 9 8 14 -1 6 -9 15 -6 36 14 22 20 36 25 55 21 20 -5 33 0 53
20 14 14 31 23 36 20 15 -9 12 -25 -5 -25 -8 0 -15 -4 -15 -10 0 -11 11 -13
34 -4 9 3 16 12 16 20 0 14 46 31 57 20 4 -3 -1 -6 -9 -6 -13 0 -33 -38 -25
-46 8 -8 57 11 57 22 0 7 8 18 18 23 14 8 18 5 19 -12 1 -12 -3 -27 -9 -34 -6
-7 -7 -13 -4 -13 4 0 -2 -13 -13 -29 -12 -16 -21 -32 -21 -36 0 -4 -8 -14 -17
-21 -12 -8 -13 -13 -5 -14 7 0 -6 -23 -28 -51 -22 -28 -40 -61 -40 -73 0 -12
-9 -29 -20 -39 -11 -9 -20 -24 -20 -32 0 -8 -6 -15 -12 -15 -28 0 -41 -17 -29
-36 6 -12 11 -14 11 -5 0 7 6 11 15 7 8 -3 15 0 15 7 0 7 7 23 16 35 12 18 19
20 29 12 8 -7 20 -8 26 -4 9 5 7 10 -7 15 -17 7 -17 8 -1 8 10 1 17 9 17 20 0
10 7 24 15 31 8 7 15 19 15 27 0 9 6 13 13 10 8 -3 20 -1 28 4 11 7 11 9 1 9
-10 0 -10 4 2 16 9 8 20 12 26 9 16 -10 100 36 100 55 0 9 12 21 28 27 l27 11
-25 1 c-22 1 -23 3 -7 12 9 6 15 14 12 20 -9 13 9 11 24 -4 11 -10 13 -9 8 4
-6 19 19 34 72 45 20 4 29 9 22 14 -7 4 -24 5 -39 2 -15 -3 -25 -2 -22 1 10
10 80 17 80 7 0 -6 16 -9 35 -7 36 2 49 16 18 18 -10 1 0 5 22 10 32 8 42 7
51 -6 6 -8 14 -12 17 -8 4 3 7 2 7 -4 0 -6 -16 -14 -35 -17 -19 -4 -35 -12
-35 -18 0 -6 7 -7 18 -3 9 4 32 9 50 12 21 4 31 10 28 18 -4 12 22 21 81 29
13 1 26 5 29 9 3 3 13 3 22 -1 14 -5 15 -3 4 10 -13 16 -64 24 -222 34 -46 3
-86 7 -88 9 -2 2 11 8 29 14 33 9 33 9 6 10 -41 1 -23 21 21 22 31 2 32 3 9 6
-36 6 -24 23 16 23 18 0 39 5 47 10 11 7 5 10 -25 10 -30 0 -36 3 -25 10 8 5
29 10 47 10 24 0 31 -4 27 -14 -4 -10 0 -13 13 -11 10 2 36 7 58 11 37 6 38 8
15 14 -21 7 -18 8 20 11 25 1 55 1 68 0 l23 -2 -21 21 c-11 11 -26 20 -34 20
-8 0 -18 5 -21 10 -3 6 -1 10 5 10 6 0 8 4 5 10 -3 5 -1 10 4 10 6 0 11 -4 11
-10 0 -16 17 -12 24 6 5 14 0 15 -36 11 -54 -7 -102 -18 -108 -26 -9 -12 -80
-29 -85 -21 -3 4 7 11 21 14 14 4 35 16 47 26 11 11 31 20 44 20 21 0 29 14
24 43 0 4 5 8 11 8 7 1 24 3 38 4 14 1 34 6 45 10 l20 8 -20 -16 c-15 -12 -16
-16 -5 -16 23 1 58 17 40 19 -10 1 -9 4 5 10 19 8 19 9 -2 9 -14 1 -23 7 -23
16 0 8 -4 15 -10 15 -5 0 -10 5 -10 10 0 6 7 10 15 10 8 0 15 7 15 15 0 17 -2
18 -54 5 -41 -9 -76 1 -76 22 0 7 4 7 13 0 12 -10 146 -12 145 -2 -2 22 4 29
20 23 14 -6 15 -4 4 9 -7 8 -9 24 -5 33 5 15 3 17 -11 12 -12 -5 -16 -3 -12 5
3 7 9 21 12 31 8 21 47 23 64 2 7 -8 16 -13 20 -10 5 3 11 -1 13 -7 4 -10 6
-10 6 0 1 8 8 6 23 -8 12 -11 36 -20 52 -21 27 0 28 -2 11 -9 -18 -8 -17 -9 8
-9 16 -1 35 -7 43 -15 10 -11 35 -14 96 -11 77 3 84 2 106 -22 22 -24 24 -25
37 -7 8 11 15 22 15 26 0 10 60 40 60 31 0 -5 27 21 60 56 33 36 63 62 66 58
4 -4 12 3 18 16 6 12 22 23 34 25 21 3 32 22 12 22 -6 0 -5 8 2 20 8 13 16 16
22 10 17 -17 36 -11 36 10 0 11 7 20 15 20 8 0 12 6 9 13 -3 8 5 19 18 25 l23
12 -24 -6 c-16 -4 -21 -3 -17 5 4 6 14 11 22 11 17 0 19 17 2 22 -7 3 2 5 21
5 36 0 66 27 56 51 -3 9 0 12 8 9 8 -3 14 1 14 8 0 7 -5 12 -11 12 -6 0 -22 1
-36 2 l-25 3 25 8 25 8 -27 1 c-14 1 -28 5 -30 10 -4 13 -105 91 -117 91 -5 0
-16 8 -23 18 -7 10 -74 63 -148 119 -74 56 -143 111 -152 123 -21 24 -24 52
-4 44 10 -4 12 2 9 20 -4 17 -1 26 7 26 7 0 10 6 7 14 -8 19 3 28 18 16 9 -8
16 2 25 37 7 27 12 54 11 61 -1 6 2 12 7 12 6 0 9 8 8 17 0 10 4 18 11 18 14
0 30 15 16 15 -11 0 -9 177 1 188 3 2 0 12 -6 22 -6 10 -8 26 -3 36 8 20 14
64 19 129 2 22 8 61 14 87 7 27 12 51 11 55 -4 25 3 43 16 43 17 0 20 16 5 25
-15 9 -12 25 4 25 17 0 26 22 26 65 0 19 5 46 12 60 9 21 9 28 -1 34 -10 7
-11 13 -1 30 7 14 9 38 5 62 -5 27 -3 39 5 39 9 0 11 20 7 73 l-5 73 64 43
c35 23 71 56 80 73 23 44 36 136 39 263 2 74 8 123 19 149 13 32 15 67 11 215
-6 190 3 271 51 443 31 115 25 205 -19 260 -32 40 -106 28 -157 -25 -14 -15
-30 -27 -35 -27 -13 0 -14 6 -15 227 -1 147 4 207 21 305 13 73 27 126 36 131
10 6 10 13 3 28 -8 13 -8 19 0 19 7 0 10 12 9 28 -2 15 0 33 4 39 5 7 4 21 -1
30 -5 10 -9 47 -7 83 1 36 -3 71 -8 78 -6 8 -6 12 0 12 6 0 8 11 5 25 -3 18 0
25 11 25 12 0 13 7 8 33 -4 17 -3 48 1 67 10 37 10 42 8 160 0 41 1 91 3 110
2 19 0 40 -4 46 -5 6 -4 26 2 45 6 19 10 62 10 97 -1 40 3 62 10 62 8 0 10 16
5 53 -4 28 -8 76 -10 105 -3 45 -2 51 11 41 7 -7 12 -18 9 -26 -3 -8 1 -16 8
-19 8 -3 17 -15 20 -27 3 -12 15 -33 27 -47 l20 -25 -6 32 c-3 17 -8 46 -10
63 -5 34 -53 150 -69 165 -6 6 -29 33 -50 60 -22 28 -62 73 -91 100 -56 55
-128 155 -130 183 -2 27 -29 82 -40 82 -14 0 -85 64 -85 76 0 13 -39 49 -62
57 -10 4 -18 11 -18 18 0 6 7 9 15 5 13 -5 14 -2 3 17 -7 12 -12 25 -13 29 0
3 -3 9 -7 13 -4 4 -4 13 -1 21 3 8 -1 14 -10 14 -9 0 -22 6 -29 13 -7 7 -22
17 -33 21 -19 8 -19 9 5 16 22 7 20 8 -15 10 l-40 2 45 13 c25 7 40 13 34 14
-7 1 -14 10 -17 21 -4 15 -14 20 -40 20 -20 0 -39 -4 -42 -10 -3 -5 -12 -10
-18 -9 -9 0 -8 2 1 6 6 2 9 9 6 14 -3 6 6 19 21 31 35 27 26 33 -21 13 -25
-10 -41 -12 -48 -5 -7 7 -3 10 11 10 12 0 25 5 29 11 4 7 21 9 43 5 20 -3 43
-1 51 4 12 8 8 10 -15 12 -16 1 -41 1 -54 0 -23 -1 -23 0 -5 13 11 8 25 15 32
15 6 0 12 4 12 9 0 5 7 17 16 25 14 15 14 16 -5 16 -14 0 -19 5 -15 15 4 10
-3 18 -20 25 -14 5 -26 14 -26 20 0 6 4 9 9 5 5 -3 12 -1 16 5 4 6 -14 10 -47
10 -38 0 -49 3 -38 10 13 9 13 10 0 10 -13 0 -13 1 0 10 12 8 10 10 -10 11
-14 1 -42 1 -62 0 -22 -2 -38 2 -38 8 0 7 -29 11 -81 11 -58 0 -78 3 -73 12 5
8 -10 10 -57 6 -35 -3 -58 -4 -51 -1 24 9 12 25 -14 19 -31 -8 -137 12 -129
24 3 5 -4 12 -15 15 -36 11 -16 30 32 30 26 0 44 3 41 8 -2 4 -36 7 -74 7 -71
0 -75 2 -81 45 -2 11 -16 31 -33 45 -33 27 -55 50 -70 74 -11 18 -170 35 -202
21 -10 -4 -24 -9 -32 -11 -8 -1 -17 -8 -21 -14 -4 -7 -18 -8 -35 -4 -15 4 -35
8 -44 9 -9 1 -24 5 -33 9 -9 4 -26 2 -38 -4 -16 -8 -25 -8 -35 0 -7 6 -26 13
-42 16 -15 3 -29 9 -31 15 -2 5 -9 9 -16 9 -7 0 -18 11 -24 25 -14 30 -32 33
-39 6 -3 -13 -11 -17 -24 -14 -10 3 -19 9 -19 14 0 8 -41 73 -61 97 -6 7 -14
11 -17 7 -4 -3 -2 -9 3 -13 26 -18 40 -102 19 -109 -10 -3 -56 39 -116 107
-17 19 -28 42 -28 60 0 29 -1 29 -18 13 -16 -16 -16 -19 -2 -25 13 -6 12 -7
-2 -7 -11 -1 -23 12 -32 32 -15 35 -66 88 -66 68z m-573 -237 c-3 -3 -12 -4
-19 -1 -8 3 -5 6 6 6 11 1 17 -2 13 -5z m-40 -60 c-3 -3 -12 -4 -19 -1 -8 3
-5 6 6 6 11 1 17 -2 13 -5z m-117 -69 c0 -8 -9 -15 -20 -15 -11 0 -20 -4 -20
-10 0 -15 -15 -12 -39 9 l-23 20 49 4 c26 2 49 4 51 5 1 1 2 -5 2 -13z m1727
-31 c-3 -3 -12 -4 -19 -1 -8 3 -5 6 6 6 11 1 17 -2 13 -5z m-1910 -50 c-3 -3
-12 -4 -19 -1 -8 3 -5 6 6 6 11 1 17 -2 13 -5z m-153 -93 c11 -4 15 -10 10
-14 -14 -8 -54 3 -54 14 0 11 17 11 44 0z m93 -17 c-3 -3 -12 -4 -19 -1 -8 3
-5 6 6 6 11 1 17 -2 13 -5z m2596 -81 c-7 -2 -21 -2 -30 0 -10 3 -4 5 12 5 17
0 24 -2 18 -5z m137 -73 c0 -19 -114 -28 -125 -10 -4 6 8 10 29 10 19 0 37 4
40 9 6 10 56 2 56 -9z m-83 -46 c-3 -3 -12 -4 -19 -1 -8 3 -5 6 6 6 11 1 17
-2 13 -5z m-3190 -210 c-3 -3 -12 -4 -19 -1 -8 3 -5 6 6 6 11 1 17 -2 13 -5z
m-287 -413 c0 -5 -11 -19 -25 -32 -13 -13 -25 -30 -25 -36 0 -7 -3 -13 -7 -14
-5 0 -24 -2 -43 -3 -19 -1 -48 -5 -65 -9 l-30 -7 30 14 c17 8 41 26 54 40 14
14 30 26 37 26 6 0 17 7 24 15 13 16 50 21 50 6z m-2 -98 c-10 -2 -26 -2 -35
0 -10 3 -2 5 17 5 19 0 27 -2 18 -5z m2 -63 c0 -5 -14 -10 -31 -10 -17 0 -28
4 -24 10 3 6 17 10 31 10 13 0 24 -4 24 -10z m40 -90 c11 -7 7 -10 -18 -10
-20 0 -31 4 -27 10 8 13 26 13 45 0z m1920 -274 c-15 -15 -21 -2 -13 35 l7 34
8 -30 c4 -17 3 -34 -2 -39z m2140 -157 c0 -4 -6 -9 -13 -12 -10 -4 -13 2 -9
20 3 18 7 21 13 11 5 -7 9 -16 9 -19z m-2615 -29 c-3 -5 -11 -10 -16 -10 -6 0
-7 5 -4 10 3 6 11 10 16 10 6 0 7 -4 4 -10z m1135 -10 c8 -5 11 -10 5 -10 -5
0 -17 5 -25 10 -8 5 -10 10 -5 10 6 0 17 -5 25 -10z m-1132 -55 c6 -14 16 -25
22 -25 5 0 10 -5 10 -10 0 -15 -49 22 -50 37 0 7 -7 10 -15 7 -8 -4 -15 -1
-15 5 0 21 37 11 48 -14z m-724 -160 c3 -8 3 -15 0 -15 -3 0 -12 7 -20 15 -13
13 -13 15 -1 15 8 0 17 -7 21 -15z m-19 -35 c3 -6 -4 -10 -17 -10 -18 0 -20 2
-8 10 19 12 18 12 25 0z m-145 -28 c22 -10 24 -56 4 -76 -24 -24 -12 -29 23
-10 28 17 30 16 56 -7 27 -23 27 -23 7 -31 -11 -4 -43 -3 -70 3 -38 8 -57 19
-80 47 -16 20 -30 42 -30 50 0 23 58 38 90 24z m150 -8 c0 -2 -9 -4 -20 -4
-11 0 -20 4 -20 9 0 5 9 7 20 4 11 -3 20 -7 20 -9z m2660 -334 c0 -5 -4 -10
-10 -10 -5 0 -10 5 -10 10 0 6 5 10 10 10 6 0 10 -4 10 -10z m-760 -630 c0 -5
-2 -10 -4 -10 -3 0 -8 5 -11 10 -3 6 -1 10 4 10 6 0 11 -4 11 -10z m-2530
-2120 c0 -5 -4 -10 -10 -10 -5 0 -10 5 -10 10 0 6 5 10 10 10 6 0 10 -4 10
-10z m1250 -94 c0 -2 -7 -7 -16 -10 -8 -3 -12 -2 -9 4 6 10 25 14 25 6z m-37
-63 c-11 -31 -14 -33 -27 -21 -11 11 -10 15 3 25 23 17 31 16 24 -4z m1505
-114 c11 0 12 -2 5 -6 -7 -2 -13 -13 -13 -24 0 -10 -4 -19 -9 -19 -6 0 -9 19
-9 43 1 23 3 34 6 25 2 -10 11 -18 20 -19z m-358 11 c0 -5 -4 -10 -10 -10 -5
0 -10 5 -10 10 0 6 5 10 10 10 6 0 10 -4 10 -10z m-30 -79 c0 -10 -50 -25 -58
-17 -3 3 6 10 19 15 31 13 39 13 39 2z m-1570 -267 c0 -8 -5 -12 -10 -9 -6 4
-8 11 -5 16 9 14 15 11 15 -7z m-30 -204 c0 -5 -5 -10 -11 -10 -5 0 -7 5 -4
10 3 6 8 10 11 10 2 0 4 -4 4 -10z m1890 -70 c0 -5 -4 -10 -9 -10 -6 0 -13 5
-16 10 -3 6 1 10 9 10 9 0 16 -4 16 -10z m-1655 -90 c-3 -5 -12 -10 -18 -10
-7 0 -6 4 3 10 19 12 23 12 15 0z m105 -5 c-7 -8 -17 -15 -22 -15 -6 0 -5 7 2
15 7 8 17 15 22 15 6 0 5 -7 -2 -15z m848 -58 c5 -24 -15 -21 -21 4 -3 13 -1
19 6 16 7 -2 13 -11 15 -20z m1732 -2 c0 -8 -4 -15 -10 -15 -5 0 -10 7 -10 15
0 8 5 15 10 15 6 0 10 -7 10 -15z m-2590 -5 c-20 -13 -33 -13 -25 0 3 6 14 10
23 10 15 0 15 -2 2 -10z m692 -42 c-7 -7 -12 -8 -12 -2 0 6 3 14 7 17 3 4 9 5
12 2 2 -3 -1 -11 -7 -17z m-592 -3 c-14 -8 -29 -14 -35 -14 -5 0 1 6 15 14 14
8 30 14 35 14 6 0 -1 -6 -15 -14z m555 -14 c-3 -6 -11 -11 -17 -11 -6 0 -6 6
2 15 14 17 26 13 15 -4z m-95 -46 c-7 -9 -15 -13 -19 -10 -3 3 1 10 9 15 21
14 24 12 10 -5z m-1371 -174 c9 -6 5 -8 -13 -8 -15 0 -29 3 -32 8 -7 11 27 11
45 0z m1397 -129 c-22 -23 -29 -10 -9 18 11 16 18 19 21 11 2 -7 -3 -20 -12
-29z m-96 14 c0 -8 -4 -18 -10 -21 -5 -3 -10 3 -10 14 0 12 5 21 10 21 6 0 10
-6 10 -14z m-1367 -59 c-2 -4 -12 -6 -21 -5 -9 2 -17 -4 -18 -12 -2 -28 -4
-31 -15 -24 -8 4 -7 9 2 15 12 7 12 9 0 9 -10 0 -11 3 -2 14 12 14 63 17 54 3z
m3072 -67 c8 -13 -15 -13 -35 0 -12 8 -11 10 7 10 12 0 25 -4 28 -10z m-3117
-45 c-18 -25 -35 -45 -40 -45 -4 0 -8 -6 -8 -14 0 -17 -28 -41 -38 -32 -4 4 2
14 12 22 11 8 16 14 11 14 -5 0 0 8 11 19 10 10 31 32 47 50 39 45 42 38 5
-14z m3070 8 c-2 -9 -8 -18 -15 -20 -7 -3 -9 3 -6 16 6 25 26 28 21 4z m-3148
3 c0 -11 -19 -15 -25 -6 -3 5 1 10 9 10 9 0 16 -2 16 -4z m3239 -12 c2 -2 -10
-4 -27 -4 -18 0 -32 5 -32 10 0 9 47 4 59 -6z m-2669 -52 c0 -15 -2 -15 -10
-2 -13 20 -13 33 0 25 6 -3 10 -14 10 -23z m2530 18 c0 -5 -7 -10 -15 -10 -8
0 -15 5 -15 10 0 6 7 10 15 10 8 0 15 -4 15 -10z m-2485 -48 c16 -11 18 -63 3
-60 -15 3 -26 25 -27 51 -1 18 7 21 24 9z m2535 -12 c0 -5 -4 -10 -10 -10 -5
0 -10 5 -10 10 0 6 5 10 10 10 6 0 10 -4 10 -10z m-2561 -70 c0 -10 -3 -8 -9
5 -12 27 -12 43 0 25 5 -8 9 -22 9 -30z m-585 -5 c-5 -11 -2 -13 10 -9 23 9
20 -3 -5 -17 -13 -7 -19 -7 -15 -1 3 6 2 13 -4 17 -15 9 -12 25 5 25 9 0 12
-6 9 -15z m3047 -15 c11 0 19 -7 19 -17 0 -14 -2 -15 -9 -5 -4 8 -14 13 -22
12 -26 -4 -39 0 -39 11 0 6 7 8 16 5 9 -3 24 -6 35 -6z m-3016 -149 c-6 -5
-23 -12 -40 -16 l-30 -6 25 15 c28 17 60 22 45 7z m2785 -233 c0 -4 -11 -8
-24 -8 -14 0 -27 4 -30 8 -3 5 8 9 24 9 17 0 30 -4 30 -9z m-1530 -38 c0 -5
-9 -10 -21 -10 -11 0 -17 5 -14 10 3 6 13 10 21 10 8 0 14 -4 14 -10z m220
-40 c0 -5 -5 -10 -11 -10 -5 0 -7 5 -4 10 3 6 8 10 11 10 2 0 4 -4 4 -10z
m-1340 -10 c0 -5 -8 -10 -17 -10 -15 0 -16 2 -3 10 19 12 20 12 20 0z m-70
-24 c0 -2 -7 -7 -16 -10 -8 -3 -12 -2 -9 4 6 10 25 14 25 6z m1766 -11 c-11
-8 -27 -15 -35 -15 -10 0 -7 6 9 14 33 19 50 19 26 1z m-349 -1 c-3 -3 -12 -4
-19 -1 -8 3 -5 6 6 6 11 1 17 -2 13 -5z m1068 -4 c3 -5 -1 -10 -10 -10 -9 0
-13 5 -10 10 3 6 8 10 10 10 2 0 7 -4 10 -10z m-2420 -30 c-3 -5 -11 -10 -16
-10 -6 0 -7 5 -4 10 3 6 11 10 16 10 6 0 7 -4 4 -10z m1470 0 c3 -5 -1 -10 -9
-10 -8 0 -18 5 -21 10 -3 6 1 10 9 10 8 0 18 -4 21 -10z m-1425 -15 c-7 -8
-22 -15 -34 -15 -17 1 -16 3 9 15 39 18 40 18 25 0z m2370 -5 c0 -5 -9 -10
-20 -10 -11 0 -20 5 -20 10 0 6 9 10 20 10 11 0 20 -4 20 -10z m-59 -31 c-28
-26 -35 -24 -15 6 9 14 21 22 26 19 5 -3 0 -15 -11 -25z m-2306 9 c-11 -7 -29
-13 -40 -15 -17 -2 -16 0 5 12 14 8 32 14 40 14 10 0 9 -3 -5 -11z m2344 -19
c-22 -13 -31 -11 -17 5 7 8 17 12 22 9 4 -3 2 -9 -5 -14z m-2159 -89 c0 -5 -2
-10 -4 -10 -3 0 -8 5 -11 10 -3 6 -1 10 4 10 6 0 11 -4 11 -10z m-26 -25 c-4
-9 0 -15 9 -15 11 0 13 -6 9 -22 -4 -18 -2 -20 16 -16 12 4 22 2 22 -3 0 -5 8
-9 17 -9 13 0 14 -3 5 -12 -9 -9 -7 -15 6 -25 16 -13 15 -14 -5 -8 -12 3 -25
1 -29 -6 -5 -8 -2 -10 7 -7 8 3 24 -1 34 -9 17 -12 18 -15 5 -23 -12 -8 -12
-10 3 -16 12 -4 16 -13 12 -25 -4 -11 -2 -19 5 -19 7 0 9 -8 5 -19 -3 -12 0
-21 10 -25 15 -5 22 -28 8 -23 -5 1 -8 -2 -8 -8 0 -5 4 -9 8 -7 5 1 4 -5 -1
-15 -8 -13 -6 -20 6 -29 16 -12 15 -14 -3 -28 -18 -14 -18 -15 -2 -16 20 0 23
-16 5 -23 -9 -3 -5 -12 12 -26 14 -13 20 -20 13 -17 -16 8 -29 -14 -13 -24 8
-5 7 -9 -5 -14 -10 -3 -15 -12 -11 -21 4 -10 -1 -15 -14 -15 -11 0 -20 5 -20
10 0 6 -7 10 -15 10 -8 0 -15 5 -15 10 0 13 13 13 26 0 8 -8 15 -6 25 6 8 11
9 15 2 11 -7 -4 -21 -2 -32 5 -18 11 -23 10 -35 -7 -22 -29 -19 -8 3 24 19 26
19 26 -5 38 -18 8 -26 8 -35 -3 -6 -8 -15 -14 -20 -14 -4 0 3 12 17 27 l25 27
-28 11 c-20 9 -32 9 -43 2 -12 -9 -13 -8 -3 2 12 14 1 47 -21 63 -6 4 -5 12 2
21 10 12 9 16 -4 21 -13 5 -14 9 -4 21 7 9 8 15 2 15 -5 0 -22 -16 -36 -35
-19 -25 -23 -35 -13 -35 8 0 20 -7 27 -15 11 -13 10 -14 -3 -9 -10 3 -20 -3
-28 -17 -9 -17 -9 -24 0 -27 6 -2 11 -8 11 -14 0 -5 -10 -6 -22 -2 -20 6 -21
5 -9 -10 11 -13 11 -19 0 -33 -30 -38 -63 -56 -53 -28 4 8 1 15 -5 15 -6 0
-11 -6 -11 -12 -1 -7 -9 1 -18 18 -10 19 -23 29 -31 26 -10 -3 -12 0 -8 12 4
9 2 16 -2 16 -13 0 -24 -34 -12 -38 5 -2 7 -10 4 -18 -4 -12 -8 -11 -20 6 -14
20 -10 60 8 60 5 0 9 5 9 10 0 6 -6 10 -14 10 -12 0 -12 4 0 29 8 17 28 44 45
62 16 17 28 39 27 48 -2 8 4 16 12 16 8 1 14 7 12 14 -1 7 2 9 8 6 7 -4 14 2
17 14 3 12 10 21 15 21 6 0 8 6 5 14 -4 10 0 12 15 8 18 -4 20 -2 15 17 -6 23
35 81 56 81 7 0 4 -7 -5 -14 -10 -7 -18 -18 -18 -24 0 -6 -6 -12 -12 -15 -7
-2 -10 -7 -7 -11 4 -4 26 16 50 43 48 56 51 58 43 36z m46 -5 c0 -5 -2 -10 -4
-10 -3 0 -8 5 -11 10 -3 6 -1 10 4 10 6 0 11 -4 11 -10z m-110 -270 c0 -5 -5
-10 -11 -10 -5 0 -7 5 -4 10 3 6 8 10 11 10 2 0 4 -4 4 -10z m80 -112 c0 -4
-4 -8 -9 -8 -6 0 -12 4 -15 8 -3 5 1 9 9 9 8 0 15 -4 15 -9z m40 -42 c0 -3 -4
-8 -10 -11 -5 -3 -10 -1 -10 4 0 6 5 11 10 11 6 0 10 -2 10 -4z m-156 -15 c4
-5 0 -12 -6 -15 -10 -5 -10 -7 -1 -12 17 -8 -14 -54 -36 -54 -14 1 -13 3 3 15
11 8 17 18 13 21 -4 4 -13 1 -22 -6 -27 -23 -25 -5 3 28 28 34 37 38 46 23z
m-141 -82 c9 -35 -40 -68 -58 -39 -3 6 4 10 16 10 18 0 20 3 11 12 -18 18 -14
38 7 38 11 0 21 -9 24 -21z m132 -19 c-10 -11 -20 -18 -23 -15 -7 6 18 35 31
35 5 0 2 -9 -8 -20z m35 -104 c0 -2 -7 -9 -15 -16 -13 -11 -14 -10 -9 4 5 14
24 23 24 12z m-194 -201 c17 -13 16 -14 -16 -3 -43 14 -49 18 -24 18 11 0 29
-7 40 -15z m244 -15 c0 -5 -2 -10 -4 -10 -3 0 -8 5 -11 10 -3 6 -1 10 4 10 6
0 11 -4 11 -10z m-55 -50 c-3 -5 -10 -10 -16 -10 -5 0 -9 5 -9 10 0 6 7 10 16
10 8 0 12 -4 9 -10z m45 -130 c-8 -5 -17 -7 -19 -4 -3 3 1 9 9 14 8 5 17 7 19
4 3 -3 -1 -9 -9 -14z m-35 -20 c3 -5 1 -10 -4 -10 -6 0 -11 5 -11 10 0 6 2 10
4 10 3 0 8 -4 11 -10z m50 -10 c3 -6 -1 -7 -9 -4 -18 7 -21 14 -7 14 6 0 13
-4 16 -10z m255 -65 c-7 -8 -17 -15 -23 -15 -5 0 -2 9 8 20 21 23 35 19 15 -5z
m45 6 c-3 -6 -11 -11 -17 -11 -6 0 -6 6 2 15 14 17 26 13 15 -4z m-30 -40 c-3
-6 -11 -11 -17 -11 -6 0 -6 6 2 15 14 17 26 13 15 -4z m68 -16 c-10 -13 -24
-25 -31 -25 -7 0 -3 10 10 24 30 32 44 33 21 1z m21 -30 c-4 -9 -15 -20 -26
-26 -20 -11 -20 -11 -2 15 21 28 37 34 28 11z m-121 -100 c-3 -9 -8 -14 -10
-11 -3 3 -2 9 2 15 9 16 15 13 8 -4z"/>
<path d="M2828 7693 c7 -3 16 -2 19 1 4 3 -2 6 -13 5 -11 0 -14 -3 -6 -6z"/>
<path d="M2724 2162 c-4 -12 -11 -22 -17 -22 -6 0 -2 -7 9 -16 19 -15 18 -15
-3 -11 -28 6 -31 -9 -4 -16 12 -3 27 3 35 12 22 24 20 33 -6 26 -22 -6 -22 -6
-4 10 16 12 17 18 8 27 -10 10 -14 8 -18 -10z"/>
<path d="M2775 2120 c-3 -5 1 -10 9 -10 9 0 16 5 16 10 0 6 -4 10 -9 10 -6 0
-13 -4 -16 -10z"/>
<path d="M2656 2034 c-4 -9 -4 -19 -2 -21 8 -8 26 8 26 23 0 19 -16 18 -24 -2z"/>
<path d="M2590 1999 c0 -5 5 -7 10 -4 6 3 10 8 10 11 0 2 -4 4 -10 4 -5 0 -10
-5 -10 -11z"/>
<path d="M2665 1990 c-10 -11 -15 -20 -11 -20 11 0 39 30 34 36 -3 2 -13 -5
-23 -16z"/>
<path d="M2815 2000 c-8 -13 5 -13 25 0 13 8 13 10 -2 10 -9 0 -20 -4 -23 -10z"/>
<path d="M2630 1944 c0 -8 5 -12 10 -9 6 4 8 11 5 16 -9 14 -15 11 -15 -7z"/>
<path d="M2520 1926 c0 -8 5 -16 12 -18 7 -3 8 -10 4 -17 -7 -11 -10 -11 -17
0 -4 7 -10 11 -14 8 -3 -3 4 -14 15 -24 18 -16 20 -16 20 -2 0 10 4 17 9 17 5
0 4 11 -2 25 -13 27 -27 33 -27 11z"/>
<path d="M2835 1920 c-3 -5 -1 -10 4 -10 6 0 11 5 11 10 0 6 -2 10 -4 10 -3 0
-8 -4 -11 -10z"/>
<path d="M2555 1860 c3 -5 8 -10 11 -10 2 0 4 5 4 10 0 6 -5 10 -11 10 -5 0
-7 -4 -4 -10z"/>
<path d="M2805 1800 c-3 -5 -1 -10 4 -10 6 0 11 5 11 10 0 6 -2 10 -4 10 -3 0
-8 -4 -11 -10z"/>
<path d="M2850 1749 c0 -5 5 -7 10 -4 6 3 10 8 10 11 0 2 -4 4 -10 4 -5 0 -10
-5 -10 -11z"/>
<path d="M4268 10120 c13 -10 23 -21 22 -24 -1 -17 1 -19 12 -8 8 8 5 16 -13
31 -13 11 -28 20 -34 20 -5 0 0 -8 13 -19z"/>
<path d="M3911 10016 c2 -2 20 -6 39 -10 25 -4 31 -3 20 4 -14 9 -69 15 -59 6z"/>
<path d="M3522 9993 c2 -9 8 -18 15 -20 7 -3 9 3 6 16 -6 25 -26 28 -21 4z"/>
<path d="M3015 9690 c3 -5 8 -10 11 -10 2 0 4 5 4 10 0 6 -5 10 -11 10 -5 0
-7 -4 -4 -10z"/>
<path d="M1917 8539 c-5 -20 -5 -20 14 -3 23 20 23 24 5 24 -7 0 -16 -9 -19
-21z"/>
<path d="M2020 8422 c0 -10 -5 -23 -12 -30 -9 -9 -8 -12 5 -12 9 0 17 6 17 14
0 8 3 21 6 30 3 9 1 16 -5 16 -6 0 -11 -8 -11 -18z"/>
<path d="M1949 8167 c-7 -15 -8 -34 -4 -44 6 -14 10 -9 15 22 9 48 5 57 -11
22z"/>
<path d="M4733 8013 c9 -2 23 -2 30 0 6 3 -1 5 -18 5 -16 0 -22 -2 -12 -5z"/>
<path d="M3865 7940 c-3 -5 -2 -10 4 -10 5 0 13 5 16 10 3 6 2 10 -4 10 -5 0
-13 -4 -16 -10z"/>
<path d="M3528 7903 c7 -3 16 -2 19 1 4 3 -2 6 -13 5 -11 0 -14 -3 -6 -6z"/>
<path d="M4408 7873 c7 -3 16 -2 19 1 4 3 -2 6 -13 5 -11 0 -14 -3 -6 -6z"/>
<path d="M4515 7830 c-4 -6 6 -7 27 -3 44 8 48 13 10 13 -17 0 -34 -4 -37 -10z"/>
<path d="M3245 7710 c-3 -5 1 -10 9 -10 9 0 16 5 16 10 0 6 -4 10 -9 10 -6 0
-13 -4 -16 -10z"/>
<path d="M3163 7663 c-15 -5 -17 -23 -4 -23 5 0 11 7 15 15 3 8 4 15 3 14 -1
0 -8 -3 -14 -6z"/>
<path d="M3160 7619 c0 -5 5 -7 10 -4 6 3 10 8 10 11 0 2 -4 4 -10 4 -5 0 -10
-5 -10 -11z"/>
<path d="M4464 7011 c-4 -25 -10 -50 -14 -56 -7 -10 -8 -14 -13 -70 -3 -46 17
-42 26 6 9 44 29 73 42 61 5 -4 5 -2 1 5 -3 6 -2 14 4 18 20 13 11 60 -15 71
-23 11 -24 10 -31 -35z"/>
<path d="M4571 7043 c0 -6 -4 -20 -7 -30 -5 -14 -4 -15 5 -7 7 7 11 20 8 30
-3 11 -5 14 -6 7z"/>
<path d="M4626 7041 c-4 -7 -5 -15 -2 -18 9 -9 19 4 14 18 -4 11 -6 11 -12 0z"/>
<path d="M3347 7007 c4 -6 -6 -8 -27 -4 -27 6 -31 5 -21 -7 7 -8 30 -14 56
-14 24 0 52 -5 63 -11 11 -6 23 -7 27 -3 5 4 5 2 1 -5 -11 -20 15 -26 32 -8
10 10 11 15 5 11 -7 -4 -13 -2 -13 4 0 6 -6 17 -13 24 -15 16 -119 28 -110 13z"/>
<path d="M3020 6970 c-9 -6 -10 -10 -3 -10 6 0 15 5 18 10 8 12 4 12 -15 0z"/>
<path d="M3205 6970 l-30 -8 32 -1 c17 0 35 4 38 9 7 11 3 11 -40 0z"/>
<path d="M2770 6961 c0 -6 -7 -11 -16 -11 -8 0 -13 -4 -10 -9 7 -11 -22 -23
-36 -14 -6 3 -8 1 -5 -4 9 -14 -35 -43 -68 -45 -14 -1 -25 -9 -25 -17 0 -8 -3
-12 -6 -8 -8 8 -73 -55 -67 -65 2 -5 -9 -24 -24 -45 -18 -23 -24 -38 -16 -40
8 -3 5 -11 -8 -24 -30 -30 -17 -34 30 -10 22 12 55 21 73 22 18 0 27 3 21 6
-29 11 -11 25 25 20 20 -3 29 -3 19 -1 -24 8 -11 24 20 24 18 0 24 4 19 15 -7
19 23 35 71 36 23 1 29 3 16 6 -37 7 -27 26 10 20 l32 -6 -30 15 -30 15 48 -5
c26 -3 61 -13 78 -22 17 -9 52 -22 78 -29 51 -14 104 -33 138 -48 24 -11 73
-2 73 14 0 6 -15 8 -37 5 -21 -3 -30 -3 -20 0 9 3 15 10 11 15 -3 6 18 7 53 4
32 -3 52 -2 46 1 -7 3 -13 12 -13 20 0 8 -9 14 -21 14 -11 0 -18 4 -15 9 8 13
49 1 63 -18 9 -13 14 -14 24 -3 7 6 27 12 43 12 l31 0 -25 21 -25 20 25 -6
c14 -4 36 -14 48 -22 13 -8 26 -12 29 -9 3 2 -14 14 -37 26 -23 12 -39 24 -36
27 3 3 24 -4 47 -16 22 -12 39 -16 37 -10 -2 6 -22 21 -43 33 -22 11 -42 22
-45 24 -2 2 2 7 10 12 11 7 8 10 -13 15 -15 4 -27 11 -27 16 0 5 -39 9 -87 9
-61 0 -83 3 -73 10 13 8 13 10 -2 10 -20 0 -70 -18 -78 -28 -7 -11 -90 -31
-84 -21 3 5 -8 9 -25 9 -16 0 -31 5 -33 12 -3 8 -17 7 -51 -5 -26 -9 -47 -12
-47 -7 0 4 14 13 32 19 17 6 29 14 25 17 -3 3 -16 2 -29 -2 -33 -11 -41 -11
-55 -1 -9 6 -13 6 -13 -2z m23 -38 c-7 -2 -19 -2 -25 0 -7 3 -2 5 12 5 14 0
19 -2 13 -5z m240 -20 c-7 -2 -19 -2 -25 0 -7 3 -2 5 12 5 14 0 19 -2 13 -5z
m-337 -49 c-23 -16 -40 -19 -31 -4 3 6 13 10 21 10 8 0 14 5 14 12 0 6 3 8 7
4 5 -4 -1 -14 -11 -22z m-49 0 c-3 -3 -12 -4 -19 -1 -8 3 -5 6 6 6 11 1 17 -2
13 -5z m-50 -40 c-3 -3 -12 -4 -19 -1 -8 3 -5 6 6 6 11 1 17 -2 13 -5z m466
-21 c-7 -2 -21 -2 -30 0 -10 3 -4 5 12 5 17 0 24 -2 18 -5z"/>
<path d="M3290 6966 c0 -9 40 -13 46 -5 3 5 -6 9 -20 9 -14 0 -26 -2 -26 -4z"/>
<path d="M4550 6939 c0 -5 5 -7 10 -4 6 3 10 8 10 11 0 2 -4 4 -10 4 -5 0 -10
-5 -10 -11z"/>
<path d="M3488 6933 c6 -2 18 -2 25 0 6 3 1 5 -13 5 -14 0 -19 -2 -12 -5z"/>
<path d="M3466 6917 c3 -10 9 -15 12 -12 3 3 0 11 -7 18 -10 9 -11 8 -5 -6z"/>
<path d="M3387 6914 c-8 -8 1 -24 14 -24 5 0 9 7 9 15 0 15 -12 20 -23 9z"/>
<path d="M4560 6899 c0 -5 5 -7 10 -4 6 3 10 8 10 11 0 2 -4 4 -10 4 -5 0 -10
-5 -10 -11z"/>
<path d="M4660 6870 c0 -5 5 -10 10 -10 6 0 10 5 10 10 0 6 -4 10 -10 10 -5 0
-10 -4 -10 -10z"/>
<path d="M3285 6780 c3 -5 11 -10 16 -10 6 0 7 5 4 10 -3 6 -11 10 -16 10 -6
0 -7 -4 -4 -10z"/>
<path d="M2140 6695 c0 -46 14 -105 26 -105 27 0 40 56 21 91 -13 25 -47 35
-47 14z m50 -45 c0 -5 -4 -10 -9 -10 -6 0 -13 5 -16 10 -3 6 1 10 9 10 9 0 16
-4 16 -10z"/>
<path d="M5548 6673 c6 -2 18 -2 25 0 6 3 1 5 -13 5 -14 0 -19 -2 -12 -5z"/>
<path d="M2435 6630 c-7 -11 9 -11 45 0 24 8 24 8 -7 9 -17 1 -35 -3 -38 -9z"/>
<path d="M2158 6540 c6 -44 22 -47 22 -6 0 23 -5 36 -13 36 -9 0 -12 -10 -9
-30z"/>
<path d="M5177 6510 c29 -4 59 -15 68 -24 9 -9 23 -16 31 -16 8 0 14 -4 14 -8
0 -14 -35 -42 -53 -42 -9 0 -19 -5 -22 -10 -4 -6 -12 -10 -18 -9 -31 4 -40 -1
-28 -15 6 -7 9 -21 5 -30 -3 -9 -1 -23 6 -31 12 -15 4 -21 -23 -16 -32 5 -196
7 -193 2 2 -3 -30 -7 -72 -8 -42 -1 -106 -11 -143 -23 -37 -11 -74 -17 -82
-14 -9 3 -32 -2 -52 -12 -43 -20 -60 -7 -44 33 5 14 5 33 -1 49 -6 14 -7 30
-4 36 5 7 -6 8 -32 3 -21 -4 -46 -9 -54 -9 -9 -1 -20 -5 -26 -8 -5 -4 -49 -10
-96 -14 -49 -4 -89 -12 -91 -18 -5 -16 -1 -208 5 -226 3 -8 10 -27 16 -42 6
-15 9 -35 6 -43 -4 -8 -1 -21 5 -29 6 -7 8 -16 5 -19 -3 -3 3 -19 14 -34 26
-36 19 -83 -12 -84 -19 -1 -18 -2 4 -8 17 -5 21 -9 12 -15 -6 -4 -12 -16 -12
-27 0 -10 -4 -19 -10 -19 -5 0 -10 7 -10 15 0 9 -6 12 -15 9 -8 -4 -15 -11
-15 -18 0 -6 -7 -23 -14 -38 -8 -15 -16 -36 -17 -45 -3 -23 11 -74 25 -92 6
-8 7 -12 1 -9 -5 3 -19 -3 -29 -13 -11 -11 -14 -19 -8 -19 20 0 63 -48 66 -74
1 -14 5 -29 9 -32 3 -3 3 -12 0 -20 -3 -8 3 -17 12 -20 10 -4 13 -9 6 -13 -6
-4 -7 -18 -4 -31 6 -22 7 -23 14 -4 6 14 8 9 8 -19 1 -30 6 -40 26 -49 14 -6
25 -19 25 -29 0 -17 50 -49 76 -49 7 0 25 -15 39 -34 23 -31 29 -33 68 -29 31
4 47 0 62 -14 11 -10 32 -19 47 -21 23 -3 28 2 42 45 39 117 33 238 -14 279
-22 20 -29 37 -34 82 -4 31 -9 75 -12 96 -3 27 0 44 12 57 13 14 15 29 10 64
-5 29 -4 45 3 45 6 0 9 10 7 22 -4 28 35 53 45 29 5 -12 9 -10 19 9 9 17 10
25 1 28 -6 2 -11 12 -11 23 0 12 5 16 14 13 8 -3 17 0 21 6 3 6 1 9 -5 8 -7
-2 -17 6 -23 17 -7 11 -15 22 -18 25 -3 3 -11 15 -18 28 -6 12 -17 22 -23 22
-6 0 -22 12 -36 27 -21 22 -23 30 -13 46 10 15 10 18 -1 11 -11 -6 -11 -5 0 8
10 13 20 14 45 7 18 -6 47 -10 64 -11 18 0 31 -4 28 -8 -3 -4 10 -7 28 -6 17
1 49 -1 69 -5 21 -3 35 -3 33 1 -2 4 10 7 28 8 31 1 31 0 12 -15 l-20 -15 20
5 c11 2 29 8 39 13 14 5 17 4 12 -4 -5 -8 1 -12 18 -12 14 0 26 -3 26 -7 0 -5
45 -9 100 -9 54 -1 99 1 98 5 -3 25 4 28 48 20 59 -11 61 -13 56 -48 -4 -28
-3 -29 34 -26 20 2 41 10 45 17 4 7 11 9 15 6 11 -12 54 48 56 78 1 16 6 34
10 41 5 6 9 30 10 52 0 23 4 44 9 47 7 4 -25 80 -40 94 -4 3 -18 23 -34 46
-15 22 -44 50 -65 62 -49 27 -177 62 -222 61 -29 -1 -26 -3 17 -9z m-344 -292
c2 -29 3 -56 1 -60 -6 -9 -72 11 -102 30 l-24 16 23 20 c16 13 18 17 7 13 -10
-4 -18 -3 -18 1 0 19 27 32 66 32 l41 0 6 -52z m127 22 c0 -13 -28 -25 -38
-16 -3 4 0 11 8 16 20 13 30 12 30 0z m34 -29 c9 -14 -21 -33 -45 -29 -28 4
-36 25 -12 31 31 8 52 7 57 -2z m216 -30 c0 -6 -4 -13 -10 -16 -5 -3 -10 1
-10 9 0 9 5 16 10 16 6 0 10 -4 10 -9z m-160 -81 c0 -5 -5 -10 -11 -10 -5 0
-7 5 -4 10 3 6 8 10 11 10 2 0 4 -4 4 -10z m-585 -360 c3 -5 1 -10 -4 -10 -6
0 -11 5 -11 10 0 6 2 10 4 10 3 0 8 -4 11 -10z"/>
<path d="M2010 6459 c-12 -8 -10 -9 8 -4 17 5 22 2 22 -13 0 -11 15 -29 38
-44 59 -38 99 -16 50 29 -46 41 -88 53 -118 32z"/>
<path d="M3299 6225 c-3 -2 -43 -7 -90 -10 -46 -3 -109 -12 -139 -21 -30 -9
-82 -21 -116 -28 -73 -16 -82 -21 -95 -53 -12 -31 -5 -40 16 -23 10 8 15 9 15
1 0 -6 -4 -11 -8 -11 -4 0 -8 -9 -9 -21 -2 -19 -1 -20 22 -5 30 20 36 20 29 2
-3 -9 3 -17 15 -21 25 -8 41 1 41 22 0 11 6 14 23 10 20 -5 20 -5 5 7 -14 10
-16 19 -9 44 7 22 6 32 -2 36 -7 2 -5 5 4 5 9 1 19 -6 23 -14 3 -9 19 -15 41
-15 19 0 35 -4 35 -9 0 -5 16 -26 35 -47 19 -22 33 -45 30 -52 -6 -15 56 -13
67 3 5 7 13 7 25 -1 10 -6 29 -9 43 -7 14 2 51 5 83 6 35 2 62 8 67 16 4 8 15
11 24 8 8 -3 18 -3 20 2 3 4 44 16 91 26 81 17 115 33 115 56 0 6 -4 8 -9 5
-5 -3 -12 1 -15 10 -4 10 -2 13 7 9 6 -4 3 0 -7 9 -17 14 -20 14 -31 -1 -7 -9
-17 -13 -23 -9 -6 3 -19 -2 -29 -12 -29 -30 -65 -51 -119 -67 -27 -8 -50 -15
-52 -15 -1 0 5 16 13 36 8 20 15 51 15 70 0 18 6 36 13 41 7 5 -7 10 -38 15
-62 8 -120 10 -126 3z m-31 -82 c-4 -21 -45 -30 -62 -13 -14 14 8 30 42 30 17
0 23 -5 20 -17z m-288 -17 c0 -3 -4 -8 -10 -11 -5 -3 -10 -1 -10 4 0 6 5 11
10 11 6 0 10 -2 10 -4z m220 -6 c0 -5 -9 -10 -20 -10 -11 0 -20 5 -20 10 0 6
9 10 20 10 11 0 20 -4 20 -10z"/>
<path d="M5860 5960 c0 -5 5 -10 11 -10 5 0 7 5 4 10 -3 6 -8 10 -11 10 -2 0
-4 -4 -4 -10z"/>
<path d="M5825 5930 c-3 -5 -1 -10 4 -10 6 0 11 5 11 10 0 6 -2 10 -4 10 -3 0
-8 -4 -11 -10z"/>
<path d="M2191 5774 c0 -11 3 -14 6 -6 3 7 2 16 -1 19 -3 4 -6 -2 -5 -13z"/>
<path d="M3728 4993 c6 -2 18 -2 25 0 6 3 1 5 -13 5 -14 0 -19 -2 -12 -5z"/>
<path d="M3810 4985 c46 -18 64 -17 25 0 -16 8 -37 14 -45 14 -8 0 1 -7 20
-14z"/>
<path d="M2126 4880 c-9 -22 -16 -50 -15 -63 0 -12 9 5 20 38 21 69 19 84 -5
25z"/>
<path d="M5725 4820 c3 -5 14 -10 23 -10 15 0 15 2 2 10 -20 13 -33 13 -25 0z"/>
<path d="M3540 4703 c-14 -7 -18 -13 -10 -13 17 0 47 17 40 23 -3 2 -16 -2
-30 -10z"/>
<path d="M5550 4550 c0 -5 4 -10 9 -10 6 0 13 5 16 10 3 6 -1 10 -9 10 -9 0
-16 -4 -16 -10z"/>
<path d="M3177 4522 c-15 -16 -27 -32 -27 -37 0 -5 14 6 31 23 18 18 30 35 27
37 -2 3 -17 -8 -31 -23z"/>
<path d="M4615 4400 c-3 -5 -2 -10 4 -10 5 0 13 5 16 10 3 6 2 10 -4 10 -5 0
-13 -4 -16 -10z"/>
<path d="M2775 4290 c-3 -5 -1 -10 4 -10 6 0 11 5 11 10 0 6 -2 10 -4 10 -3 0
-8 -4 -11 -10z"/>
<path d="M3810 4230 c0 -5 5 -10 11 -10 5 0 7 5 4 10 -3 6 -8 10 -11 10 -2 0
-4 -4 -4 -10z"/>
<path d="M2916 4114 c-9 -24 -2 -26 12 -4 7 11 8 20 3 20 -5 0 -12 -7 -15 -16z"/>
<path d="M2955 4090 c-3 -6 1 -7 9 -4 18 7 21 14 7 14 -6 0 -13 -4 -16 -10z"/>
<path d="M4868 3983 c7 -3 16 -2 19 1 4 3 -2 6 -13 5 -11 0 -14 -3 -6 -6z"/>
<path d="M4315 3940 c-4 -6 -24 -8 -47 -6 -45 6 -83 -19 -72 -47 8 -22 -36
-10 -57 17 -16 19 -17 19 -34 -18 -16 -34 -19 -36 -28 -19 -15 28 -17 29 -27
13 -16 -25 -12 -60 6 -53 12 4 14 0 9 -19 -5 -18 -2 -27 10 -32 9 -3 13 -2 10
4 -3 6 6 15 20 20 36 14 44 12 22 -4 -16 -12 -16 -14 -1 -20 11 -4 27 4 46 25
20 21 33 27 38 20 5 -9 14 -9 35 -1 16 6 34 9 42 6 20 -8 16 32 -7 56 -23 25
-18 38 10 31 11 -3 20 0 20 6 0 6 10 16 23 21 16 6 17 9 5 9 -9 1 -20 -4 -23
-9z"/>
<path d="M4327 3912 c-14 -15 -15 -25 -8 -45 11 -27 27 -42 34 -30 6 12 -19
54 -28 45 -4 -4 -6 0 -3 8 3 9 16 15 32 14 16 -1 25 3 23 10 -6 19 -32 18 -50
-2z"/>
<path d="M4400 3820 c6 -11 15 -20 20 -20 6 0 10 9 10 20 0 13 -7 20 -20 20
-18 0 -19 -3 -10 -20z"/>
<path d="M4020 3785 c0 -8 2 -15 4 -15 2 0 6 7 10 15 3 8 1 15 -4 15 -6 0 -10
-7 -10 -15z"/>
<path d="M4088 3763 c-27 -7 -22 -33 6 -33 23 0 41 22 29 34 -7 6 -8 6 -35 -1z"/>
<path d="M3448 3673 c7 -3 16 -2 19 1 4 3 -2 6 -13 5 -11 0 -14 -3 -6 -6z"/>
<path d="M3750 3610 c-11 -8 -7 -9 15 -4 37 8 45 14 19 14 -10 0 -26 -5 -34
-10z"/>
<path d="M3840 3580 c-9 -6 -10 -10 -3 -10 6 0 15 5 18 10 8 12 4 12 -15 0z"/>
<path d="M6519 3381 c16 -11 23 -31 25 -78 0 -19 6 -33 14 -33 7 0 27 -20 44
-45 18 -25 36 -45 41 -45 5 0 7 -7 3 -15 -10 -26 4 -46 28 -40 17 5 18 4 6 -4
-8 -6 -12 -11 -7 -12 4 -1 12 -3 17 -4 6 -1 19 -3 29 -4 10 0 22 -8 25 -17 5
-12 2 -15 -11 -10 -10 3 -4 -7 14 -23 17 -16 29 -32 26 -35 -4 -3 1 -6 10 -6
10 0 17 -4 17 -10 0 -5 10 -10 23 -10 50 0 57 -3 45 -17 -13 -16 4 -33 32 -33
11 1 10 4 -4 15 -11 8 -16 15 -10 15 15 -1 49 -30 35 -30 -10 0 -11 -3 -2 -14
6 -8 10 -19 9 -26 -2 -7 4 -15 12 -17 13 -4 13 -3 0 6 -8 6 -10 11 -5 11 6 0
19 -10 29 -22 15 -18 16 -20 2 -15 -31 12 -13 -22 41 -78 7 -7 9 -15 6 -19 -4
-3 1 -6 10 -6 9 0 17 -4 17 -10 0 -5 7 -10 15 -10 8 0 15 -4 15 -10 0 -5 7
-10 15 -10 8 0 15 -6 15 -12 0 -10 2 -10 8 -1 5 8 13 9 22 3 13 -9 13 -10 0
-11 -8 0 -1 -7 15 -14 l30 -14 -30 -2 -30 -1 30 -8 c17 -4 23 -8 15 -9 -8 -1
-1 -8 16 -15 36 -16 54 -38 36 -44 -14 -4 10 -32 27 -32 6 0 11 -9 11 -21 0
-13 5 -19 13 -16 6 2 18 -1 24 -8 10 -10 9 -14 -3 -19 -21 -8 -26 -8 -20 3 3
5 -17 17 -44 27 -28 10 -50 22 -50 27 0 13 -62 0 -71 -14 -4 -6 -12 -10 -20
-7 -7 2 4 12 24 21 20 10 39 22 42 27 8 13 3 12 -31 0 -27 -11 -84 5 -84 22 0
13 12 9 32 -9 14 -13 21 -14 30 -5 9 9 7 12 -7 12 -19 1 -19 1 -2 14 23 18 22
26 -5 27 -17 1 -19 2 -5 6 27 7 20 21 -8 15 -14 -2 -22 -8 -19 -13 7 -11 -17
-11 -34 0 -10 6 -4 11 20 16 25 6 28 9 13 12 -29 6 -75 42 -54 43 9 0 22 -7
29 -15 7 -8 18 -15 24 -15 6 0 2 8 -9 16 -11 8 -19 20 -17 26 2 6 -6 8 -20 4
-13 -3 -29 -6 -36 -6 -7 0 -12 -8 -10 -17 2 -11 -6 -19 -22 -24 -18 -5 -11 -7
30 -9 89 -2 27 -19 -79 -21 -70 -1 -91 -5 -91 -15 0 -15 16 -19 24 -6 6 10
185 7 194 -3 4 -5 -3 -5 -15 -2 -13 3 -23 2 -23 -1 0 -4 -33 -6 -73 -5 -40 1
-78 -1 -84 -5 -16 -10 -5 -50 16 -55 13 -4 13 -5 -2 -6 -30 -2 -8 -21 24 -21
28 0 29 1 15 16 -9 8 -16 20 -16 25 0 5 -7 9 -15 9 -8 0 -15 4 -15 9 0 11 44
18 100 15 63 -3 62 -3 55 -14 -3 -5 -1 -10 4 -10 6 0 11 -4 11 -10 0 -5 -13
-10 -29 -10 -38 0 -48 -15 -12 -16 15 -1 40 -4 54 -8 23 -5 26 -10 21 -31 -4
-15 -2 -25 5 -25 6 0 11 6 12 13 0 6 7 -4 15 -24 12 -28 20 -36 35 -32 10 3
19 1 19 -5 0 -6 -8 -12 -17 -15 -10 -2 -3 -4 14 -4 24 0 30 3 23 12 -10 12 -4
25 12 25 4 0 7 -6 5 -12 -1 -8 6 -12 18 -10 14 3 17 1 9 -7 -6 -7 -25 -13 -43
-16 -18 -2 -36 -6 -39 -9 -5 -6 22 -10 46 -7 6 1 12 -3 12 -8 0 -5 10 -13 23
-17 25 -9 22 -9 60 0 19 4 26 3 22 -4 -3 -5 -2 -10 4 -10 20 0 21 19 1 33 -20
14 -20 15 -2 19 13 4 19 0 18 -9 -1 -9 18 -23 44 -34 l45 -18 -45 4 c-34 4
-39 3 -20 -4 48 -17 70 -11 123 32 47 38 50 44 36 57 -8 8 -25 16 -38 18 -21
2 -62 32 -44 32 11 0 16 93 8 142 -4 21 -11 36 -16 32 -5 -3 -9 -1 -9 4 0 16
-40 56 -40 41 -1 -8 -7 -3 -15 11 -8 14 -15 21 -15 15 0 -5 -8 6 -17 25 -9 19
-15 38 -15 43 1 4 -8 7 -21 8 -18 0 -19 2 -4 7 16 7 16 9 -3 25 -11 9 -26 17
-33 17 -8 0 -7 4 3 10 11 7 8 10 -16 10 -35 0 -52 24 -33 46 9 11 8 14 -5 14
-9 0 -16 4 -16 10 0 5 -7 7 -15 4 -12 -5 -15 3 -15 36 0 33 3 41 15 36 28 -10
16 23 -15 41 -32 19 -41 36 -12 26 14 -6 15 -4 4 9 -10 13 -10 17 0 21 7 3 1
6 -14 6 -16 1 -28 5 -28 9 0 4 -15 6 -34 4 -18 -2 -37 1 -40 7 -4 6 -27 11
-51 11 -24 0 -45 5 -47 10 -2 6 -19 12 -38 13 -23 2 -46 14 -69 35 -18 18 -40
32 -48 32 -8 0 -11 4 -8 10 4 6 -1 7 -11 3 -12 -4 -15 -3 -10 5 5 8 2 10 -8 6
-9 -4 -18 1 -22 10 -3 9 -12 16 -20 16 -8 0 -14 5 -14 10 0 6 -6 10 -13 10
-18 0 -67 24 -67 33 0 4 6 7 13 7 6 0 -1 7 -17 15 -31 16 -50 20 -27 6z m151
-225 c0 -3 -4 -8 -10 -11 -5 -3 -10 -1 -10 4 0 6 5 11 10 11 6 0 10 -2 10 -4z
m280 -20 c0 -11 -19 -15 -25 -6 -3 5 1 10 9 10 9 0 16 -2 16 -4z m-116 -111
c-4 -8 -11 -15 -16 -15 -6 0 -5 6 2 15 7 8 14 15 16 15 2 0 1 -7 -2 -15z m429
-322 c-7 -2 -19 -2 -25 0 -7 3 -2 5 12 5 14 0 19 -2 13 -5z m-224 -127 c10
-12 8 -13 -9 -9 -25 7 -37 23 -17 23 8 0 20 -6 26 -14z m138 -52 c-3 -3 -12
-4 -19 -1 -8 3 -5 6 6 6 11 1 17 -2 13 -5z m-57 -14 c-34 -11 -60 -11 -35 0
11 5 29 8 40 8 16 0 15 -2 -5 -8z m93 -7 c-7 -2 -19 -2 -25 0 -7 3 -2 5 12 5
14 0 19 -2 13 -5z m-117 -28 c19 -14 19 -14 -2 -15 -12 0 -24 7 -28 15 -7 19
5 19 30 0z m34 5 c0 -5 -2 -10 -4 -10 -3 0 -8 5 -11 10 -3 6 -1 10 4 10 6 0
11 -4 11 -10z m193 3 c-7 -2 -19 -2 -25 0 -7 3 -2 5 12 5 14 0 19 -2 13 -5z
m-88 -93 c3 -5 -1 -10 -9 -10 -9 0 -16 5 -16 10 0 6 4 10 9 10 6 0 13 -4 16
-10z"/>
<path d="M6440 3313 c0 -5 5 -15 10 -23 8 -12 10 -11 10 8 0 12 -4 22 -10 22
-5 0 -10 -3 -10 -7z"/>
<path d="M2298 3133 c7 -3 16 -2 19 1 4 3 -2 6 -13 5 -11 0 -14 -3 -6 -6z"/>
<path d="M5578 2983 c7 -3 16 -2 19 1 4 3 -2 6 -13 5 -11 0 -14 -3 -6 -6z"/>
<path d="M5920 2956 c0 -10 8 -16 22 -16 12 0 19 1 17 3 -2 1 -12 9 -21 16
-15 12 -18 11 -18 -3z"/>
<path d="M5579 2946 c11 -5 31 -4 48 2 25 9 24 10 -20 8 -35 -1 -43 -3 -28
-10z"/>
<path d="M5506 2902 c-2 -4 4 -8 14 -8 10 0 16 4 14 8 -3 4 -9 8 -14 8 -5 0
-11 -4 -14 -8z"/>
<path d="M7170 2900 c0 -5 5 -10 10 -10 6 0 10 5 10 10 0 6 -4 10 -10 10 -5 0
-10 -4 -10 -10z"/>
<path d="M7231 2867 c2 -1 15 -11 29 -22 l25 -20 -19 23 c-11 12 -24 22 -29
22 -6 0 -8 -1 -6 -3z"/>
<path d="M6808 2843 c7 -3 16 -2 19 1 4 3 -2 6 -13 5 -11 0 -14 -3 -6 -6z"/>
<path d="M2340 2789 c0 -5 5 -7 10 -4 6 3 10 8 10 11 0 2 -4 4 -10 4 -5 0 -10
-5 -10 -11z"/>
<path d="M5521 2789 c-13 -5 -22 -11 -20 -14 8 -7 49 7 49 16 0 5 -1 9 -2 8
-2 0 -14 -5 -27 -10z"/>
<path d="M5590 2775 c0 -7 10 -16 23 -18 18 -3 17 -5 -7 -6 -28 -1 -29 -2 -11
-21 10 -11 22 -17 26 -14 5 3 15 2 21 -2 9 -6 5 -10 -12 -15 -21 -6 -18 -7 12
-6 21 0 35 3 33 7 -7 11 40 29 68 26 39 -5 54 9 27 24 -18 10 -21 9 -15 -1 6
-9 -3 -11 -40 -5 -27 3 -52 11 -55 16 -4 6 -21 14 -38 19 -25 8 -32 7 -32 -4z
m87 -41 c-3 -3 -12 -4 -19 -1 -8 3 -5 6 6 6 11 1 17 -2 13 -5z"/>
<path d="M6970 2759 c0 -5 5 -7 10 -4 6 3 10 8 10 11 0 2 -4 4 -10 4 -5 0 -10
-5 -10 -11z"/>
<path d="M6872 2754 c10 -10 88 -13 88 -3 0 5 -21 9 -47 9 -25 0 -44 -3 -41
-6z"/>
<path d="M3158 2743 c7 -3 16 -2 19 1 4 3 -2 6 -13 5 -11 0 -14 -3 -6 -6z"/>
<path d="M5810 2740 c0 -5 5 -10 10 -10 6 0 10 5 10 10 0 6 -4 10 -10 10 -5 0
-10 -4 -10 -10z"/>
<path d="M5502 2724 c10 -10 20 -15 24 -12 3 4 -5 12 -18 18 -22 12 -22 12 -6
-6z"/>
<path d="M6776 2725 c-18 -14 -18 -14 1 -12 11 0 20 7 20 14 0 7 -1 13 -1 13
-1 0 -9 -7 -20 -15z"/>
<path d="M6810 2719 c0 -5 5 -7 10 -4 6 3 10 8 10 11 0 2 -4 4 -10 4 -5 0 -10
-5 -10 -11z"/>
<path d="M5698 2703 c7 -3 16 -2 19 1 4 3 -2 6 -13 5 -11 0 -14 -3 -6 -6z"/>
<path d="M6779 2686 c16 -19 44 -21 39 -3 -3 6 -15 14 -28 15 -21 3 -22 2 -11
-12z"/>
<path d="M6835 2691 c-6 -11 9 -23 19 -14 9 9 7 23 -3 23 -6 0 -12 -4 -16 -9z"/>
<path d="M5505 2670 c-7 -12 2 -12 30 0 19 8 19 9 -2 9 -12 1 -25 -3 -28 -9z"/>
<path d="M5288 2623 c6 -2 18 -2 25 0 6 3 1 5 -13 5 -14 0 -19 -2 -12 -5z"/>
<path d="M5486 2616 c7 -19 47 -28 76 -17 l23 9 -27 6 c-75 16 -78 17 -72 2z"/>
<path d="M5392 2595 c-11 -13 -11 -16 0 -20 22 -8 53 1 53 16 0 19 -37 22 -53
4z m43 -5 c3 -6 -1 -7 -9 -4 -18 7 -21 14 -7 14 6 0 13 -4 16 -10z"/>
<path d="M6870 2591 c0 -10 68 -13 74 -3 2 4 -13 9 -35 9 -21 1 -39 -2 -39 -6z"/>
<path d="M6830 2515 c0 -8 5 -15 10 -15 6 0 10 7 10 15 0 8 -4 15 -10 15 -5 0
-10 -7 -10 -15z"/>
<path d="M6898 2523 c6 -2 18 -2 25 0 6 3 1 5 -13 5 -14 0 -19 -2 -12 -5z"/>
<path d="M5487 2493 c-3 -5 17 -8 43 -8 26 0 43 3 37 7 -16 10 -75 10 -80 1z"/>
<path d="M6852 2479 c11 -6 15 -16 11 -27 -4 -13 -3 -14 6 -6 15 14 3 44 -18
44 -14 -1 -14 -2 1 -11z"/>
<path d="M6957 2469 c7 -7 15 -10 18 -7 3 3 -2 9 -12 12 -14 6 -15 5 -6 -5z"/>
<path d="M7040 2439 c0 -5 5 -7 10 -4 6 3 10 8 10 11 0 2 -4 4 -10 4 -5 0 -10
-5 -10 -11z"/>
<path d="M2160 2430 c0 -6 7 -13 15 -16 8 -4 12 -10 9 -15 -8 -13 8 -10 29 5
23 18 22 29 -2 16 -15 -7 -23 -6 -35 6 -9 8 -16 10 -16 4z"/>
<path d="M5235 2420 c-11 -4 -23 -6 -26 -4 -4 2 -19 -8 -33 -21 -15 -14 -30
-25 -34 -25 -4 0 -16 -11 -26 -25 -10 -14 -25 -25 -32 -25 -8 0 -14 -6 -14
-14 0 -8 -8 -17 -17 -20 -10 -2 -2 -4 17 -3 19 1 34 7 33 12 -2 10 35 30 50
26 4 0 10 6 13 14 4 8 13 15 21 15 8 0 11 5 8 10 -4 6 7 13 23 16 19 4 32 14
36 27 6 26 6 26 -19 17z"/>
<path d="M5050 2410 c0 -13 11 -13 30 0 12 8 11 10 -7 10 -13 0 -23 -4 -23
-10z"/>
<path d="M2230 2395 c-7 -9 -11 -17 -9 -20 3 -2 10 5 17 15 14 24 10 26 -8 5z"/>
<path d="M6918 2403 c-10 -2 -18 -9 -18 -14 0 -13 13 -11 36 6 19 14 14 17
-18 8z"/>
<path d="M6938 2377 c-16 -6 -28 -14 -28 -18 0 -12 49 3 54 17 3 8 4 14 3 13
-1 -1 -14 -6 -29 -12z"/>
<path d="M7102 2377 c-8 -9 -3 -12 19 -12 34 0 35 1 10 14 -13 8 -22 7 -29 -2z"/>
<path d="M5301 2346 l-24 -13 34 -5 c19 -3 41 -2 49 3 11 6 8 8 -13 9 -16 0
-26 4 -22 10 8 13 5 12 -24 -4z"/>
<path d="M4455 2340 c-3 -6 1 -7 9 -4 18 7 21 14 7 14 -6 0 -13 -4 -16 -10z"/>
<path d="M7100 2340 c-9 -6 -10 -10 -3 -10 6 0 15 5 18 10 8 12 4 12 -15 0z"/>
<path d="M7175 2340 c-16 -7 -17 -9 -3 -9 9 -1 20 4 23 9 7 11 7 11 -20 0z"/>
<path d="M7328 2323 c6 -2 18 -2 25 0 6 3 1 5 -13 5 -14 0 -19 -2 -12 -5z"/>
<path d="M6945 2310 c3 -5 8 -10 11 -10 2 0 4 5 4 10 0 6 -5 10 -11 10 -5 0
-7 -4 -4 -10z"/>
<path d="M7190 2310 c-8 -5 -10 -10 -5 -10 6 0 17 5 25 10 8 5 11 10 5 10 -5
0 -17 -5 -25 -10z"/>
<path d="M7480 2306 c0 -2 7 -6 15 -10 8 -3 15 -1 15 4 0 6 -7 10 -15 10 -8 0
-15 -2 -15 -4z"/>
<path d="M7180 2280 c0 -5 5 -10 11 -10 5 0 7 5 4 10 -3 6 -8 10 -11 10 -2 0
-4 -4 -4 -10z"/>
<path d="M7258 2283 c7 -3 16 -2 19 1 4 3 -2 6 -13 5 -11 0 -14 -3 -6 -6z"/>
<path d="M2428 2273 c7 -3 16 -2 19 1 4 3 -2 6 -13 5 -11 0 -14 -3 -6 -6z"/>
<path d="M7438 2273 c7 -3 16 -2 19 1 4 3 -2 6 -13 5 -11 0 -14 -3 -6 -6z"/>
<path d="M5200 2260 c0 -5 7 -7 15 -4 8 4 15 8 15 10 0 2 -7 4 -15 4 -8 0 -15
-4 -15 -10z"/>
<path d="M2209 2243 c-13 -15 -12 -15 11 -3 34 17 36 20 18 20 -9 0 -22 -7
-29 -17z"/>
<path d="M5108 2253 c7 -3 16 -2 19 1 4 3 -2 6 -13 5 -11 0 -14 -3 -6 -6z"/>
<path d="M7508 2243 c7 -3 16 -2 19 1 4 3 -2 6 -13 5 -11 0 -14 -3 -6 -6z"/>
<path d="M2223 2224 c-18 -9 -33 -20 -33 -25 0 -15 17 -10 24 6 3 8 10 15 16
15 6 0 8 -4 5 -10 -10 -17 0 -11 18 10 20 24 13 25 -30 4z"/>
<path d="M4940 2225 c-10 -12 -10 -15 3 -15 8 0 20 7 27 15 10 12 10 15 -3 15
-8 0 -20 -7 -27 -15z"/>
<path d="M5140 2230 c0 -5 5 -10 11 -10 5 0 7 5 4 10 -3 6 -8 10 -11 10 -2 0
-4 -4 -4 -10z"/>
<path d="M6980 2230 c0 -5 5 -10 11 -10 5 0 7 5 4 10 -3 6 -8 10 -11 10 -2 0
-4 -4 -4 -10z"/>
<path d="M7078 2233 c7 -3 16 -2 19 1 4 3 -2 6 -13 5 -11 0 -14 -3 -6 -6z"/>
<path d="M5014 2219 c-3 -6 -15 -9 -27 -7 -17 2 -21 -2 -19 -16 3 -15 0 -17
-15 -11 -42 17 -90 18 -96 1 -4 -10 -1 -16 8 -16 8 0 15 -5 15 -11 0 -5 -6 -7
-12 -3 -10 6 -10 5 -1 -8 11 -12 9 -18 -9 -34 -21 -19 -21 -19 -16 4 4 12 2
22 -2 22 -5 0 -10 -12 -12 -27 -2 -18 -10 -29 -23 -32 -15 -2 -17 0 -9 10 14
17 26 79 16 79 -18 -1 -37 -21 -37 -42 0 -15 -10 -27 -30 -37 -20 -10 -25 -16
-15 -18 36 -10 41 -13 35 -23 -5 -8 -12 -7 -22 1 -12 10 -16 10 -24 -2 -5 -8
-8 -18 -8 -24 0 -5 3 -5 5 2 4 9 11 9 30 1 19 -9 28 -8 41 4 10 8 37 24 61 35
24 12 38 24 32 28 -14 9 -4 24 18 24 33 1 82 13 82 21 0 5 15 4 32 -1 41 -11
47 -11 28 1 -12 8 -12 12 -2 18 7 5 10 16 6 27 -6 15 -4 17 14 13 12 -4 19 -2
16 3 -3 5 5 13 18 18 19 7 14 9 -24 9 -27 0 -51 -4 -54 -9z"/>
<path d="M6990 2200 c0 -5 5 -10 11 -10 6 0 9 -7 5 -15 -6 -17 9 -21 19 -5 3
6 0 17 -9 25 -17 17 -26 19 -26 5z"/>
<path d="M2208 2173 c6 -2 18 -2 25 0 6 3 1 5 -13 5 -14 0 -19 -2 -12 -5z"/>
<path d="M5348 2173 c7 -3 16 -2 19 1 4 3 -2 6 -13 5 -11 0 -14 -3 -6 -6z"/>
<path d="M2170 2159 c0 -5 5 -7 10 -4 6 3 10 8 10 11 0 2 -4 4 -10 4 -5 0 -10
-5 -10 -11z"/>
<path d="M5310 2161 c0 -10 19 -25 25 -20 1 2 -3 10 -11 17 -8 7 -14 8 -14 3z"/>
<path d="M2235 2150 c-3 -5 -1 -10 4 -10 6 0 11 5 11 10 0 6 -2 10 -4 10 -3 0
-8 -4 -11 -10z"/>
<path d="M813 2138 c-13 -6 -23 -15 -23 -20 0 -7 31 8 59 29 10 7 -16 1 -36
-9z"/>
<path d="M5207 2143 c-28 -7 -9 -24 21 -18 26 5 26 5 4 -5 -13 -5 -35 -7 -48
-4 -13 3 -24 2 -24 -4 0 -16 22 -19 73 -7 47 10 48 11 30 28 -20 17 -25 18
-56 10z"/>
<path d="M5275 2140 c3 -5 14 -10 23 -10 15 0 15 2 2 10 -20 13 -33 13 -25 0z"/>
<path d="M2493 2133 c-13 -2 -23 -9 -23 -14 0 -13 43 -5 48 9 2 7 2 11 0 11
-1 -1 -13 -4 -25 -6z"/>
<path d="M7042 2123 c3 -20 47 -55 59 -47 7 4 -47 64 -58 64 -2 0 -3 -8 -1
-17z"/>
<path d="M2353 2123 c9 -2 17 -12 17 -21 0 -13 3 -13 12 -4 10 10 10 15 -2 22
-8 5 -22 9 -30 9 -11 -1 -10 -3 3 -6z"/>
<path d="M5358 2108 c6 -6 18 -8 28 -6 14 3 12 5 -9 10 -19 3 -25 2 -19 -4z"/>
<path d="M2509 2093 c-13 -15 -12 -15 9 -4 23 12 28 21 13 21 -5 0 -15 -7 -22
-17z"/>
<path d="M5003 2103 c-13 -2 -23 -9 -23 -15 0 -5 7 -7 16 -4 9 3 27 6 40 6 13
0 24 5 24 10 0 10 -16 11 -57 3z"/>
<path d="M5080 2095 c0 -8 -4 -15 -10 -15 -5 0 -10 -4 -10 -10 0 -5 8 -9 18
-8 37 3 63 -2 57 -12 -3 -5 1 -10 9 -10 9 0 16 6 16 14 0 8 6 17 13 19 6 3 2
6 -10 6 -16 1 -21 6 -17 16 5 12 -2 15 -30 15 -25 0 -36 -4 -36 -15z m50 -5
c0 -5 -7 -10 -16 -10 -8 0 -12 5 -9 10 3 6 10 10 16 10 5 0 9 -4 9 -10z"/>
<path d="M7378 2093 c23 -2 61 -2 85 0 23 2 4 4 -43 4 -47 0 -66 -2 -42 -4z"/>
<path d="M4935 2080 c-13 -6 -15 -9 -5 -9 8 0 22 4 30 9 18 12 2 12 -25 0z"/>
<path d="M7130 2075 c-7 -8 -8 -15 -2 -15 5 0 15 7 22 15 7 8 8 15 2 15 -5 0
-15 -7 -22 -15z"/>
<path d="M7518 2083 c6 -2 18 -2 25 0 6 3 1 5 -13 5 -14 0 -19 -2 -12 -5z"/>
<path d="M2075 2060 c-3 -5 -1 -10 4 -10 6 0 11 5 11 10 0 6 -2 10 -4 10 -3 0
-8 -4 -11 -10z"/>
<path d="M2398 2061 c11 -6 10 -12 -4 -26 -17 -17 -17 -17 5 -10 15 4 21 3 17
-3 -3 -5 1 -13 10 -16 12 -5 14 -1 8 17 -8 28 -23 47 -38 47 -7 0 -6 -4 2 -9z"/>
<path d="M4610 2039 c-14 -25 -3 -40 13 -19 7 9 21 14 32 12 23 -5 19 0 -12
17 -19 10 -24 8 -33 -10z"/>
<path d="M7080 2046 c0 -9 30 -14 35 -6 4 6 -3 10 -14 10 -12 0 -21 -2 -21 -4z"/>
<path d="M7134 2033 c5 -9 -1 -13 -19 -13 l-26 0 28 -40 c15 -22 37 -43 48
-46 11 -4 23 -12 27 -18 5 -7 8 -5 8 6 0 9 -6 19 -12 21 -10 4 -10 6 -1 6 6 1
15 -3 18 -9 3 -5 11 -10 17 -10 6 0 3 8 -6 19 -16 18 -15 18 11 14 22 -4 25
-2 13 6 -12 8 -5 11 30 11 79 0 318 -42 330 -58 3 -4 27 -13 54 -20 67 -17
288 -128 311 -156 16 -19 105 -80 109 -75 5 5 -98 93 -142 121 -187 121 -465
208 -665 208 -56 0 -86 4 -82 10 3 6 -2 10 -12 10 -11 0 -25 6 -32 13 -11 10
-13 10 -7 0z"/>
<path d="M4835 2020 c-11 -5 -32 -11 -46 -14 -32 -7 -46 -34 -23 -43 9 -3 19
0 24 6 4 7 10 13 13 13 19 0 47 12 47 19 0 5 12 6 28 3 24 -7 26 -6 13 9 -15
19 -26 20 -56 7z"/>
<path d="M4680 2010 c-13 -8 -12 -10 3 -10 9 0 17 5 17 10 0 12 -1 12 -20 0z"/>
<path d="M1940 2000 c0 -13 11 -13 30 0 12 8 11 10 -7 10 -13 0 -23 -4 -23
-10z"/>
<path d="M2470 2000 c-23 -7 -23 -8 -3 -9 12 -1 25 4 28 9 3 6 5 10 3 9 -2 -1
-14 -5 -28 -9z"/>
<path d="M2178 1993 c7 -3 16 -2 19 1 4 3 -2 6 -13 5 -11 0 -14 -3 -6 -6z"/>
<path d="M2210 1954 c0 -14 5 -24 11 -22 6 2 10 7 10 11 -1 4 -1 14 -1 22 0 8
-4 15 -10 15 -5 0 -10 -12 -10 -26z"/>
<path d="M4959 1967 c6 -8 8 -17 4 -20 -7 -8 -2 -9 40 -12 15 -1 27 2 27 6 0
5 -8 9 -17 9 -14 0 -15 2 -5 9 11 7 11 9 -2 14 -8 3 -17 1 -20 -6 -3 -9 -5 -9
-5 1 -1 6 -8 12 -17 12 -13 0 -14 -3 -5 -13z"/>
<path d="M2185 1960 c3 -5 8 -10 11 -10 2 0 4 5 4 10 0 6 -5 10 -11 10 -5 0
-7 -4 -4 -10z"/>
<path d="M4883 1960 c-35 -8 -146 -60 -141 -65 2 -2 30 3 63 11 33 7 67 14 75
14 13 0 13 -1 0 -10 -11 -7 -12 -10 -2 -10 8 0 16 9 19 20 3 10 14 22 24 25
21 7 26 26 7 24 -7 -1 -27 -4 -45 -9z"/>
<path d="M1995 1951 c-3 -3 -13 -6 -21 -7 -31 -5 -41 -13 -62 -48 -16 -27 -18
-36 -7 -36 7 0 16 8 19 18 3 10 21 26 38 36 32 17 33 17 12 -1 -12 -10 -26
-28 -33 -40 -24 -45 25 -105 99 -121 39 -9 41 -10 15 -12 -16 -1 -39 -2 -50
-2 -11 1 -6 -4 13 -10 75 -25 172 44 158 114 -8 38 -48 88 -71 88 -10 0 -13 5
-9 11 5 9 -1 10 -20 5 -81 -19 -82 -19 -62 -4 16 13 16 15 2 15 -9 0 -18 -3
-21 -6z m119 -52 c18 -14 26 -30 26 -50 0 -35 -16 -69 -32 -69 -7 0 -6 5 2 15
10 12 10 19 1 28 -9 9 -14 9 -20 -1 -10 -17 -58 -42 -81 -42 -38 0 -61 68 -29
88 11 7 25 10 31 6 7 -4 8 -3 4 4 -9 15 -1 15 24 2 13 -7 19 -6 24 5 5 15 -8
20 -49 17 -16 -2 -17 0 -5 8 25 16 76 11 104 -11z m-24 -114 c0 -9 -9 -15 -22
-15 -22 1 -23 1 -4 15 25 19 26 19 26 0z"/>
<path d="M2069 1860 l-24 -20 27 13 c16 6 28 15 28 20 0 11 -6 9 -31 -13z"/>
<path d="M2070 1835 c-7 -8 -17 -12 -23 -8 -6 4 -7 1 -3 -6 6 -9 13 -8 29 6
12 10 24 19 26 20 2 2 0 3 -6 3 -6 0 -16 -7 -23 -15z"/>
<path d="M4686 1945 c7 -17 -17 -20 -44 -6 -13 7 -22 3 -35 -15 -19 -26 -13
-29 28 -14 19 7 24 7 19 -1 -4 -8 1 -9 17 -4 l24 8 -25 -22 -25 -21 30 6 c28
5 29 4 12 -9 -22 -18 -10 -28 19 -17 34 13 24 110 -11 110 -9 0 -12 -6 -9 -15z"/>
<path d="M5197 1949 c7 -7 15 -10 18 -7 3 3 -2 9 -12 12 -14 6 -15 5 -6 -5z"/>
<path d="M2235 1924 c-18 -13 -18 -14 8 -12 26 2 35 12 19 22 -4 2 -16 -2 -27
-10z"/>
<path d="M2315 1920 c-8 -13 15 -13 35 0 12 8 11 10 -7 10 -12 0 -25 -4 -28
-10z"/>
<path d="M2355 1904 c-26 -12 -27 -14 -5 -9 14 2 31 5 38 5 6 0 12 5 12 10 0
13 -9 12 -45 -6z"/>
<path d="M4528 1911 c11 -6 8 -10 -10 -15 -21 -6 -68 -65 -68 -87 0 -5 -7 -9
-16 -9 -10 0 -14 -6 -11 -14 3 -8 -5 -22 -19 -32 -13 -11 -24 -29 -24 -41 0
-13 -5 -23 -11 -23 -20 0 -48 -44 -42 -68 4 -16 1 -22 -8 -20 -8 2 -15 -7 -17
-22 -2 -13 -11 -29 -20 -36 -18 -13 -27 -54 -12 -54 6 0 8 -12 4 -27 -4 -22
-3 -25 5 -13 6 8 11 23 11 33 0 9 6 17 14 17 8 0 21 9 29 20 8 11 31 38 51 60
35 38 76 116 76 145 0 8 7 18 16 23 9 5 15 12 15 15 -3 24 0 37 8 33 5 -4 7 3
4 14 -3 12 0 20 7 20 7 0 10 8 7 20 -3 13 3 26 19 39 20 16 21 20 8 25 -23 9
-31 7 -16 -3z"/>
<path d="M5233 1913 c9 -2 23 -2 30 0 6 3 -1 5 -18 5 -16 0 -22 -2 -12 -5z"/>
<path d="M2240 1890 c-9 -6 -10 -10 -3 -10 6 0 15 5 18 10 8 12 4 12 -15 0z"/>
<path d="M2263 1874 c-8 -18 -8 -22 0 -17 7 4 17 8 22 9 6 0 16 2 23 2 7 1 10
7 7 12 -4 6 -11 7 -17 4 -6 -4 -13 -2 -17 4 -3 6 -11 0 -18 -14z"/>
<path d="M7190 1898 c0 -4 5 -19 10 -33 12 -32 5 -41 -65 -77 -46 -24 -62 -30
-137 -45 -16 -3 -28 -9 -28 -13 0 -4 -12 -13 -27 -19 -16 -6 -59 -29 -98 -51
-38 -21 -80 -39 -92 -40 -12 0 -46 -10 -75 -23 -29 -13 -89 -29 -133 -36 -44
-7 -102 -20 -129 -28 -92 -29 -215 -4 -381 78 -55 27 -104 32 -90 8 3 -4 12
-6 20 -3 10 4 12 0 8 -16 -5 -17 -2 -21 13 -19 31 4 74 -12 127 -47 45 -30 52
-32 62 -17 11 15 17 14 67 -10 60 -29 98 -58 98 -75 0 -13 24 -22 58 -22 21 0
24 2 12 10 -13 8 -12 10 3 10 10 0 16 4 13 9 -8 12 20 22 41 14 11 -4 14 -3 9
5 -5 8 0 12 13 12 12 0 21 5 21 10 0 6 6 10 14 10 8 0 16 4 18 9 6 17 197 111
225 111 18 0 41 -10 56 -24 15 -14 36 -27 48 -31 11 -4 40 -20 64 -36 24 -16
48 -29 55 -29 6 0 9 -4 6 -9 -3 -5 12 -8 34 -7 22 0 40 4 40 8 0 5 -5 8 -12 8
-6 0 -8 3 -5 7 4 3 15 -1 24 -9 42 -35 59 -34 21 2 -14 13 -17 20 -8 20 7 0
21 -7 31 -16 11 -10 19 -12 24 -5 3 6 -1 14 -9 17 -9 3 -13 10 -10 15 3 5 -3
6 -13 2 -15 -5 -14 -1 5 18 20 21 25 22 44 10 l22 -14 -18 28 c-17 25 -17 27
-2 22 13 -5 16 -3 11 12 -3 10 1 24 10 31 8 7 12 16 9 21 -3 5 2 6 10 3 9 -4
16 -1 16 6 0 6 -9 14 -20 17 -11 3 -20 10 -20 15 0 5 9 6 20 3 21 -7 28 9 10
20 -8 5 -7 11 1 21 8 10 8 14 0 14 -6 0 -11 6 -11 14 0 10 7 12 22 8 15 -4 19
-2 13 8 -4 7 -2 16 6 21 11 7 10 9 -3 9 -10 0 -18 3 -18 6 0 4 8 13 18 20 14
11 14 13 2 14 -9 0 -23 12 -32 28 -10 15 -18 24 -18 20z m-150 -398 c0 -5 -2
-10 -4 -10 -3 0 -8 5 -11 10 -3 6 -1 10 4 10 6 0 11 -4 11 -10z"/>
<path d="M7275 1891 c3 -6 -3 -14 -12 -20 -11 -6 -13 -11 -5 -11 7 0 20 6 27
14 12 12 12 15 -1 20 -8 3 -12 2 -9 -3z"/>
<path d="M2348 1869 c-38 -19 -52 -34 -23 -23 10 4 15 0 15 -15 0 -25 6 -26
28 -4 16 16 16 16 0 10 -30 -11 -20 12 15 33 42 26 13 25 -35 -1z"/>
<path d="M5023 1873 c9 -2 23 -2 30 0 6 3 -1 5 -18 5 -16 0 -22 -2 -12 -5z"/>
<path d="M4550 1858 c0 -11 28 -10 35 1 3 6 -4 9 -15 8 -11 -1 -20 -5 -20 -9z"/>
<path d="M5131 1859 c-13 -5 -26 -7 -29 -4 -3 3 -20 -6 -37 -20 -18 -13 -36
-21 -40 -17 -5 4 -5 1 -1 -6 4 -7 1 -14 -6 -17 -7 -3 -14 -24 -16 -49 -2 -38
1 -47 23 -63 14 -10 35 -26 48 -36 17 -15 33 -18 71 -14 68 6 106 47 106 113
0 27 -4 43 -10 39 -5 -3 -10 -13 -10 -21 0 -8 -4 -14 -10 -14 -5 0 -10 7 -10
15 0 8 -16 18 -37 24 -51 14 -110 -11 -118 -50 -4 -16 -3 -34 1 -40 5 -9 2
-10 -10 -6 -10 4 -20 7 -22 7 -10 0 -3 54 11 80 30 59 112 77 174 39 37 -22
56 -18 25 7 -18 15 -18 15 2 5 29 -14 39 -1 11 14 -34 17 -89 24 -116 14z m43
-88 c3 -5 -12 -8 -33 -7 -22 0 -37 4 -35 8 7 11 62 10 68 -1z m-14 -91 c-20
-13 -47 -13 -55 0 -4 6 9 10 32 10 28 0 34 -3 23 -10z m-29 -38 c-7 -2 -18 1
-23 6 -8 8 -4 9 13 5 13 -4 18 -8 10 -11z"/>
<path d="M1886 1838 c3 -4 9 -8 15 -8 5 0 9 4 9 8 0 5 -7 9 -15 9 -8 0 -12 -4
-9 -9z"/>
<path d="M4575 1830 c-25 -6 -27 -8 -12 -15 10 -4 23 -2 32 5 9 7 18 10 22 6
4 -3 -2 -12 -12 -19 -24 -18 -3 -25 45 -16 19 3 29 7 23 8 -7 0 -13 9 -13 19
0 20 -28 24 -85 12z"/>
<path d="M1905 1810 c-3 -5 -1 -10 4 -10 6 0 11 5 11 10 0 6 -2 10 -4 10 -3 0
-8 -4 -11 -10z"/>
<path d="M2310 1810 c-12 -7 -12 -10 -1 -10 8 0 11 -6 7 -16 -3 -8 -2 -12 3
-9 7 4 13 47 6 45 0 0 -7 -5 -15 -10z"/>
<path d="M5090 1810 c-13 -8 -12 -10 3 -10 9 0 17 5 17 10 0 12 -1 12 -20 0z"/>
<path d="M5485 1751 c-4 -33 -4 -65 0 -70 3 -6 36 -9 82 -6 71 4 115 -7 143
-35 3 -3 16 -11 28 -18 33 -18 42 -5 13 19 -13 10 -19 19 -13 19 5 0 15 -7 22
-15 7 -8 19 -15 27 -15 9 0 13 6 9 15 -6 18 5 20 21 4 8 -8 19 -8 40 0 19 8
21 10 6 7 -13 -2 -26 0 -29 5 -3 5 5 9 17 9 41 0 8 15 -159 71 -92 31 -174 59
-183 63 -14 6 -18 -2 -24 -53z"/>
<path d="M1916 1775 c4 -8 10 -15 16 -15 5 0 6 -5 2 -12 -4 -7 -3 -8 4 -4 9 5
8 12 -1 26 -14 23 -29 27 -21 5z"/>
<path d="M2250 1780 c-13 -8 -13 -10 2 -10 9 0 20 5 23 10 8 13 -5 13 -25 0z"/>
<path d="M4520 1765 c-15 -18 1 -20 19 -2 11 10 13 10 7 0 -4 -7 -3 -13 2 -13
6 0 12 7 16 15 3 10 -1 15 -13 15 -10 0 -24 -7 -31 -15z"/>
<path d="M8980 1759 c0 -5 5 -7 10 -4 6 3 10 8 10 11 0 2 -4 4 -10 4 -5 0 -10
-5 -10 -11z"/>
<path d="M9020 1760 c-11 -7 -5 -8 20 -4 43 8 51 14 19 14 -13 0 -31 -5 -39
-10z"/>
<path d="M8918 1743 c6 -2 18 -2 25 0 6 3 1 5 -13 5 -14 0 -19 -2 -12 -5z"/>
<path d="M2205 1730 c3 -5 13 -10 21 -10 8 0 12 5 9 10 -3 6 -13 10 -21 10 -8
0 -12 -4 -9 -10z"/>
<path d="M2175 1720 c-3 -5 -1 -10 4 -10 6 0 11 5 11 10 0 6 -2 10 -4 10 -3 0
-8 -4 -11 -10z"/>
<path d="M2280 1722 c0 -6 -10 -12 -22 -14 -12 -2 -23 -8 -25 -14 -6 -18 45
-4 52 13 3 9 3 18 0 21 -3 3 -5 0 -5 -6z"/>
<path d="M1960 1700 c0 -6 7 -10 15 -10 8 0 15 2 15 4 0 2 -7 6 -15 10 -8 3
-15 1 -15 -4z"/>
<path d="M4780 1695 c15 -17 40 -20 40 -4 0 6 -7 9 -15 5 -8 -3 -15 -1 -15 4
0 6 -5 10 -11 10 -8 0 -8 -5 1 -15z"/>
<path d="M8845 1700 c-8 -13 5 -13 25 0 13 8 13 10 -2 10 -9 0 -20 -4 -23 -10z"/>
<path d="M4638 1693 c7 -3 16 -2 19 1 4 3 -2 6 -13 5 -11 0 -14 -3 -6 -6z"/>
<path d="M6335 1690 c3 -5 10 -10 16 -10 5 0 9 5 9 10 0 6 -7 10 -16 10 -8 0
-12 -4 -9 -10z"/>
<path d="M2175 1679 c-4 -5 3 -9 14 -9 26 0 35 15 11 17 -11 1 -22 -2 -25 -8z"/>
<path d="M4685 1680 c-3 -5 1 -10 9 -10 9 0 16 5 16 10 0 6 -4 10 -9 10 -6 0
-13 -4 -16 -10z"/>
<path d="M2283 1661 c-28 -24 -29 -28 -3 -26 23 2 60 45 38 45 -7 -1 -23 -9
-35 -19z"/>
<path d="M3760 1666 c0 -9 5 -16 10 -16 6 0 10 4 10 9 0 6 -4 13 -10 16 -5 3
-10 -1 -10 -9z"/>
<path d="M9030 1675 c0 -2 11 -10 25 -19 20 -13 25 -14 25 -2 0 7 -11 16 -25
18 -14 3 -25 4 -25 3z"/>
<path d="M2035 1660 c-3 -5 -1 -10 4 -10 6 0 11 5 11 10 0 6 -2 10 -4 10 -3 0
-8 -4 -11 -10z"/>
<path d="M8775 1660 c-3 -5 1 -10 9 -10 9 0 16 5 16 10 0 6 -4 10 -9 10 -6 0
-13 -4 -16 -10z"/>
<path d="M8928 1663 c7 -3 16 -2 19 1 4 3 -2 6 -13 5 -11 0 -14 -3 -6 -6z"/>
<path d="M8538 1653 c7 -3 16 -2 19 1 4 3 -2 6 -13 5 -11 0 -14 -3 -6 -6z"/>
<path d="M3790 1640 c0 -5 5 -10 10 -10 6 0 10 5 10 10 0 6 -4 10 -10 10 -5 0
-10 -4 -10 -10z"/>
<path d="M5196 1625 c-8 -8 -32 -19 -53 -24 l-38 -9 33 -1 c38 -1 67 12 76 34
7 19 2 19 -18 0z"/>
<path d="M2130 1620 c-13 -8 -12 -10 3 -10 9 0 17 -5 17 -10 0 -6 -7 -10 -16
-8 -10 2 -19 -4 -21 -12 -4 -12 -3 -12 5 -1 8 11 11 11 16 0 4 -10 8 -11 11
-3 3 7 15 10 25 7 14 -4 20 0 20 11 0 10 -6 13 -15 10 -11 -5 -13 -2 -9 10 7
18 -12 21 -36 6z"/>
<path d="M2260 1610 c0 -5 4 -10 9 -10 6 0 13 5 16 10 3 6 -1 10 -9 10 -9 0
-16 -4 -16 -10z"/>
<path d="M5910 1590 c0 -5 7 -10 15 -10 8 0 15 5 15 10 0 6 -7 10 -15 10 -8 0
-15 -4 -15 -10z"/>
<path d="M5463 1556 c-17 -26 -19 -36 -10 -46 9 -10 9 -14 0 -17 -15 -6 -17
-33 -3 -33 6 0 10 5 10 11 0 6 9 9 20 6 11 -3 20 -2 20 3 0 4 16 11 35 14 34
7 47 28 24 42 -8 4 -8 9 0 17 15 15 14 24 -3 30 -10 4 -13 1 -9 -9 3 -7 1 -14
-5 -14 -6 0 -12 4 -14 9 -1 4 -12 11 -23 14 -15 5 -25 -2 -42 -27z m77 -26 c8
-5 12 -11 9 -14 -7 -8 -49 5 -49 15 0 12 21 11 40 -1z"/>
<path d="M5790 1580 c0 -5 5 -10 11 -10 5 0 7 5 4 10 -3 6 -8 10 -11 10 -2 0
-4 -4 -4 -10z"/>
<path d="M5835 1580 c4 -6 11 -8 16 -5 14 9 11 15 -7 15 -8 0 -12 -5 -9 -10z"/>
<path d="M2138 1563 c-24 -6 -23 -23 1 -23 10 0 21 7 25 15 6 15 4 16 -26 8z"/>
<path d="M2208 1550 c-47 -21 -58 -30 -26 -23 20 5 18 1 -12 -25 -26 -23 -31
-31 -17 -32 15 0 22 -11 18 -32 0 -5 2 -8 7 -8 20 1 32 20 37 60 3 24 13 49
23 56 27 20 10 23 -30 4z m-8 -64 c0 -3 -4 -8 -10 -11 -5 -3 -10 -1 -10 4 0 6
5 11 10 11 6 0 10 -2 10 -4z"/>
<path d="M4795 1560 c-3 -5 -1 -10 4 -10 6 0 11 5 11 10 0 6 -2 10 -4 10 -3 0
-8 -4 -11 -10z"/>
<path d="M4970 1559 c0 -5 5 -7 10 -4 6 3 10 8 10 11 0 2 -4 4 -10 4 -5 0 -10
-5 -10 -11z"/>
<path d="M5860 1562 c0 -12 19 -26 26 -19 2 2 -2 10 -11 17 -9 8 -15 8 -15 2z"/>
<path d="M2340 1540 c0 -5 12 -10 28 -10 21 0 24 2 12 10 -20 13 -40 13 -40 0z"/>
<path d="M7150 1520 c0 -5 5 -10 11 -10 5 0 7 5 4 10 -3 6 -8 10 -11 10 -2 0
-4 -4 -4 -10z"/>
<path d="M2300 1471 c0 -5 9 -7 20 -4 11 3 20 7 20 9 0 2 -9 4 -20 4 -11 0
-20 -4 -20 -9z"/>
<path d="M8504 1461 c4 -5 0 -12 -6 -14 -8 -4 -9 -6 -2 -6 6 -1 17 6 24 14 10
12 9 15 -4 15 -10 0 -15 -4 -12 -9z"/>
<path d="M5427 1443 c-4 -3 -7 -11 -7 -17 0 -6 5 -5 12 2 6 6 9 14 7 17 -3 3
-9 2 -12 -2z"/>
<path d="M4670 1430 c-8 -5 -31 -10 -51 -10 -40 0 -50 -6 -42 -26 3 -9 10 -10
21 -5 27 14 95 40 117 44 16 4 15 5 -5 6 -14 0 -32 -4 -40 -9z"/>
<path d="M5393 1404 c-4 -10 -14 -24 -22 -31 -14 -11 -13 -12 7 -13 12 0 22 6
22 14 0 8 6 16 13 19 9 4 9 7 0 17 -10 11 -14 10 -20 -6z"/>
<path d="M2170 1399 c0 -5 5 -7 10 -4 6 3 10 8 10 11 0 2 -4 4 -10 4 -5 0 -10
-5 -10 -11z"/>
<path d="M8430 1390 c-8 -5 -10 -10 -5 -10 6 0 17 5 25 10 8 5 11 10 5 10 -5
0 -17 -5 -25 -10z"/>
<path d="M2208 1383 c12 -2 30 -2 40 0 9 3 -1 5 -23 4 -22 0 -30 -2 -17 -4z"/>
<path d="M4516 1354 c-10 -25 -6 -30 7 -13 7 9 21 19 32 22 16 4 14 5 -6 6
-16 1 -29 -5 -33 -15z"/>
<path d="M5340 1341 c0 -6 -4 -11 -10 -11 -5 0 -26 -11 -46 -25 -21 -14 -49
-28 -63 -32 -14 -3 -28 -9 -31 -13 -3 -4 -36 -24 -75 -45 -71 -38 -107 -63
-72 -49 17 6 18 5 6 -14 -7 -11 -17 -20 -22 -19 -5 1 -11 -3 -14 -9 -5 -15 26
-46 38 -38 6 3 16 0 24 -6 12 -10 15 -9 15 5 0 12 6 16 20 12 24 -6 25 1 5 27
-18 24 -20 45 -3 28 7 -7 19 -12 28 -12 12 0 13 2 1 9 -19 12 -5 32 17 24 16
-6 16 -6 -1 11 -15 15 -16 36 -1 36 3 0 2 -5 -2 -11 -9 -15 38 0 48 15 6 8 8
7 8 -1 0 -7 7 -13 15 -13 9 0 12 6 9 15 -4 10 0 15 10 15 10 0 16 7 14 16 -2
10 3 19 11 22 9 3 11 0 6 -8 -5 -9 -4 -11 4 -6 6 4 9 12 6 17 -4 5 -1 9 5 9
19 0 71 48 60 55 -5 3 -10 1 -10 -4z"/>
<path d="M4715 1329 c7 -10 55 -18 55 -9 0 4 -13 10 -29 12 -17 2 -28 1 -26
-3z"/>
<path d="M4430 1320 c0 -5 5 -10 11 -10 5 0 7 5 4 10 -3 6 -8 10 -11 10 -2 0
-4 -4 -4 -10z"/>
<path d="M2366 1285 c4 -8 8 -15 10 -15 2 0 4 7 4 15 0 8 -4 15 -10 15 -5 0
-7 -7 -4 -15z"/>
<path d="M4520 1292 c0 -6 -8 -13 -17 -15 -16 -4 -16 -5 -1 -6 18 -1 34 16 24
26 -3 4 -6 1 -6 -5z"/>
<path d="M4620 1290 c-13 -9 -13 -10 0 -10 8 0 22 5 30 10 13 9 13 10 0 10 -8
0 -22 -5 -30 -10z"/>
<path d="M4545 1280 c-3 -5 1 -10 7 -13 16 -5 48 3 48 12 0 9 -49 10 -55 1z"/>
<path d="M2385 1210 c3 -5 10 -10 16 -10 5 0 9 5 9 10 0 6 -7 10 -16 10 -8 0
-12 -4 -9 -10z"/>
<path d="M2578 1213 c7 -3 16 -2 19 1 4 3 -2 6 -13 5 -11 0 -14 -3 -6 -6z"/>
<path d="M4520 1210 c0 -5 5 -10 10 -10 6 0 10 5 10 10 0 6 -4 10 -10 10 -5 0
-10 -4 -10 -10z"/>
<path d="M4378 1203 c7 -3 16 -2 19 1 4 3 -2 6 -13 5 -11 0 -14 -3 -6 -6z"/>
<path d="M2598 1183 c6 -2 18 -2 25 0 6 3 1 5 -13 5 -14 0 -19 -2 -12 -5z"/>
<path d="M4628 1163 c7 -3 16 -2 19 1 4 3 -2 6 -13 5 -11 0 -14 -3 -6 -6z"/>
<path d="M4545 1150 c3 -5 8 -10 11 -10 2 0 4 5 4 10 0 6 -5 10 -11 10 -5 0
-7 -4 -4 -10z"/>
<path d="M4570 1139 c0 -5 5 -7 10 -4 6 3 10 8 10 11 0 2 -4 4 -10 4 -5 0 -10
-5 -10 -11z"/>
<path d="M4986 1102 c-3 -6 -20 -13 -36 -17 -17 -4 -28 -11 -24 -16 3 -5 -4
-9 -15 -9 -24 0 -37 -18 -23 -32 8 -8 15 -8 24 0 16 12 63 -21 53 -38 -3 -5
-1 -10 4 -10 15 0 14 23 -1 38 -9 9 -9 12 3 12 19 0 41 49 30 68 -5 9 -11 11
-15 4z"/>
<path d="M2708 1073 c7 -3 16 -2 19 1 4 3 -2 6 -13 5 -11 0 -14 -3 -6 -6z"/>
<path d="M2821 1064 c0 -11 3 -14 6 -6 3 7 2 16 -1 19 -3 4 -6 -2 -5 -13z"/>
<path d="M2748 1043 c7 -3 16 -2 19 1 4 3 -2 6 -13 5 -11 0 -14 -3 -6 -6z"/>
<path d="M4832 1018 c2 -14 11 -24 23 -26 15 -2 17 -1 6 6 -8 6 -11 17 -8 26
4 10 1 16 -9 16 -10 0 -14 -8 -12 -22z"/>
<path d="M2598 1013 c7 -3 16 -2 19 1 4 3 -2 6 -13 5 -11 0 -14 -3 -6 -6z"/>
<path d="M4940 970 c0 -6 -9 -10 -19 -10 -14 0 -18 -5 -14 -20 7 -25 25 -26
46 -2 21 23 21 28 2 36 -8 3 -15 1 -15 -4z"/>
<path d="M4844 928 c-3 -4 4 -8 15 -8 12 0 21 4 21 8 0 5 -7 9 -15 9 -9 0 -18
-4 -21 -9z"/>
<path d="M4845 880 c-3 -5 3 -10 15 -10 12 0 18 5 15 10 -3 6 -10 10 -15 10
-5 0 -12 -4 -15 -10z"/>
<path d="M4860 825 c0 -8 5 -15 10 -15 6 0 10 7 10 15 0 8 -4 15 -10 15 -5 0
-10 -7 -10 -15z"/>
<path d="M2980 790 c0 -6 7 -10 15 -10 8 0 15 2 15 4 0 2 -7 6 -15 10 -8 3
-15 1 -15 -4z"/>
</g>
</svg>
