<?xml version="1.0" standalone="no"?>
<!DOCTYPE svg PUBLIC "-//W3C//DTD SVG 20010904//EN"
 "http://www.w3.org/TR/2001/REC-SVG-20010904/DTD/svg10.dtd">
<svg version="1.0" xmlns="http://www.w3.org/2000/svg"
 width="300.000000pt" height="300.000000pt" viewBox="0 0 300.000000 300.000000"
 preserveAspectRatio="xMidYMid meet">
<metadata>
Created by potrace 1.10, written by Peter Selinger 2001-2011
</metadata>
<g transform="translate(0.000000,300.000000) scale(0.100000,-0.100000)"
fill="#000000" stroke="none">
<path d="M90 2987 c0 -5 -12 -8 -27 -7 -53 4 -68 -3 -23 -10 27 -4 66 -2 96 5
32 7 60 8 75 3 26 -10 73 -16 161 -22 31 -1 68 -10 82 -19 29 -20 40 -22 30
-6 -14 23 -93 49 -146 49 -83 0 -89 1 -84 9 3 4 -33 7 -80 7 -46 0 -84 -4 -84
-9z"/>
<path d="M147 2931 c-3 -11 2 -26 10 -32 12 -10 13 -8 9 16 -7 36 -12 41 -19
16z"/>
<path d="M25 2910 c-19 -7 -19 -8 5 -18 15 -6 32 -6 43 0 21 11 23 22 2 14 -8
-3 -15 -1 -15 4 0 12 -8 12 -35 0z"/>
<path d="M505 2910 c3 -5 8 -10 11 -10 2 0 4 5 4 10 0 6 -5 10 -11 10 -5 0 -7
-4 -4 -10z"/>
<path d="M420 2900 c0 -7 -7 -10 -15 -6 -8 3 -15 0 -15 -6 0 -6 -15 -25 -32
-41 l-33 -29 30 17 30 18 -25 -29 c-14 -16 -31 -33 -38 -37 -6 -4 -18 -20 -26
-35 l-14 -27 67 -2 c88 -3 183 -32 195 -59 5 -12 28 -31 50 -43 23 -11 79 -48
126 -81 46 -32 86 -57 89 -55 2 3 2 7 0 9 -22 18 -178 127 -215 149 -25 15
-45 29 -43 31 2 2 45 0 96 -5 89 -8 180 -40 198 -69 4 -6 10 -8 15 -5 5 3 35
-27 66 -67 32 -40 61 -75 65 -78 3 -3 13 -18 22 -35 9 -16 16 -25 17 -19 0 14
-79 134 -88 134 -4 0 -18 16 -31 35 -24 35 -103 85 -169 106 -21 6 -42 17 -47
24 -6 7 -29 16 -50 19 l-40 5 38 -10 c20 -6 37 -14 37 -18 0 -11 -120 5 -133
18 -6 6 -26 11 -44 11 -29 0 -33 2 -24 17 5 10 29 23 53 29 l43 12 -36 1 c-22
1 -46 -7 -62 -19 -30 -24 -43 -25 -64 -5 -8 8 -19 12 -25 9 -6 -4 -5 -10 3
-15 19 -12 6 -11 -25 0 -16 7 -26 7 -28 -1 -2 -5 -13 -9 -23 -7 -17 4 -10 14
40 62 33 31 51 54 41 50 -13 -4 -17 -3 -12 5 4 7 18 12 31 12 30 0 55 10 55
22 0 5 -5 6 -10 3 -6 -4 -17 -1 -25 5 -12 10 -15 10 -15 0z"/>
<path d="M531 2890 c-1 -9 5 -22 12 -29 10 -10 5 -11 -25 -6 -51 10 -48 -1 3
-15 22 -6 77 -39 122 -74 45 -35 111 -78 147 -95 62 -31 64 -31 41 -7 -13 13
-29 22 -35 20 -12 -5 -30 7 -132 85 -88 67 -104 83 -97 94 3 6 1 7 -6 3 -7 -4
-15 2 -20 16 -6 14 -10 17 -10 8z"/>
<path d="M137 2860 c3 -11 7 -20 8 -20 1 0 5 9 8 20 3 12 0 20 -8 20 -8 0 -11
-8 -8 -20z"/>
<path d="M201 2854 c0 -11 3 -14 6 -6 3 7 2 16 -1 19 -3 4 -6 -2 -5 -13z"/>
<path d="M241 2800 c1 -80 17 -112 18 -35 0 33 -4 67 -9 75 -7 11 -10 -1 -9
-40z"/>
<path d="M107 2833 c-21 -20 9 -132 35 -134 10 -1 21 -2 26 -3 12 -4 135 -17
162 -18 14 -1 42 -18 66 -41 30 -28 44 -35 49 -26 5 7 4 10 -3 5 -6 -3 -13 2
-16 12 -9 29 -58 70 -91 77 -29 7 -29 7 -10 -9 19 -15 19 -16 -8 -6 -16 5 -41
10 -57 10 -16 0 -32 5 -35 10 -3 6 -24 8 -45 5 -48 -6 -54 3 -53 72 1 50 -4
62 -20 46z"/>
<path d="M420 2829 c-21 -6 -19 -7 13 -6 20 0 37 1 37 3 0 7 -29 10 -50 3z"/>
<path d="M690 2785 c0 -1 16 -12 36 -24 19 -12 32 -26 29 -31 -4 -6 -3 -10 2
-9 24 4 40 -6 101 -63 36 -35 62 -57 58 -50 -4 6 -3 12 2 12 13 0 23 -28 13
-32 -5 -2 15 -34 45 -71 56 -72 74 -79 27 -11 -16 22 -37 57 -48 78 -11 21
-36 49 -56 62 -21 13 -43 32 -51 42 -7 11 -28 27 -45 36 -18 9 -33 21 -33 26
0 5 -11 12 -25 16 -14 3 -23 9 -21 13 3 4 -4 8 -15 8 -10 1 -19 0 -19 -2z"/>
<path d="M45 2760 c3 -5 8 -10 11 -10 2 0 4 5 4 10 0 6 -5 10 -11 10 -5 0 -7
-4 -4 -10z"/>
<path d="M71 2744 c0 -11 3 -14 6 -6 3 7 2 16 -1 19 -3 4 -6 -2 -5 -13z"/>
<path d="M73 2704 c-43 -19 -42 -25 2 -11 19 6 35 14 35 19 0 4 -1 8 -2 7 -2
0 -18 -7 -35 -15z"/>
<path d="M0 2672 c0 -21 42 -31 100 -25 38 4 56 9 48 14 -7 5 -37 6 -65 2 -37
-4 -53 -2 -53 6 0 6 -7 11 -15 11 -8 0 -15 -3 -15 -8z"/>
<path d="M241 2623 c29 -27 73 -67 98 -91 61 -58 96 -76 51 -26 -19 21 -46 47
-59 58 -13 10 -42 39 -66 63 -24 23 -50 43 -59 43 -11 0 2 -18 35 -47z"/>
<path d="M97 2630 c13 -13 56 -23 49 -12 -3 5 -17 12 -32 15 -14 2 -22 1 -17
-3z"/>
<path d="M0 2617 c0 -5 8 -7 19 -4 10 2 27 0 37 -6 15 -7 16 -7 8 2 -14 15
-64 22 -64 8z"/>
<path d="M478 2603 c6 -2 18 -2 25 0 6 3 1 5 -13 5 -14 0 -19 -2 -12 -5z"/>
<path d="M811 2593 c8 -10 40 -49 73 -88 32 -38 62 -81 67 -94 5 -13 12 -21
15 -18 11 11 -30 77 -91 147 -33 38 -64 69 -69 69 -5 1 -2 -7 5 -16z"/>
<path d="M0 2588 c0 -23 10 -28 35 -16 18 8 36 5 80 -11 72 -27 85 -19 19 11
-63 27 -134 36 -134 16z"/>
<path d="M588 2588 c6 -6 18 -8 28 -6 14 3 12 5 -9 10 -19 3 -25 2 -19 -4z"/>
<path d="M435 2515 c65 -59 234 -165 264 -165 7 0 25 -8 39 -19 15 -10 38 -24
52 -31 25 -13 25 -13 6 8 -10 12 -48 35 -85 53 -36 18 -90 44 -118 58 -29 14
-87 56 -129 94 -98 85 -122 88 -29 2z"/>
<path d="M450 2576 c0 -2 7 -7 16 -10 8 -3 12 -2 9 4 -6 10 -25 14 -25 6z"/>
<path d="M515 2559 c-28 -8 -27 -8 7 -4 21 2 40 -1 43 -6 4 -5 14 -9 23 -9 10
0 12 3 7 9 -16 15 -48 19 -80 10z"/>
<path d="M790 2562 c0 -4 10 -13 23 -21 22 -14 22 -14 3 8 -20 22 -26 25 -26
13z"/>
<path d="M40 2551 c0 -5 19 -18 43 -29 158 -73 224 -105 240 -119 9 -9 20 -13
24 -9 6 6 -15 25 -62 53 -22 14 -84 44 -155 75 -25 11 -53 24 -62 29 -22 11
-28 11 -28 0z"/>
<path d="M281 2529 c11 -11 23 -18 26 -15 9 8 -17 36 -33 36 -10 0 -7 -7 7
-21z"/>
<path d="M66 2505 c4 -8 11 -15 16 -15 6 0 5 6 -2 15 -7 8 -14 15 -16 15 -2 0
-1 -7 2 -15z"/>
<path d="M525 2510 c-3 -5 -5 -10 -3 -11 2 0 15 -2 31 -4 15 -2 53 -15 84 -29
31 -15 58 -24 61 -21 7 7 6 7 -63 37 -82 35 -102 41 -110 28z"/>
<path d="M306 2503 c-11 -11 67 -76 187 -156 60 -39 104 -73 98 -75 -6 -2 -45
3 -88 12 -75 14 -206 36 -248 41 -32 4 -59 17 -73 37 -7 10 -18 16 -23 13 -5
-3 -6 0 -3 8 3 8 -2 21 -10 30 -9 9 -16 20 -16 25 0 5 -6 15 -14 21 -12 10
-13 8 -9 -11 4 -13 11 -26 16 -30 6 -3 12 -16 14 -28 5 -33 69 -90 101 -90 32
0 246 -33 352 -54 41 -8 118 -22 170 -32 52 -10 98 -21 103 -24 15 -12 -23
-80 -59 -104 -43 -29 -68 -62 -58 -78 5 -7 3 -8 -6 -3 -9 6 -10 2 -5 -15 7
-20 5 -22 -18 -16 -20 5 -29 1 -37 -13 -12 -24 -63 -51 -108 -60 l-34 -6 28
-25 c26 -24 26 -24 15 -2 -11 20 -9 22 12 22 12 0 28 5 35 12 17 17 16 -13 0
-31 -7 -8 0 -6 15 4 16 10 26 24 23 31 -3 8 1 14 8 14 8 0 16 9 19 20 3 13 11
18 20 14 19 -7 57 29 57 55 0 10 23 38 50 61 28 23 50 51 50 61 0 10 5 21 10
24 6 4 8 11 5 16 -4 5 -2 9 3 9 4 0 16 17 25 38 17 36 17 37 -1 15 l-19 -22
-33 20 c-26 16 -31 17 -27 5 4 -9 2 -16 -4 -16 -14 0 -148 30 -169 38 -8 3
-20 4 -26 4 -5 -1 -23 12 -40 30 -28 30 -26 31 21 12 8 -3 15 -1 15 5 0 6 -7
11 -15 11 -9 0 -28 8 -43 17 -26 17 -26 17 -13 0 17 -22 -2 -23 -20 -1 -8 9
-45 37 -82 62 -38 25 -84 60 -102 79 -34 35 -38 37 -49 26z"/>
<path d="M828 2473 c3 -15 34 -54 76 -95 65 -63 69 -69 49 -74 -13 -4 -23 -10
-23 -15 0 -13 -32 2 -68 33 -35 30 -47 34 -57 18 -3 -5 -1 -10 6 -10 16 0 79
-42 79 -52 0 -17 -33 -7 -51 15 -14 17 -18 18 -19 6 0 -22 32 -49 58 -49 12 0
37 8 56 17 29 14 40 14 62 4 36 -16 42 -6 7 13 -25 13 -26 15 -7 16 12 0 27
-7 34 -15 7 -8 19 -15 27 -15 21 0 85 -35 116 -64 32 -29 40 -31 82 -12 l30
14 -40 -5 c-32 -4 -45 0 -65 19 -25 22 -80 61 -90 64 -3 0 -18 6 -35 13 -16 7
-40 14 -51 14 -13 1 -19 7 -17 15 3 6 -1 12 -9 12 -18 0 -111 98 -126 133 -15
35 -31 35 -24 0z"/>
<path d="M547 2469 c7 -7 15 -10 18 -7 3 3 -2 9 -12 12 -14 6 -15 5 -6 -5z"/>
<path d="M430 2463 c0 -12 28 -30 38 -24 6 4 1 11 -14 18 -13 6 -24 9 -24 6z"/>
<path d="M487 2423 c-3 -5 6 -9 20 -10 19 -1 22 1 12 8 -17 11 -26 11 -32 2z"/>
<path d="M1528 2318 c5 -5 16 -8 23 -6 8 3 3 7 -10 11 -17 4 -21 3 -13 -5z"/>
<path d="M1258 2313 c6 -2 18 -2 25 0 6 3 1 5 -13 5 -14 0 -19 -2 -12 -5z"/>
<path d="M1628 2313 c17 -2 47 -2 65 0 17 2 3 4 -33 4 -36 0 -50 -2 -32 -4z"/>
<path d="M1730 2310 c0 -5 5 -10 11 -10 5 0 7 5 4 10 -3 6 -8 10 -11 10 -2 0
-4 -4 -4 -10z"/>
<path d="M1955 2310 c-45 -4 -58 -8 -35 -9 19 -2 38 -3 41 -3 4 1 35 2 68 3
34 1 64 6 67 11 6 9 -30 8 -141 -2z"/>
<path d="M2110 2310 c0 -15 -45 -30 -129 -41 -140 -20 -137 -19 -91 -30 31 -7
30 -8 -14 -5 -27 2 -61 0 -77 -4 -20 -6 -29 -4 -33 6 -9 24 -84 18 -117 -10
-19 -16 -25 -27 -18 -32 7 -4 19 3 28 15 19 24 91 35 98 14 3 -9 -9 -13 -40
-13 -29 0 -47 -5 -50 -14 -4 -11 5 -11 56 0 34 7 91 15 127 19 36 4 74 12 85
17 13 8 20 8 23 -1 2 -6 8 -11 13 -11 4 0 6 8 2 18 -6 16 -5 16 14 0 11 -10
26 -18 34 -17 8 0 6 4 -6 9 -19 8 -19 9 3 9 12 1 25 8 28 16 4 8 14 15 23 15
9 0 22 5 27 10 7 7 19 7 35 2 15 -6 34 -5 54 3 60 25 377 -9 349 -37 -3 -4 5
-4 17 -1 23 6 22 7 -11 21 -19 8 -37 14 -40 14 -3 0 -27 8 -55 16 -64 20 -278
24 -270 5 2 -8 -4 -13 -15 -13 -11 0 -20 7 -20 15 0 8 -7 15 -15 15 -8 0 -15
-5 -15 -10z m217 -6 c-3 -3 -12 -4 -19 -1 -8 3 -5 6 6 6 11 1 17 -2 13 -5z"/>
<path d="M1835 2300 c10 -16 -89 -23 -265 -18 -112 3 -152 2 -110 -3 112 -14
345 -13 371 2 13 7 31 12 39 10 8 -2 12 0 9 3 -10 11 -50 16 -44 6z"/>
<path d="M130 2253 c13 -18 25 -33 27 -33 8 0 -17 38 -33 51 -11 9 -9 2 6 -18z"/>
<path d="M2710 2261 c0 -6 4 -13 10 -16 6 -3 7 1 4 9 -7 18 -14 21 -14 7z"/>
<path d="M265 2250 c-4 -6 -11 -7 -17 -4 -7 4 -8 2 -4 -5 6 -9 11 -9 22 0 14
11 18 19 10 19 -3 0 -8 -5 -11 -10z"/>
<path d="M963 2245 c-14 -10 -23 -28 -25 -53 -2 -24 -8 -36 -16 -34 -10 2 -10
-2 -2 -18 13 -25 23 -25 41 -2 13 15 12 16 -3 3 -22 -17 -22 -13 -2 34 8 20
13 42 11 48 -2 7 3 17 12 24 23 18 9 16 -16 -2z"/>
<path d="M1478 2253 c12 -2 30 -2 40 0 9 3 -1 5 -23 4 -22 0 -30 -2 -17 -4z"/>
<path d="M1548 2253 c6 -2 18 -2 25 0 6 3 1 5 -13 5 -14 0 -19 -2 -12 -5z"/>
<path d="M2740 2251 c0 -6 5 -11 10 -11 6 0 17 -12 23 -27 15 -34 58 -103 63
-103 7 0 -20 55 -48 97 -30 45 -48 61 -48 44z"/>
<path d="M996 2235 c-9 -26 -7 -32 5 -12 6 10 9 21 6 23 -2 3 -7 -2 -11 -11z"/>
<path d="M2078 2243 c12 -2 30 -2 40 0 9 3 -1 5 -23 4 -22 0 -30 -2 -17 -4z"/>
<path d="M2178 2243 c7 -3 16 -2 19 1 4 3 -2 6 -13 5 -11 0 -14 -3 -6 -6z"/>
<path d="M2226 2238 c3 -5 10 -6 15 -3 13 9 11 12 -6 12 -8 0 -12 -4 -9 -9z"/>
<path d="M2280 2238 c0 -5 14 -8 30 -8 17 0 30 4 30 10 0 5 -13 8 -30 7 -16
-1 -30 -5 -30 -9z"/>
<path d="M2594 2235 c11 -8 22 -12 25 -9 6 6 -19 24 -34 24 -5 -1 -1 -7 9 -15z"/>
<path d="M1030 2227 c0 -7 -11 -24 -25 -37 -14 -13 -25 -28 -25 -34 0 -6 10 0
23 14 43 48 48 58 37 65 -5 3 -10 0 -10 -8z"/>
<path d="M2385 2230 c3 -5 8 -10 11 -10 2 0 4 5 4 10 0 6 -5 10 -11 10 -5 0
-7 -4 -4 -10z"/>
<path d="M2640 2230 c0 -5 5 -10 11 -10 5 0 7 5 4 10 -3 6 -8 10 -11 10 -2 0
-4 -4 -4 -10z"/>
<path d="M2674 2225 c1 -10 17 -29 34 -44 17 -14 47 -46 68 -71 20 -25 40 -44
43 -43 3 1 6 -15 6 -35 1 -20 5 -36 10 -35 16 2 36 -25 24 -32 -6 -4 0 -16 15
-30 13 -12 23 -31 22 -41 -2 -11 3 -32 9 -49 20 -49 5 -219 -25 -277 -13 -27
-27 -48 -32 -48 -4 0 -8 -10 -8 -22 0 -12 -3 -18 -7 -15 -4 4 -14 -8 -22 -26
-18 -38 -137 -147 -161 -147 -9 0 -21 -5 -26 -10 -6 -6 -25 -12 -42 -13 -18
-1 -32 -7 -32 -13 0 -21 -67 -45 -236 -85 -53 -13 -136 -8 -141 8 -3 8 6 12
24 12 58 -1 219 27 269 46 l39 15 -35 -7 c-19 -4 -45 -7 -57 -7 -13 -1 -23 -3
-23 -6 0 -3 -8 -6 -17 -6 -10 0 -31 -3 -46 -7 -19 -5 -26 -4 -22 3 9 15 -4 12
-22 -5 -9 -10 -20 -12 -27 -7 -6 5 -24 8 -41 6 -16 -1 -45 -3 -63 -3 -18 -1
-31 -5 -28 -10 3 -5 -1 -11 -9 -15 -8 -3 -14 0 -12 7 1 7 -10 10 -33 7 -86 -9
-304 6 -294 21 3 5 1 9 -4 9 -6 0 -12 -7 -16 -15 -3 -9 -19 -15 -41 -15 -19 0
-35 -4 -35 -10 0 -5 12 -10 28 -10 19 0 23 -3 13 -9 -10 -7 -7 -9 12 -8 25 2
31 9 28 30 0 4 3 7 8 7 14 0 21 -28 8 -34 -7 -3 1 -3 16 1 20 4 32 0 42 -13 7
-11 17 -16 21 -11 4 4 2 7 -4 7 -7 0 -12 3 -12 8 0 10 58 13 64 3 3 -5 17 -6
31 -4 13 3 22 9 19 14 -3 5 2 9 11 9 10 0 13 -5 9 -12 -5 -8 10 -10 59 -5 47
4 67 3 70 -6 2 -7 14 0 29 17 18 21 25 25 25 13 0 -10 -6 -17 -14 -17 -7 0
-13 -4 -13 -10 0 -13 17 -13 25 1 5 7 13 5 25 -6 19 -18 23 -18 125 -11 106 6
160 20 202 52 50 38 84 57 90 50 7 -6 79 30 88 44 3 5 11 10 17 10 6 0 5 -7
-3 -17 -13 -17 -12 -17 6 -4 59 43 121 113 150 171 18 36 43 84 55 108 16 30
23 63 24 110 2 37 6 74 9 83 4 8 1 32 -8 52 -8 20 -15 55 -15 78 0 37 -2 41
-21 36 -17 -4 -18 -3 -8 9 9 11 8 18 -5 32 -9 10 -16 24 -16 31 0 7 -5 9 -12
5 -8 -5 -8 -2 1 10 12 15 12 17 0 14 -9 -2 -15 7 -17 25 -2 15 -7 25 -12 22
-5 -3 -11 4 -15 15 -3 11 -11 20 -17 20 -6 0 -37 27 -69 61 -32 34 -56 53 -55
44z m66 -890 c-7 -8 -18 -15 -24 -15 -6 0 -2 7 8 15 25 19 32 19 16 0z m-713
-141 c-3 -3 -12 -4 -19 -1 -8 3 -5 6 6 6 11 1 17 -2 13 -5z m373 2 c0 -2 -9
-6 -20 -9 -11 -3 -18 -1 -14 4 5 9 34 13 34 5z"/>
<path d="M1057 2223 c-2 -4 -8 -22 -11 -40 -7 -30 -25 -46 -55 -47 -7 -1 -20
-11 -29 -24 -8 -13 -11 -22 -6 -21 25 4 45 -2 38 -13 -4 -7 -3 -8 5 -4 6 4 9
11 6 15 -7 12 30 51 48 51 12 0 13 -4 4 -24 -8 -16 -14 -20 -19 -13 -4 6 -10
8 -15 4 -4 -5 -1 -12 7 -17 16 -10 64 35 55 51 -4 5 1 9 9 9 8 0 17 -8 19 -17
3 -11 5 -8 6 9 1 25 -1 27 -25 18 -14 -6 -27 -10 -30 -10 -9 0 -3 37 8 48 9 9
9 15 1 23 -6 6 -13 7 -16 2z m-68 -122 c-15 -5 -22 6 -14 19 6 9 10 9 16 -1 5
-8 4 -15 -2 -18z"/>
<path d="M1300 2220 c-13 -8 -12 -10 3 -10 9 0 17 5 17 10 0 12 -1 12 -20 0z"/>
<path d="M1480 2220 c29 -6 31 -8 10 -9 -25 -3 -25 -3 5 -13 21 -8 30 -8 33 1
2 6 9 8 15 5 9 -5 9 -4 0 6 -6 7 -31 13 -55 15 -41 2 -41 2 -8 -5z"/>
<path d="M1559 2217 c6 -8 7 -18 3 -23 -4 -5 -3 -5 2 -1 16 13 15 37 -1 37
-12 0 -13 -3 -4 -13z"/>
<path d="M2288 2213 c6 -2 18 -2 25 0 6 3 1 5 -13 5 -14 0 -19 -2 -12 -5z"/>
<path d="M2425 2210 c28 -12 37 -12 30 0 -3 6 -16 10 -28 9 -21 0 -21 -1 -2
-9z"/>
<path d="M1423 2202 c-13 -2 -23 -8 -23 -13 0 -9 37 -3 49 7 8 7 -4 10 -26 6z"/>
<path d="M1952 2190 c-11 -18 -10 -20 15 -19 16 1 21 3 11 6 -10 2 -15 10 -11
19 8 20 0 17 -15 -6z"/>
<path d="M2736 2197 c3 -10 9 -15 12 -12 3 3 0 11 -7 18 -10 9 -11 8 -5 -6z"/>
<path d="M578 2193 c6 -2 18 -2 25 0 6 3 1 5 -13 5 -14 0 -19 -2 -12 -5z"/>
<path d="M921 2184 c0 -11 3 -14 6 -6 3 7 2 16 -1 19 -3 4 -6 -2 -5 -13z"/>
<path d="M1085 2189 c-4 -6 -5 -12 -2 -15 2 -3 7 2 10 11 7 17 1 20 -8 4z"/>
<path d="M1345 2189 c-22 -5 -44 -15 -50 -21 -7 -8 -4 -9 10 -4 11 4 32 10 48
13 15 3 30 10 33 14 3 5 4 9 2 8 -2 -1 -21 -5 -43 -10z"/>
<path d="M1791 2182 c0 -10 3 -12 6 -5 3 10 12 9 35 -3 17 -9 27 -11 24 -5 -4
6 0 11 10 11 33 0 5 12 -35 15 -33 3 -41 0 -40 -13z"/>
<path d="M2020 2190 c0 -5 5 -10 10 -10 6 0 10 5 10 10 0 6 -4 10 -10 10 -5 0
-10 -4 -10 -10z"/>
<path d="M1740 2186 c0 -2 9 -6 20 -9 11 -3 20 -1 20 4 0 5 -9 9 -20 9 -11 0
-20 -2 -20 -4z"/>
<path d="M2080 2175 c-10 -12 -7 -13 17 -6 15 4 35 6 43 3 8 -3 12 -2 9 2 -14
15 -57 15 -69 1z"/>
<path d="M2236 2179 c2 -4 -6 -9 -18 -11 -19 -3 -17 -5 9 -9 18 -3 30 -1 26 4
-3 5 1 13 8 18 10 6 8 8 -8 6 -12 0 -20 -4 -17 -8z"/>
<path d="M2280 2179 c0 -5 9 -9 20 -9 11 0 20 2 20 4 0 2 -9 6 -20 9 -11 3
-20 1 -20 -4z"/>
<path d="M481 2166 c-8 -10 -9 -16 -1 -21 6 -4 9 -1 8 6 -2 6 3 14 11 17 8 3
11 0 7 -7 -5 -7 -1 -9 9 -4 13 5 14 7 3 14 -18 12 -24 11 -37 -5z"/>
<path d="M1141 2171 c-11 -7 -11 -9 0 -14 12 -4 11 -7 -1 -16 -11 -8 -12 -11
-2 -11 7 0 10 -5 6 -12 -4 -7 -3 -8 4 -4 7 4 12 18 12 31 0 13 6 26 13 28 8 4
7 6 -3 6 -8 0 -21 -3 -29 -8z"/>
<path d="M1508 2168 c-6 -3 -18 -4 -27 -1 -14 4 -14 3 -1 -5 8 -6 19 -8 24 -5
6 4 26 6 46 5 19 -1 49 2 65 7 24 7 18 8 -33 7 -35 0 -68 -4 -74 -8z"/>
<path d="M1699 2173 c-1 -5 -1 -11 0 -15 0 -5 -16 -8 -37 -8 -21 0 -44 -6 -51
-12 -11 -11 -12 -10 -6 1 6 10 4 12 -6 5 -8 -5 -42 -8 -76 -6 -35 1 -63 -2
-63 -7 0 -4 25 -7 56 -5 31 2 65 -1 75 -6 12 -7 22 -6 32 4 11 11 17 12 26 3
8 -8 14 -8 19 -2 4 6 20 10 36 10 16 1 32 7 34 15 3 9 -1 11 -11 7 -9 -3 -19
-2 -22 3 -3 4 1 11 7 13 10 4 10 6 1 6 -7 1 -14 -2 -14 -6z"/>
<path d="M1905 2170 c-3 -6 1 -7 9 -4 18 7 21 14 7 14 -6 0 -13 -4 -16 -10z"/>
<path d="M2346 2165 c19 -15 19 -16 -1 -14 -11 1 -24 0 -30 -1 -12 -3 -33 -6
-58 -9 -10 0 -16 -5 -13 -9 6 -11 64 -3 72 10 3 5 12 4 20 -3 12 -10 18 -8 29
7 8 10 14 24 15 29 0 6 -4 4 -9 -4 -6 -9 -11 -10 -15 -2 -4 6 -12 11 -19 11
-6 0 -2 -7 9 -15z"/>
<path d="M2401 2162 c-17 -14 -19 -19 -7 -19 8 0 18 7 21 15 4 11 14 12 43 7
20 -4 51 -8 67 -9 25 -1 30 -5 29 -24 0 -17 3 -21 15 -16 9 4 25 7 37 7 11 0
21 5 21 11 0 8 -9 11 -22 8 -12 -2 -29 4 -38 12 -10 10 -40 19 -79 22 -52 4
-67 2 -87 -14z"/>
<path d="M1234 2154 c5 -13 -71 -62 -108 -70 -11 -2 -24 -9 -30 -15 -8 -9 -8
-10 1 -5 7 4 22 9 33 11 11 2 32 11 47 19 16 9 45 24 65 33 45 21 47 29 12 36
-18 3 -24 1 -20 -9z"/>
<path d="M1775 2151 c-2 -5 7 -8 20 -8 14 0 25 2 25 6 0 10 -39 11 -45 2z"/>
<path d="M2140 2151 c0 -5 6 -11 13 -14 8 -2 12 -31 13 -93 2 -116 1 -112 24
-119 11 -4 18 -11 15 -16 -3 -5 1 -6 8 -3 22 8 28 43 12 80 -7 17 -12 49 -10
70 3 49 -10 79 -42 93 -29 13 -33 14 -33 2z m74 -210 c-9 -9 -32 22 -27 36 5
12 9 11 19 -8 7 -13 11 -26 8 -28z"/>
<path d="M1370 2139 c0 -5 5 -7 10 -4 6 3 10 8 10 11 0 2 -4 4 -10 4 -5 0 -10
-5 -10 -11z"/>
<path d="M1933 2143 c9 -2 23 -2 30 0 6 3 -1 5 -18 5 -16 0 -22 -2 -12 -5z"/>
<path d="M1434 2131 c3 -5 -2 -8 -11 -7 -9 0 -18 -4 -20 -10 -2 -7 5 -10 22
-7 24 5 37 33 14 33 -5 0 -8 -4 -5 -9z"/>
<path d="M770 2110 c-14 -11 -21 -20 -17 -20 5 0 20 9 34 20 14 11 22 20 17
20 -5 0 -20 -9 -34 -20z"/>
<path d="M1264 2118 c-4 -7 -4 -10 1 -6 12 11 47 -12 41 -27 -3 -8 -1 -17 4
-20 6 -4 10 -2 10 3 0 5 12 7 28 5 26 -4 25 -4 -6 13 -19 10 -36 23 -39 31 -6
16 -30 17 -39 1z"/>
<path d="M890 2110 c0 -5 5 -10 11 -10 5 0 7 5 4 10 -3 6 -8 10 -11 10 -2 0
-4 -4 -4 -10z"/>
<path d="M1370 2110 c-13 -8 -12 -10 3 -10 9 0 17 5 17 10 0 12 -1 12 -20 0z"/>
<path d="M2595 2109 c-4 -5 -1 -9 4 -9 13 0 50 -40 51 -55 1 -5 8 -18 17 -27
8 -9 12 -21 9 -27 -4 -5 -2 -12 3 -15 5 -3 7 -14 4 -24 -2 -10 5 -26 16 -36
25 -23 25 -21 6 33 -15 44 -15 43 -15 67 0 9 -5 12 -12 8 -9 -5 -9 -2 1 9 10
13 11 20 1 31 -20 25 -79 56 -85 45z"/>
<path d="M550 2100 c-8 -5 -10 -10 -5 -10 6 0 17 5 25 10 8 5 11 10 5 10 -5 0
-17 -5 -25 -10z"/>
<path d="M1079 2089 c-23 -19 -23 -20 -2 -10 12 6 25 16 28 21 10 16 -1 12
-26 -11z"/>
<path d="M1231 2102 c-7 -2 -22 -13 -33 -24 -10 -10 -24 -16 -31 -12 -7 4 -9
4 -5 -1 16 -18 -12 -33 -44 -24 -17 4 -49 7 -72 4 -23 -2 -68 -5 -101 -6 -67
-2 -101 -16 -162 -65 -23 -19 -43 -34 -46 -34 -2 0 -33 -30 -70 -66 -73 -74
-89 -77 -124 -25 -13 19 -23 29 -23 22 0 -20 -22 -12 -69 27 -111 91 -194 132
-279 137 -37 2 -74 6 -82 9 -8 3 -32 8 -53 11 -33 4 -38 3 -35 -12 2 -14 25
-21 107 -34 166 -27 235 -60 354 -168 93 -86 136 -110 259 -150 98 -33 138
-57 138 -83 0 -33 59 -49 81 -22 11 13 9 14 -13 9 -21 -5 -27 -2 -33 16 -8 23
-65 82 -73 74 -3 -2 -17 2 -33 11 -16 8 -29 12 -29 9 0 -2 -15 4 -32 15 -36
22 -53 26 -43 10 11 -17 -69 21 -137 67 -64 42 -88 63 -72 63 4 0 49 -27 100
-60 95 -61 116 -72 94 -45 -11 13 -10 14 6 9 10 -3 4 3 -13 15 -18 11 -33 25
-33 31 0 6 16 20 35 31 19 12 35 25 35 30 0 5 6 9 14 9 9 0 12 7 9 19 -4 15 4
23 34 37 21 10 44 26 51 36 7 10 20 18 28 18 8 0 14 4 14 9 0 5 12 12 28 15
27 5 188 10 207 6 6 -1 22 -1 38 0 15 1 27 -3 27 -9 0 -6 14 -11 30 -11 17 0
30 -5 30 -12 1 -7 7 -2 14 11 9 15 16 20 20 12 5 -8 11 -7 22 3 16 16 19 40 4
31 -5 -3 -10 -1 -10 5 0 6 -5 8 -10 5 -6 -4 -8 -11 -5 -16 7 -10 -1 -11 -52
-13 -38 -1 -38 13 0 32 15 7 27 18 27 23 0 6 4 8 9 4 5 -3 13 0 16 6 9 13 4
18 -14 11z"/>
<path d="M366 2086 c3 -7 13 -13 22 -13 38 0 52 -3 52 -13 0 -5 -7 -7 -15 -4
-8 4 -15 2 -15 -4 0 -8 18 -9 53 -3 17 3 5 27 -15 29 -40 4 -57 8 -64 15 -12
12 -24 8 -18 -7z"/>
<path d="M1570 2096 c0 -2 8 -10 18 -17 15 -13 16 -12 3 4 -13 16 -21 21 -21
13z"/>
<path d="M2029 2073 c0 -10 -3 -13 -6 -6 -8 21 -52 -29 -58 -67 l-6 -35 14 31
c20 42 29 46 56 28 l22 -16 -21 -24 c-27 -28 -20 -73 11 -81 13 -4 18 -11 15
-20 -3 -8 -6 -19 -6 -24 0 -5 -4 -9 -10 -9 -5 0 -10 7 -10 15 0 8 -4 15 -9 15
-11 0 -2 -38 11 -46 39 -24 55 116 23 199 -5 13 -2 17 14 17 15 0 23 -9 30
-32 8 -30 9 -31 10 -7 1 26 -13 42 -56 67 -20 11 -23 10 -24 -5z m41 -143 c0
-5 -7 -10 -15 -10 -8 0 -15 5 -15 10 0 6 7 10 15 10 8 0 15 -4 15 -10z"/>
<path d="M618 2073 c6 -2 18 -2 25 0 6 3 1 5 -13 5 -14 0 -19 -2 -12 -5z"/>
<path d="M914 2071 c3 -5 15 -7 26 -4 28 7 25 13 -6 13 -14 0 -23 -4 -20 -9z"/>
<path d="M553 2063 c9 -2 23 -2 30 0 6 3 -1 5 -18 5 -16 0 -22 -2 -12 -5z"/>
<path d="M860 2060 c-18 -12 -2 -12 25 0 13 6 15 9 5 9 -8 0 -22 -4 -30 -9z"/>
<path d="M1563 2055 c0 -8 4 -15 9 -15 4 0 8 4 8 9 0 6 -4 12 -8 15 -5 3 -9
-1 -9 -9z"/>
<path d="M358 2053 c7 -3 16 -2 19 1 4 3 -2 6 -13 5 -11 0 -14 -3 -6 -6z"/>
<path d="M490 2056 c0 -2 11 -6 25 -8 13 -3 22 -1 19 3 -5 9 -44 13 -44 5z"/>
<path d="M1295 2040 c-3 -6 1 -7 9 -4 18 7 21 14 7 14 -6 0 -13 -4 -16 -10z"/>
<path d="M2763 2034 c-3 -8 -1 -20 5 -26 7 -7 10 -2 9 16 -2 30 -5 32 -14 10z"/>
<path d="M465 2030 c-4 -6 -3 -9 2 -8 4 1 18 -3 31 -10 30 -17 28 -8 -2 12
-16 10 -27 12 -31 6z"/>
<path d="M655 2030 c-3 -6 1 -7 9 -4 18 7 21 14 7 14 -6 0 -13 -4 -16 -10z"/>
<path d="M2716 2022 c-2 -4 -1 -14 3 -21 6 -10 10 -9 14 3 6 16 -8 32 -17 18z"/>
<path d="M1527 1993 c6 -16 5 -16 -10 -4 -10 7 -17 9 -17 3 0 -14 19 -19 47
-14 22 4 22 5 6 18 -25 18 -34 17 -26 -3z"/>
<path d="M430 1995 c0 -9 40 -85 44 -85 3 0 13 -3 23 -6 10 -3 7 1 -7 9 -14 9
-24 18 -22 21 3 7 -26 66 -33 66 -3 0 -5 -2 -5 -5z"/>
<path d="M119 1971 c11 -19 11 -25 0 -32 -9 -6 -2 -8 21 -8 19 1 27 3 18 6
-10 2 -18 10 -18 18 0 7 -7 19 -17 26 -15 13 -15 12 -4 -10z"/>
<path d="M2112 1940 c-3 -52 -39 -123 -66 -128 -10 -2 -35 10 -57 28 -21 17
-39 26 -39 21 0 -6 18 -24 40 -40 24 -17 35 -31 28 -34 -17 -6 -49 6 -50 18 0
16 -19 35 -34 35 -8 0 -14 -4 -14 -10 0 -5 7 -7 15 -4 10 4 15 0 15 -13 0 -12
-7 -19 -20 -19 -11 0 -20 4 -20 9 0 4 -4 5 -10 2 -14 -8 -13 8 1 22 13 13 2
16 -71 27 -19 3 -52 8 -72 12 -37 6 -38 5 -57 -38 -17 -39 -23 -45 -50 -45
-20 0 -27 3 -19 9 10 6 8 8 -4 8 -13 0 -18 8 -18 25 0 24 -29 45 -62 45 -12 0
-5 -209 10 -263 l10 -39 -25 24 -26 23 18 -32 c10 -18 22 -30 26 -28 12 8 20
-27 9 -40 -8 -10 -7 -15 1 -21 9 -5 7 -10 -7 -15 -30 -12 -66 -11 -58 2 4 8 0
7 -15 -1 -12 -6 -25 -18 -28 -26 -10 -27 -22 -14 -16 19 6 29 5 31 -10 18 -20
-16 -21 -30 -2 -55 12 -16 16 -16 28 -5 8 8 16 21 20 29 4 10 6 8 6 -7 1 -13
-10 -30 -28 -42 l-29 -21 -6 23 c-6 22 -7 22 -18 2 -6 -11 -18 -28 -26 -38
-15 -16 -14 -17 1 -11 9 3 17 11 17 16 0 6 13 7 33 3 17 -4 29 -4 25 0 -13 14
35 33 55 23 25 -13 73 -6 69 10 -1 6 6 12 16 12 25 0 69 50 67 78 -1 12 2 22
6 22 5 0 9 4 9 9 0 10 -59 21 -65 11 -7 -12 7 -50 17 -44 5 4 5 11 -1 18 -8 9
-7 13 3 13 19 0 14 -27 -8 -42 -11 -9 -14 -15 -6 -20 6 -4 19 -1 28 7 15 12
16 11 3 -5 -8 -10 -21 -15 -29 -12 -7 3 -19 2 -25 -2 -7 -4 -3 -9 9 -14 13 -4
8 -6 -17 -6 -26 1 -35 5 -32 14 3 7 9 11 13 8 19 -12 36 58 20 80 -13 18 -31
107 -25 126 4 11 2 19 -5 19 -12 0 -11 141 1 161 8 13 22 -6 26 -35 2 -11 11
-28 19 -37 9 -10 13 -22 10 -27 -3 -5 1 -15 9 -22 12 -10 18 -10 30 0 13 11
13 14 -2 26 -16 12 -15 13 10 14 24 0 31 7 44 40 14 34 20 40 46 40 16 0 45
-10 65 -22 33 -20 36 -20 47 -4 8 10 16 13 19 7 3 -5 -1 -16 -9 -24 -24 -25
-28 -23 70 -33 126 -12 186 -13 182 -1 -2 7 -18 13 -35 15 l-31 3 21 25 c12
13 29 24 37 24 13 0 13 2 3 9 -11 7 -11 9 2 14 9 4 16 17 16 29 0 18 -2 20
-10 8 -6 -10 -10 0 -13 35 l-3 50 -2 -45z m-553 -517 c3 -2 -8 -3 -25 -1 -20
1 -30 7 -30 19 0 15 2 15 26 1 14 -9 27 -17 29 -19z"/>
<path d="M546 1961 c-4 -5 -2 -12 3 -15 5 -4 12 -2 15 3 4 5 2 12 -3 15 -5 4
-12 2 -15 -3z"/>
<path d="M1439 1950 c18 -16 20 -20 7 -20 -10 0 -14 -5 -11 -10 4 -7 11 -7 18
-2 16 13 50 11 60 -2 6 -8 10 -7 14 2 2 6 11 12 19 12 9 0 12 5 9 10 -3 6 1
10 9 10 22 0 20 -28 -1 -33 -10 -2 -6 -3 8 -1 20 2 28 -2 32 -16 3 -13 0 -20
-10 -20 -8 0 -11 5 -8 10 3 6 -4 10 -17 10 -22 0 -22 0 -3 -12 11 -7 29 -18
40 -24 11 -6 20 -19 20 -29 0 -20 30 -43 41 -32 4 4 -1 14 -12 23 -10 8 -13
12 -6 9 12 -6 12 -3 2 16 -7 13 -19 32 -28 42 -8 9 -11 17 -5 17 23 0 7 30
-23 45 -40 19 -50 19 -58 0 -3 -8 -10 -15 -16 -15 -5 0 -10 7 -10 15 0 8 -4
15 -10 15 -5 0 -7 -6 -4 -13 3 -8 -2 -14 -11 -14 -8 0 -15 4 -15 9 0 5 -4 7
-9 3 -5 -3 -12 -1 -16 5 -3 5 -12 10 -18 10 -7 -1 -1 -10 12 -20z"/>
<path d="M2730 1959 c0 -5 5 -7 10 -4 6 3 10 8 10 11 0 2 -4 4 -10 4 -5 0 -10
-5 -10 -11z"/>
<path d="M2784 1940 c0 -11 4 -20 8 -20 4 0 8 9 8 20 0 11 -4 20 -8 20 -4 0
-8 -9 -8 -20z"/>
<path d="M1155 1929 c4 -6 -3 -13 -15 -16 -13 -3 -19 -11 -16 -19 3 -8 -1 -14
-10 -14 -8 0 -12 -4 -9 -10 10 -16 20 -12 38 20 13 21 23 27 35 23 16 -6 16
-6 0 10 -18 19 -33 23 -23 6z"/>
<path d="M1390 1932 c0 -4 10 -13 23 -21 22 -14 22 -14 3 8 -20 22 -26 25 -26
13z"/>
<path d="M960 1909 c-22 -18 -22 -19 -3 -10 12 6 25 16 28 21 9 15 3 12 -25
-11z"/>
<path d="M1334 1916 l-21 -11 23 -18 c21 -16 24 -54 3 -41 -5 3 -6 -1 -3 -9 3
-8 0 -18 -6 -22 -6 -3 -9 -3 -8 2 2 4 -1 9 -7 11 -5 2 -11 -1 -13 -7 -2 -6 1
-11 7 -11 6 0 14 -1 19 -1 11 -2 30 -53 22 -59 -4 -3 -2 -10 5 -17 10 -9 17
-9 31 3 15 11 15 13 3 8 -10 -3 -19 2 -23 13 -4 10 -3 19 2 21 6 2 7 12 4 24
-4 16 -2 19 8 13 9 -5 11 -4 6 4 -4 6 -11 9 -16 6 -5 -3 -11 -1 -15 5 -3 5 2
10 12 11 10 0 13 3 6 5 -17 7 -4 34 13 27 8 -3 14 0 14 7 0 6 -4 8 -10 5 -5
-3 -10 -2 -10 3 0 6 -9 8 -20 5 -22 -6 -26 7 -8 25 14 14 10 14 -18 -2z"/>
<path d="M2851 1914 c0 -11 3 -14 6 -6 3 7 2 16 -1 19 -3 4 -6 -2 -5 -13z"/>
<path d="M1047 1907 c-4 -10 2 -13 20 -9 18 3 21 7 11 13 -18 12 -25 11 -31
-4z"/>
<path d="M2170 1898 c-12 -22 -12 -22 6 -6 10 10 15 20 12 24 -4 3 -12 -5 -18
-18z"/>
<path d="M2240 1908 c0 -4 4 -8 9 -8 6 0 12 4 15 8 3 5 -1 9 -9 9 -8 0 -15 -4
-15 -9z"/>
<path d="M2778 1899 c21 -23 13 -32 -13 -15 -14 9 -30 14 -35 11 -15 -9 0 -27
16 -21 8 3 14 1 14 -5 0 -6 5 -7 12 -3 8 5 9 2 5 -10 -4 -10 -3 -15 3 -11 6 3
10 1 10 -4 0 -6 8 -11 18 -11 14 0 15 2 2 10 -8 5 -15 21 -15 36 0 15 -7 29
-15 32 -12 4 -13 2 -2 -9z"/>
<path d="M1440 1891 c0 -6 4 -13 10 -16 6 -3 7 1 4 9 -7 18 -14 21 -14 7z"/>
<path d="M0 1882 c0 -10 45 -32 63 -32 16 1 -34 39 -50 40 -7 0 -13 -4 -13 -8z"/>
<path d="M1207 1879 c7 -7 15 -10 18 -7 3 3 -2 9 -12 12 -14 6 -15 5 -6 -5z"/>
<path d="M2185 1880 c-4 -6 -2 -17 4 -24 9 -11 19 -12 46 -3 43 13 45 26 5 25
-19 -1 -30 -6 -30 -15 0 -8 -5 -11 -11 -8 -6 4 -8 13 -5 21 6 16 0 19 -9 4z"/>
<path d="M170 1869 c-30 -6 -28 -7 20 -8 67 -1 91 -4 108 -15 20 -12 62 -14
69 -3 3 6 1 7 -5 3 -6 -3 -16 0 -24 7 -7 7 -26 13 -43 12 -16 -1 -34 1 -40 4
-14 8 -43 8 -85 0z"/>
<path d="M750 1876 c0 -2 11 -6 25 -8 13 -3 22 -1 19 3 -5 9 -44 13 -44 5z"/>
<path d="M868 1873 c7 -3 16 -2 19 1 4 3 -2 6 -13 5 -11 0 -14 -3 -6 -6z"/>
<path d="M110 1844 c19 -8 45 -24 57 -36 14 -13 40 -23 70 -25 26 -3 77 -11
112 -19 35 -8 66 -12 69 -10 4 4 -27 14 -138 44 -19 6 -44 13 -55 17 -14 4
-12 1 5 -9 l25 -15 -27 1 c-26 2 -30 6 -27 25 1 11 -72 41 -101 42 -22 0 -21
-2 10 -15z"/>
<path d="M403 1840 c3 -11 1 -20 -5 -20 -5 0 -6 -4 -3 -10 12 -19 21 -10 21
20 0 17 -4 30 -9 30 -5 0 -7 -9 -4 -20z"/>
<path d="M1064 1824 c-19 -35 -19 -36 0 -50 31 -22 40 -17 21 12 -9 14 -14 28
-11 32 3 3 6 0 6 -5 0 -14 33 -10 37 4 2 6 -1 14 -6 18 -7 3 -8 0 -5 -10 5
-11 2 -14 -10 -9 -19 7 -20 16 -4 32 7 7 8 12 2 12 -6 0 -19 -16 -30 -36z"/>
<path d="M1128 1823 c5 -21 7 -23 10 -9 2 10 0 22 -6 28 -6 6 -7 0 -4 -19z"/>
<path d="M1159 1843 c0 -5 -2 -16 -4 -26 -2 -11 0 -16 3 -12 4 4 7 10 7 13 0
4 4 13 8 20 5 7 4 12 -2 12 -6 0 -11 -3 -12 -7z"/>
<path d="M1186 1832 c-3 -5 1 -9 9 -9 8 0 12 4 9 9 -3 4 -7 8 -9 8 -2 0 -6 -4
-9 -8z"/>
<path d="M1760 1829 c0 -6 -16 -25 -35 -43 -36 -34 -48 -87 -23 -102 8 -5 9 1
5 22 -5 25 1 36 32 67 34 34 40 36 71 27 18 -5 36 -8 38 -5 2 2 -7 7 -21 10
-15 4 -31 13 -38 21 -14 17 -29 18 -29 3z"/>
<path d="M2710 1829 c0 -5 5 -7 10 -4 6 3 10 8 10 11 0 2 -4 4 -10 4 -5 0 -10
-5 -10 -11z"/>
<path d="M654 1823 c10 -11 37 -12 30 -2 -3 5 -12 9 -21 9 -9 0 -13 -3 -9 -7z"/>
<path d="M2186 1822 c-2 -4 13 -8 34 -7 21 0 36 3 33 8 -6 10 -61 9 -67 -1z"/>
<path d="M2490 1821 c0 -5 7 -15 17 -22 15 -13 15 -12 4 9 -12 23 -21 28 -21
13z"/>
<path d="M30 1809 c0 -5 4 -8 9 -5 5 4 21 2 35 -4 14 -5 26 -6 26 -1 0 9 -33
21 -57 21 -7 0 -13 -5 -13 -11z"/>
<path d="M430 1811 c0 -5 9 -11 21 -14 16 -4 18 -3 8 9 -13 16 -29 19 -29 5z"/>
<path d="M2445 1806 c-21 -22 -25 -35 -14 -42 8 -4 9 -3 5 4 -4 7 -3 12 2 12
6 0 13 7 16 16 8 21 4 25 -9 10z"/>
<path d="M2738 1793 c5 -21 7 -23 10 -9 2 10 0 22 -6 28 -6 6 -7 0 -4 -19z"/>
<path d="M1198 1798 c-4 -9 3 -14 21 -15 14 -1 19 1 11 4 -8 3 -18 10 -21 15
-3 5 -9 3 -11 -4z"/>
<path d="M1272 1793 c2 -10 10 -17 16 -15 7 1 12 -4 12 -11 0 -7 9 -13 20 -14
29 -2 24 13 -9 28 -16 7 -27 17 -25 21 3 4 0 8 -6 8 -6 0 -10 -8 -8 -17z"/>
<path d="M1434 1801 c4 -6 1 -11 -6 -11 -9 0 -10 -3 -2 -8 6 -4 10 -15 8 -25
-1 -9 2 -15 7 -11 5 3 9 0 9 -6 0 -6 5 -8 10 -5 6 4 7 11 4 17 -4 6 -7 20 -8
31 -1 11 -7 22 -15 25 -8 3 -11 0 -7 -7z"/>
<path d="M2772 1777 c5 -10 13 -15 18 -12 5 3 12 0 16 -6 5 -8 3 -9 -6 -4 -9
5 -11 4 -6 -4 4 -6 22 -19 39 -28 30 -15 31 -15 18 0 -7 10 -20 17 -28 17 -8
0 -11 5 -7 12 4 6 -2 18 -12 26 -16 12 -16 14 -2 9 10 -3 20 -2 23 3 4 6 -8 9
-28 8 -30 -3 -34 -5 -25 -21z"/>
<path d="M30 1780 c19 -5 64 -12 99 -15 36 -4 77 -13 92 -21 31 -16 52 -19 29
-4 -12 8 -12 10 -1 10 8 0 20 -8 28 -17 8 -10 12 -12 8 -5 -12 23 40 11 175
-41 84 -33 120 -50 120 -59 0 -4 6 -5 13 -2 13 5 129 -41 216 -85 24 -12 45
-20 48 -17 3 2 -30 21 -74 42 -43 21 -97 51 -121 67 -23 15 -53 30 -66 33 -13
2 -48 15 -78 28 -31 14 -91 32 -134 41 -156 33 -470 72 -354 45z"/>
<path d="M2530 1781 c0 -5 5 -13 10 -16 6 -3 10 -2 10 4 0 5 -4 13 -10 16 -5
3 -10 2 -10 -4z"/>
<path d="M427 1765 c3 -9 8 -13 11 -11 3 3 11 1 19 -5 18 -16 16 -4 -3 15 -20
20 -35 21 -27 1z"/>
<path d="M2157 1773 c-10 -9 -9 -23 1 -23 5 0 9 7 9 15 0 17 -1 18 -10 8z"/>
<path d="M2206 1764 c-5 -14 -4 -15 9 -4 17 14 19 20 6 20 -5 0 -12 -7 -15
-16z"/>
<path d="M1044 1748 c-3 -4 3 -8 12 -8 14 0 12 -6 -11 -30 -16 -16 -24 -30
-17 -30 6 0 16 10 23 21 9 17 13 19 20 8 6 -10 1 -18 -16 -29 -14 -8 -25 -18
-25 -23 0 -4 5 -5 11 -2 6 4 17 -1 24 -11 21 -27 18 -36 -7 -29 -23 7 -23 7
-3 -8 19 -15 19 -16 2 -23 -10 -4 -14 -10 -9 -13 5 -3 18 -22 29 -41 11 -19
30 -37 44 -41 13 -3 23 -11 21 -18 -1 -7 2 -10 7 -7 5 3 12 -1 15 -10 9 -22
29 -12 33 17 2 16 0 20 -6 10 -7 -10 -13 -11 -30 -2 -24 13 -27 27 -8 34 9 3
9 7 -2 20 -14 17 -10 21 22 17 16 -1 16 1 6 19 -13 19 -13 19 -31 -2 -10 -11
-16 -27 -13 -36 3 -8 0 -18 -7 -23 -18 -11 -30 -10 -23 2 3 6 0 10 -7 10 -9 0
-9 3 2 10 12 8 12 10 1 10 -11 0 -10 4 3 19 17 19 17 19 -1 15 -14 -4 -19 1
-20 16 -1 15 2 20 13 16 8 -3 14 -1 14 5 0 6 4 8 9 5 5 -4 8 1 7 10 -1 9 -11
21 -22 26 -18 9 -18 8 -1 -5 14 -12 15 -16 4 -20 -9 -3 -19 4 -24 16 -13 28
-7 46 15 42 9 -1 11 0 5 2 -7 3 -13 11 -13 19 0 8 -4 14 -9 14 -5 0 -7 8 -4
18 5 19 -23 27 -33 10z"/>
<path d="M1118 1753 c7 -3 16 -2 19 1 4 3 -2 6 -13 5 -11 0 -14 -3 -6 -6z"/>
<path d="M2730 1750 c-9 -5 -9 -9 -1 -14 6 -4 9 -12 6 -17 -4 -5 0 -16 8 -24
13 -13 16 -13 21 1 9 24 7 34 -5 32 -6 -2 -13 2 -16 9 -3 7 3 9 16 6 12 -3 21
-3 21 0 0 9 -38 15 -50 7z"/>
<path d="M522 1735 c9 -10 21 -16 28 -13 7 2 -1 10 -16 17 -27 12 -28 11 -12
-4z"/>
<path d="M1232 1738 c3 -7 12 -14 22 -14 13 -2 13 -1 1 3 -8 2 -13 9 -10 14 4
5 1 9 -5 9 -7 0 -10 -6 -8 -12z"/>
<path d="M1310 1734 c0 -10 43 -45 48 -39 6 6 -28 45 -40 45 -4 0 -8 -3 -8 -6z"/>
<path d="M305 1720 c3 -5 14 -10 23 -10 15 0 15 2 2 10 -20 13 -33 13 -25 0z"/>
<path d="M1420 1719 c0 -5 -4 -7 -10 -4 -5 3 -10 2 -10 -2 0 -5 9 -14 20 -21
12 -7 20 -8 20 -2 0 5 7 10 15 10 20 0 19 16 -1 24 -23 9 -34 7 -34 -5z"/>
<path d="M2230 1720 c0 -5 5 -10 10 -10 6 0 10 5 10 10 0 6 -4 10 -10 10 -5 0
-10 -4 -10 -10z"/>
<path d="M0 1706 c0 -8 10 -18 23 -21 155 -34 207 -48 207 -56 0 -6 4 -8 10
-4 11 7 140 -26 140 -37 0 -4 9 -5 20 -3 11 2 20 0 20 -5 0 -5 6 -7 14 -4 8 3
17 0 21 -5 3 -6 10 -9 15 -6 4 3 13 -2 20 -10 6 -7 18 -11 26 -8 8 3 27 -5 41
-18 14 -13 23 -18 19 -11 -8 13 -7 13 74 -4 42 -9 37 -16 -8 -10 -55 6 -46
-10 10 -18 50 -8 106 -35 74 -36 -11 0 -17 -2 -15 -5 5 -4 160 24 167 30 2 2
0 11 -6 20 -8 15 -10 15 -15 2 -5 -12 -92 -36 -104 -29 -12 7 7 16 27 13 14
-2 23 -1 20 2 -17 17 -559 184 -720 222 -72 17 -80 17 -80 1z m730 -216 c0 -5
-4 -10 -10 -10 -5 0 -10 5 -10 10 0 6 5 10 10 10 6 0 10 -4 10 -10z"/>
<path d="M350 1706 c0 -2 8 -10 18 -17 15 -13 16 -12 3 4 -13 16 -21 21 -21
13z"/>
<path d="M1226 1702 c-2 -4 4 -9 15 -9 11 -1 17 2 14 8 -7 11 -22 12 -29 1z"/>
<path d="M1290 1695 c34 -20 60 -20 34 0 -10 8 -28 14 -39 14 -18 0 -17 -1 5
-14z"/>
<path d="M2035 1700 c-3 -5 -1 -10 4 -10 6 0 11 5 11 10 0 6 -2 10 -4 10 -3 0
-8 -4 -11 -10z"/>
<path d="M2826 1688 c10 -14 21 -24 23 -22 3 3 -6 15 -18 27 l-24 22 19 -27z"/>
<path d="M1635 1687 c-10 -8 -15 -19 -11 -26 6 -9 11 -9 21 -1 9 7 15 8 19 1
4 -6 -8 -15 -26 -20 l-33 -10 37 3 c47 3 57 12 33 30 -10 7 -15 18 -11 24 10
16 -6 15 -29 -1z"/>
<path d="M1432 1665 c-28 -31 -29 -44 -2 -20 11 10 20 13 20 7 0 -6 -4 -14
-10 -17 -5 -3 -10 -11 -10 -16 0 -6 4 -8 9 -5 5 4 11 3 14 -1 2 -5 2 -3 1 4
-2 6 3 17 11 23 13 10 10 50 -4 50 -4 0 -17 -11 -29 -25z"/>
<path d="M2088 1683 c7 -3 16 -2 19 1 4 3 -2 6 -13 5 -11 0 -14 -3 -6 -6z"/>
<path d="M2725 1680 c-4 -6 -3 -20 1 -33 6 -20 5 -21 -11 -7 -17 14 -18 13
-12 -4 5 -11 2 -25 -6 -35 -15 -18 -29 -51 -21 -51 2 0 9 10 14 23 8 20 9 20
9 2 0 -11 -11 -38 -24 -60 -34 -54 -32 -69 2 -17 15 23 30 37 34 31 4 -7 9 -4
12 6 4 9 3 13 -3 10 -15 -9 -12 4 8 33 10 15 17 38 16 52 -1 14 2 27 6 30 4 3
2 11 -6 17 -8 8 -15 9 -19 3z"/>
<path d="M1240 1667 c9 -7 25 -25 38 -41 15 -20 22 -24 22 -12 0 9 -5 16 -11
16 -5 0 -8 4 -4 10 10 16 33 -1 31 -23 -2 -19 2 -22 35 -22 43 -1 43 10 0 18
-29 6 -34 19 -17 45 6 11 1 12 -27 8 -20 -3 -39 -1 -42 4 -3 6 -14 10 -23 10
-15 -1 -15 -2 -2 -13z"/>
<path d="M1726 1645 c4 -23 3 -26 -5 -15 -7 9 -11 10 -11 3 0 -7 11 -24 24
-40 21 -24 26 -26 47 -15 24 11 24 11 -3 6 -24 -5 -28 -2 -33 23 -4 15 -10 37
-15 48 -7 15 -8 13 -4 -10z"/>
<path d="M2255 1660 c6 -10 1 -12 -23 -7 -25 5 -34 2 -42 -12 -7 -14 -6 -20 6
-25 12 -5 14 -1 10 17 -3 12 -3 16 0 10 3 -7 21 -13 39 -13 26 0 33 4 31 17
-2 9 -9 19 -16 21 -8 3 -10 0 -5 -8z"/>
<path d="M40 1650 c0 -5 5 -10 11 -10 5 0 7 5 4 10 -3 6 -8 10 -11 10 -2 0 -4
-4 -4 -10z"/>
<path d="M735 1650 c3 -5 -2 -10 -11 -10 -14 0 -15 -3 -6 -12 10 -10 15 -10
21 1 6 9 11 10 15 2 4 -6 12 -11 18 -11 6 0 1 9 -12 20 -25 22 -35 26 -25 10z"/>
<path d="M1227 1649 c7 -7 15 -10 18 -7 3 3 -2 9 -12 12 -14 6 -15 5 -6 -5z"/>
<path d="M1340 1633 c0 -10 5 -11 18 -4 13 7 23 6 32 -2 12 -10 12 -9 1 5 -14
19 -51 20 -51 1z"/>
<path d="M1152 1624 c10 -10 20 -16 22 -13 3 3 -5 11 -17 18 -21 13 -21 12 -5
-5z"/>
<path d="M1472 1590 c1 -23 4 -36 8 -30 6 10 1 70 -6 70 -2 0 -3 -18 -2 -40z"/>
<path d="M1641 1611 c-9 -12 -10 -12 -6 -1 4 8 -3 4 -14 -10 -11 -14 -21 -29
-20 -35 0 -5 6 -2 13 8 16 21 27 22 20 2 -4 -8 -1 -15 5 -15 6 0 11 4 11 10 0
5 9 18 20 28 20 19 20 20 2 24 -11 3 -24 -2 -31 -11z"/>
<path d="M2100 1629 c0 -3 8 -21 17 -40 20 -40 21 -172 2 -195 -6 -8 -9 -17
-6 -20 14 -14 30 47 31 116 1 62 -3 81 -21 110 -13 19 -23 32 -23 29z"/>
<path d="M518 1613 c7 -3 16 -2 19 1 4 3 -2 6 -13 5 -11 0 -14 -3 -6 -6z"/>
<path d="M1230 1607 c0 -19 16 -31 24 -18 3 5 -1 14 -9 21 -12 10 -15 10 -15
-3z"/>
<path d="M1821 1606 c-16 -19 -11 -29 8 -17 7 5 12 14 9 21 -3 9 -8 7 -17 -4z"/>
<path d="M2048 1578 c-4 -26 -3 -28 7 -15 9 12 14 14 23 5 17 -17 15 -28 -7
-28 -10 0 -21 -6 -24 -13 -8 -22 4 -67 19 -67 21 0 26 -17 9 -33 -16 -17 -20
-47 -6 -47 17 0 36 65 36 120 -1 36 -7 65 -19 83 -24 35 -33 34 -38 -5z m52
-88 c0 -5 -7 -10 -15 -10 -8 0 -15 5 -15 10 0 6 7 10 15 10 8 0 15 -4 15 -10z"/>
<path d="M2220 1599 c0 -6 5 -7 10 -4 6 3 10 0 10 -7 0 -8 9 -14 21 -15 16 -2
18 1 9 12 -8 10 -8 14 2 17 7 3 -2 5 -19 6 -18 0 -33 -4 -33 -9z"/>
<path d="M2790 1601 c0 -4 -11 -25 -25 -46 -24 -34 -25 -39 -10 -55 14 -16 12
-22 -31 -79 -25 -33 -53 -65 -62 -71 -9 -5 -12 -10 -7 -10 22 0 87 65 110 111
29 56 30 63 10 55 -18 -6 -19 -1 -4 25 5 11 15 16 21 13 7 -5 9 0 6 14 -4 12
-2 22 3 22 5 0 9 7 9 15 0 8 -4 15 -10 15 -5 0 -10 -4 -10 -9z"/>
<path d="M2756 1585 c-3 -8 -1 -15 4 -15 6 0 10 7 10 15 0 8 -2 15 -4 15 -2 0
-6 -7 -10 -15z"/>
<path d="M960 1580 c0 -5 -6 -10 -14 -10 -10 0 -13 -7 -9 -22 2 -13 9 -39 13
-58 l9 -35 -2 37 c-2 23 1 34 6 29 5 -5 10 -26 11 -47 1 -22 9 -50 17 -64 l14
-25 3 32 c2 18 -4 43 -12 55 -16 22 -23 63 -8 43 8 -11 33 -27 80 -51 17 -9
32 -21 32 -26 0 -5 5 -6 10 -3 6 3 10 1 10 -5 0 -7 7 -9 16 -6 8 3 13 2 10 -3
-3 -5 8 -14 24 -21 17 -7 40 -24 50 -38 11 -13 20 -20 20 -15 0 13 -22 39 -45
52 -18 11 -16 12 10 6 30 -7 45 -20 45 -42 0 -7 4 -13 10 -13 5 0 6 7 3 17 -4
11 -3 14 5 9 7 -4 12 -1 12 9 0 9 -4 14 -9 10 -5 -3 -12 -1 -16 5 -3 5 -16 10
-28 10 -18 0 -20 2 -7 11 12 9 10 10 -8 6 -40 -9 -241 111 -226 135 3 4 -2 5
-11 2 -11 -5 -14 -2 -9 10 3 9 3 16 0 16 -3 0 -6 -4 -6 -10z"/>
<path d="M1290 1578 c0 -10 -5 -18 -11 -18 -5 0 -7 5 -4 10 3 6 1 10 -5 10 -7
0 -10 -5 -8 -12 3 -7 -7 -22 -20 -33 -18 -15 -22 -24 -13 -29 7 -5 10 -2 9 6
-2 7 4 12 12 10 8 -2 12 0 8 4 -4 4 4 13 18 21 33 16 47 17 38 1 -6 -10 -5
-10 7 -1 8 6 18 11 24 11 5 0 11 5 13 10 2 6 -10 9 -25 7 -15 -1 -31 2 -35 9
-5 7 -8 5 -8 -6z"/>
<path d="M2010 1575 c-6 -8 -10 -19 -8 -26 2 -6 9 0 16 15 13 29 10 33 -8 11z"/>
<path d="M5 1570 c4 -6 13 -9 20 -6 7 2 17 0 22 -5 6 -6 10 -5 10 4 0 7 -13
14 -29 15 -19 2 -27 -1 -23 -8z"/>
<path d="M2208 1573 c6 -2 10 -9 6 -14 -3 -5 -1 -9 5 -9 6 0 16 -10 22 -22 9
-19 9 -21 -2 -10 -23 21 -32 13 -15 -13 9 -14 12 -25 7 -25 -5 0 -16 16 -25
35 -9 19 -18 35 -20 35 -2 0 1 -23 7 -50 8 -41 12 -48 23 -39 11 9 14 8 14 -4
0 -8 6 -27 14 -41 11 -22 15 -24 20 -11 9 25 7 37 -5 29 -9 -5 -10 6 -6 41 6
59 -16 106 -48 104 -5 0 -4 -3 3 -6z"/>
<path d="M2831 1573 c0 -4 4 -17 9 -28 8 -19 9 -19 9 2 1 12 -3 25 -9 28 -5 3
-10 3 -9 -2z"/>
<path d="M95 1560 c3 -5 8 -10 11 -10 2 0 4 5 4 10 0 6 -5 10 -11 10 -5 0 -7
-4 -4 -10z"/>
<path d="M120 1566 c0 -2 7 -7 16 -10 8 -3 12 -2 9 4 -6 10 -25 14 -25 6z"/>
<path d="M890 1560 c-12 -8 -10 -10 8 -10 13 0 20 4 17 10 -7 12 -6 12 -25 0z"/>
<path d="M2250 1561 c0 -5 5 -13 10 -16 6 -3 10 -2 10 4 0 5 -4 13 -10 16 -5
3 -10 2 -10 -4z"/>
<path d="M1205 1549 c-4 -6 -5 -12 -2 -15 2 -3 7 2 10 11 7 17 1 20 -8 4z"/>
<path d="M1374 1546 c-10 -8 -16 -17 -13 -20 3 -3 14 3 24 14 21 23 17 26 -11
6z"/>
<path d="M10 1542 c0 -6 9 -12 20 -15 26 -7 26 -1 0 13 -11 6 -20 7 -20 2z"/>
<path d="M228 1531 c-8 -9 -24 -22 -34 -29 -10 -7 6 0 36 14 67 32 66 32 37
32 -14 0 -31 -8 -39 -17z"/>
<path d="M1418 1544 c-5 -4 -8 -18 -8 -31 0 -15 -6 -23 -16 -23 -14 0 -14 3
-4 15 7 9 10 18 7 21 -3 3 -11 -4 -17 -16 -6 -12 -9 -24 -6 -28 15 -14 35 -8
46 13 12 23 11 62 -2 49z"/>
<path d="M180 1530 c0 -5 5 -10 11 -10 5 0 7 5 4 10 -3 6 -8 10 -11 10 -2 0
-4 -4 -4 -10z"/>
<path d="M895 1530 c3 -5 8 -10 11 -10 2 0 4 5 4 10 0 6 -5 10 -11 10 -5 0 -7
-4 -4 -10z"/>
<path d="M1320 1525 c-9 -10 -9 -15 -1 -15 6 0 14 0 18 0 4 0 8 6 9 15 3 19
-10 19 -26 0z"/>
<path d="M1447 1523 c6 -16 8 -16 23 1 9 12 8 15 -8 13 -12 0 -18 -6 -15 -14z"/>
<path d="M1744 1525 c-17 -13 -17 -14 -2 -15 9 0 20 5 23 11 11 17 0 20 -21 4z"/>
<path d="M2636 1499 c-15 -22 -26 -45 -24 -51 2 -5 16 13 31 41 34 61 30 67
-7 10z"/>
<path d="M1275 1518 c-4 -10 -10 -16 -14 -13 -4 2 -8 -2 -8 -9 0 -7 6 -13 13
-13 7 0 11 4 8 8 -2 4 1 9 7 11 7 2 10 11 7 19 -5 11 -7 11 -13 -3z"/>
<path d="M2811 1523 c-1 -6 -4 -20 -7 -30 -5 -17 -5 -17 6 0 6 10 9 23 6 30
-3 9 -5 9 -5 0z"/>
<path d="M80 1506 c0 -2 7 -7 16 -10 8 -3 12 -2 9 4 -6 10 -25 14 -25 6z"/>
<path d="M2430 1500 c0 -5 5 -10 10 -10 6 0 10 5 10 10 0 6 -4 10 -10 10 -5 0
-10 -4 -10 -10z"/>
<path d="M2677 1468 c-15 -21 -32 -36 -37 -33 -5 3 -12 -1 -17 -9 -12 -23 -77
-63 -96 -60 -9 1 -17 -1 -17 -6 0 -13 -90 -32 -190 -40 -82 -7 -96 -6 -107 9
-11 15 -12 15 -13 -1 0 -20 -25 -23 -65 -8 -16 6 -33 7 -43 1 -12 -7 -6 -11
28 -16 60 -8 68 -8 190 -2 83 5 95 4 55 -4 -27 -5 -62 -10 -77 -12 -16 -1 -28
-5 -28 -9 0 -5 -8 -8 -17 -8 -15 0 -16 2 -3 10 8 5 10 10 4 10 -5 0 -15 -5
-22 -12 -6 -6 -39 -13 -74 -15 -46 -3 -59 -1 -48 7 11 8 0 8 -40 3 -30 -4 -62
-6 -70 -6 -8 1 -67 4 -130 7 -63 4 -131 9 -150 13 -19 3 -43 6 -52 6 -9 1 -15
5 -12 8 2 4 -8 6 -23 5 -30 -3 -45 -25 -16 -24 30 1 267 -22 281 -27 8 -3 78
-5 155 -6 197 0 420 32 403 60 -3 4 5 6 18 4 14 -3 32 0 43 6 15 10 13 10 -12
6 -29 -5 -29 -5 -5 6 14 6 40 13 59 14 19 2 37 8 41 14 22 37 104 73 83 38 -3
-7 3 -3 15 7 27 24 27 25 2 19 -11 -3 -20 0 -20 6 0 6 4 11 9 11 5 0 12 11 15
25 4 14 11 23 16 20 5 -3 11 -1 14 4 3 5 0 11 -7 14 -6 2 -24 -13 -40 -35z"/>
<path d="M4 1492 c4 -3 14 -7 22 -8 9 -1 13 0 10 4 -4 3 -14 7 -22 8 -9 1 -13
0 -10 -4z"/>
<path d="M2002 1470 c-1 -39 12 -79 19 -64 3 5 0 29 -7 54 -12 45 -12 45 -12
10z"/>
<path d="M913 1451 c11 -20 27 -44 35 -53 9 -11 11 -18 4 -18 -11 0 -45 44
-55 72 -4 12 -12 15 -23 11 -16 -6 -15 -8 4 -21 30 -20 28 -30 -5 -25 -24 3
-22 0 12 -17 37 -19 62 -34 93 -53 9 -6 9 -13 1 -29 -9 -17 -18 -20 -52 -15
-23 2 -36 3 -29 0 9 -3 5 -14 -13 -35 -14 -17 -31 -50 -37 -74 -8 -28 -18 -44
-28 -44 -13 0 -13 -1 0 -10 12 -8 12 -10 1 -10 -11 0 -11 -3 -1 -15 13 -16 3
-20 -24 -9 -9 3 -13 10 -10 15 3 5 1 9 -4 9 -5 0 -26 11 -46 25 -20 13 -36 21
-36 17 0 -4 -4 -2 -8 3 -9 12 -36 29 -82 53 -19 9 -38 22 -42 27 -4 6 -8 7 -8
3 0 -10 -71 21 -92 40 -10 8 -28 16 -40 17 -13 1 -40 10 -61 19 -20 9 -59 19
-85 22 l-47 6 45 -26 c25 -14 61 -33 80 -43 19 -10 36 -21 38 -25 2 -4 10 -4
18 -1 8 3 25 -6 39 -21 13 -14 29 -26 36 -26 6 0 -5 18 -25 40 -20 22 -36 43
-36 46 0 4 11 -5 25 -20 13 -14 29 -26 35 -26 6 0 8 -4 5 -10 -3 -5 0 -10 7
-10 8 0 47 -21 88 -46 41 -26 125 -70 185 -99 61 -28 116 -59 124 -68 7 -9 24
-17 37 -17 13 0 68 -21 122 -47 53 -25 120 -54 147 -64 50 -18 50 -18 53 4 2
11 15 35 29 53 13 18 23 35 21 38 -6 9 106 145 129 157 13 7 23 16 23 21 0 4
7 8 15 8 8 0 15 6 15 14 0 12 -4 12 -29 0 -45 -22 -171 -161 -171 -188 0 -7
-13 -31 -30 -54 -32 -45 -35 -45 -105 4 -41 28 -63 35 -69 21 -3 -9 -5 -9 -5
0 -1 6 4 15 9 18 18 11 10 20 -21 22 -39 3 -45 8 -29 28 11 13 8 13 -30 0 -66
-23 -94 -19 -124 16 -31 37 -40 69 -33 115 8 47 21 62 67 74 22 6 50 24 64 41
25 30 34 59 18 59 -5 0 -17 7 -28 15 -18 14 -17 15 11 10 l30 -5 -33 15 c-28
13 -32 18 -21 31 10 12 9 13 -3 9 -11 -4 -17 2 -21 23 -4 18 -14 31 -25 34
-19 5 -19 5 1 -31z m-558 -131 c3 -6 -1 -7 -9 -4 -18 7 -21 14 -7 14 6 0 13
-4 16 -10z"/>
<path d="M1235 1471 c5 -15 3 -21 -3 -17 -6 3 -13 2 -17 -3 -3 -6 3 -8 15 -6
11 2 20 0 20 -4 0 -4 7 -8 15 -8 8 0 12 4 9 8 -2 4 -1 9 3 12 5 2 2 2 -4 1 -7
-2 -20 7 -29 19 l-16 22 7 -24z"/>
<path d="M2725 1464 c-11 -17 -12 -25 -4 -22 6 2 16 14 20 26 11 29 5 28 -16
-4z"/>
<path d="M1017 1464 c3 -8 16 -19 29 -24 29 -11 58 -55 50 -76 -4 -12 -14 -14
-36 -9 -30 7 -42 -7 -18 -21 7 -4 8 -3 4 4 -4 7 -2 12 5 12 7 0 9 -10 7 -24
-4 -18 -1 -23 11 -21 9 1 22 -2 29 -8 8 -6 12 -6 12 3 0 6 -9 14 -20 17 -11 3
-20 9 -20 14 0 10 36 7 46 -4 11 -10 24 -9 24 3 0 6 -6 10 -13 10 -7 0 -14 12
-15 27 l-2 28 22 -32 c22 -32 38 -42 38 -24 0 5 -7 14 -15 21 -8 7 -12 17 -8
23 3 5 2 7 -4 4 -5 -3 -25 10 -44 29 -19 20 -46 42 -61 50 -25 13 -27 13 -21
-2z"/>
<path d="M1312 1464 c-10 -12 -10 -14 2 -14 17 0 30 16 19 23 -5 3 -14 -1 -21
-9z"/>
<path d="M113 1455 c0 -8 4 -15 9 -15 4 0 8 4 8 9 0 6 -4 12 -8 15 -5 3 -9 -1
-9 -9z"/>
<path d="M204 1452 c3 -6 2 -13 -4 -17 -16 -10 -12 -21 12 -32 19 -8 13 -11
-41 -22 -35 -7 -61 -15 -58 -17 3 -3 27 -1 55 4 27 5 63 8 80 8 16 -1 28 2 25
7 -2 4 3 7 12 7 10 0 13 -5 9 -12 -4 -6 -3 -8 4 -4 6 3 13 2 17 -4 10 -16 25
-2 18 16 -4 12 -17 15 -48 12 -24 -1 -41 0 -38 5 2 4 -1 7 -7 7 -6 0 -8 5 -5
10 3 6 -1 10 -10 10 -9 0 -14 4 -10 9 3 5 0 13 -6 17 -7 4 -9 3 -5 -4z"/>
<path d="M27 1443 c-4 -9 24 -37 42 -41 55 -12 101 -13 101 -3 0 7 -4 10 -9 6
-5 -3 -16 2 -25 11 -10 10 -24 13 -37 9 -14 -5 -19 -4 -15 4 5 7 1 9 -9 5 -8
-4 -22 -1 -29 5 -8 7 -16 8 -19 4z"/>
<path d="M379 1433 c-12 -16 -12 -17 1 -7 8 6 22 14 30 17 13 5 12 6 -1 6 -9
1 -23 -7 -30 -16z"/>
<path d="M660 1446 c0 -2 7 -7 16 -10 8 -3 12 -2 9 4 -6 10 -25 14 -25 6z"/>
<path d="M805 1440 c-8 -14 3 -30 21 -30 8 0 14 5 14 10 0 6 -7 10 -16 10 -8
0 -12 5 -9 10 3 6 4 10 1 10 -3 0 -8 -4 -11 -10z"/>
<path d="M830 1446 c0 -2 7 -7 16 -10 8 -3 12 -2 9 4 -6 10 -25 14 -25 6z"/>
<path d="M158 1433 c7 -3 16 -2 19 1 4 3 -2 6 -13 5 -11 0 -14 -3 -6 -6z"/>
<path d="M530 1425 c-44 -17 -53 -18 -44 -3 4 7 3 8 -5 4 -6 -4 -9 -12 -6 -17
4 -5 -7 -9 -23 -9 -17 0 -32 -6 -35 -14 -4 -11 1 -12 28 -4 25 8 44 7 81 -6
55 -18 64 -16 36 12 -13 13 -23 17 -30 10 -6 -6 -12 -6 -16 0 -8 13 30 26 45
16 7 -4 9 -3 5 4 -3 6 3 12 16 15 19 4 20 4 3 5 -11 0 -36 -6 -55 -13z"/>
<path d="M775 1430 c-3 -5 -1 -10 4 -10 6 0 11 5 11 10 0 6 -2 10 -4 10 -3 0
-8 -4 -11 -10z"/>
<path d="M1360 1430 c0 -5 5 -10 10 -10 6 0 10 5 10 10 0 6 -4 10 -10 10 -5 0
-10 -4 -10 -10z"/>
<path d="M2214 1398 c3 -24 5 -49 5 -55 1 -7 6 -13 11 -13 16 0 12 80 -5 96
-13 14 -15 11 -11 -28z"/>
<path d="M408 1423 c7 -3 16 -2 19 1 4 3 -2 6 -13 5 -11 0 -14 -3 -6 -6z"/>
<path d="M445 1420 c3 -5 8 -10 11 -10 2 0 4 5 4 10 0 6 -5 10 -11 10 -5 0 -7
-4 -4 -10z"/>
<path d="M1024 1407 c1 -15 7 -21 19 -19 9 2 20 -4 23 -13 3 -8 10 -15 15 -15
5 0 2 14 -6 31 -14 26 -18 29 -33 17 -10 -8 -13 -8 -9 -1 4 6 3 14 -1 17 -5 3
-9 -5 -8 -17z"/>
<path d="M580 1411 c0 -6 11 -16 25 -21 14 -5 25 -14 25 -19 0 -8 95 -27 114
-23 14 4 36 -19 29 -31 -3 -6 -1 -7 6 -3 6 4 8 13 4 19 -4 7 2 5 12 -3 11 -9
16 -10 11 -2 -4 7 -1 12 9 12 10 0 13 -5 9 -12 -4 -7 -4 -10 1 -6 4 4 15 2 23
-5 13 -10 14 -9 4 9 -7 14 -26 24 -49 29 -21 4 -39 6 -41 6 -1 -1 -15 4 -30
12 -15 7 -36 12 -47 12 -11 -1 -27 4 -35 11 -22 18 -70 29 -70 15z"/>
<path d="M1339 1414 c-1 -5 -1 -12 0 -16 0 -4 -9 -13 -21 -19 -18 -10 -20 -9
-15 5 4 9 2 16 -3 16 -15 0 -12 -26 5 -40 8 -7 15 -17 15 -22 0 -21 32 -40 61
-36 22 4 29 1 25 -9 -3 -8 -2 -12 3 -8 5 3 17 2 28 -2 15 -6 13 -9 -12 -14
-51 -11 -105 -10 -102 2 1 6 -3 13 -10 16 -8 3 -11 -3 -8 -16 3 -14 -6 -26
-31 -41 -45 -28 -44 -45 1 -19 19 12 35 24 35 29 0 4 34 10 76 14 70 7 78 5
100 -15 22 -21 119 -45 108 -27 -3 4 4 8 15 8 11 0 26 7 35 15 8 8 17 11 20 7
6 -10 73 -8 83 2 3 3 2 6 -3 7 -5 0 -37 2 -71 5 -55 4 -63 3 -63 -12 0 -10 -3
-14 -6 -11 -4 3 -15 2 -25 -3 -12 -7 -20 -7 -24 0 -3 5 -18 11 -33 12 -15 1
-2 4 28 8 l55 7 -57 1 c-48 2 -58 5 -58 20 0 14 -2 15 -10 2 -6 -10 -10 -11
-10 -2 0 6 -7 12 -16 12 -11 0 -14 6 -9 23 7 21 6 21 -7 3 -14 -18 -15 -18
-22 -1 -3 10 -1 24 5 31 9 12 6 11 -16 0 -26 -14 -30 -13 -51 7 -21 20 -22 23
-7 34 9 7 19 10 24 8 4 -3 10 -1 14 5 3 5 2 10 -4 10 -5 0 -16 3 -25 6 -9 3
-17 2 -17 -2z"/>
<path d="M1479 1390 c-7 -36 -3 -52 17 -65 28 -18 34 -19 34 -4 0 5 -3 8 -8 5
-4 -2 -15 2 -25 9 -18 13 -17 14 2 20 12 3 21 11 21 16 0 6 -5 7 -11 3 -6 -3
-15 0 -20 7 -5 8 -9 12 -10 9z"/>
<path d="M1539 1388 c-5 -18 -6 -38 -1 -34 7 8 12 36 6 36 -2 0 -4 -1 -5 -2z"/>
<path d="M1182 1358 c2 -6 10 -14 16 -16 7 -2 10 2 6 12 -7 18 -28 22 -22 4z"/>
<path d="M1557 1355 c-4 -9 -3 -13 3 -10 6 3 10 -1 10 -10 0 -12 -5 -15 -16
-11 -11 4 -15 2 -11 -8 8 -20 -13 -25 -42 -10 -31 16 -42 9 -16 -10 11 -8 29
-12 40 -9 11 3 29 6 40 7 11 2 20 9 20 17 0 8 9 19 20 26 25 16 38 16 29 2 -4
-7 -1 -10 6 -7 8 2 16 10 18 18 3 7 0 10 -7 6 -6 -4 -11 -2 -11 4 0 6 -5 8
-12 3 -21 -13 -51 -14 -58 -2 -5 7 -9 5 -13 -6z"/>
<path d="M1675 1340 c-3 -5 -3 -10 2 -10 4 -1 44 -3 88 -7 44 -3 78 -3 75 0
-3 3 -35 7 -72 10 -36 3 -71 8 -77 11 -5 4 -12 2 -16 -4z"/>
<path d="M40 1330 c0 -5 5 -10 11 -10 5 0 7 5 4 10 -3 6 -8 10 -11 10 -2 0 -4
-4 -4 -10z"/>
<path d="M2560 1324 l-25 -13 27 -1 c15 0 29 4 33 9 10 17 -10 20 -35 5z"/>
<path d="M650 1326 c0 -2 7 -6 15 -10 8 -3 15 -1 15 4 0 6 -7 10 -15 10 -8 0
-15 -2 -15 -4z"/>
<path d="M1205 1320 c6 -10 3 -12 -11 -8 -15 4 -20 0 -22 -18 -2 -24 -2 -24
18 -4 16 16 29 19 66 15 25 -3 43 -2 41 2 -3 5 -22 10 -43 11 -20 2 -42 6 -47
9 -6 4 -7 1 -2 -7z"/>
<path d="M1860 1320 c19 -13 30 -13 30 0 0 6 -10 10 -22 10 -19 0 -20 -2 -8
-10z"/>
<path d="M1904 1321 c9 -13 56 -20 63 -8 3 6 1 7 -5 3 -7 -4 -12 -2 -12 3 0 6
-12 11 -26 11 -14 0 -23 -4 -20 -9z"/>
<path d="M1020 1305 c0 -8 4 -15 10 -15 5 0 7 7 4 15 -4 8 -8 15 -10 15 -2 0
-4 -7 -4 -15z"/>
<path d="M1150 1312 c0 -6 -8 -9 -17 -6 -15 5 -16 4 -3 -5 16 -11 40 3 27 16
-4 3 -7 1 -7 -5z"/>
<path d="M1993 1313 c9 -2 25 -2 35 0 9 3 1 5 -18 5 -19 0 -27 -2 -17 -5z"/>
<path d="M1806 1302 c-2 -4 4 -8 14 -8 10 0 16 4 14 8 -3 4 -9 8 -14 8 -5 0
-11 -4 -14 -8z"/>
<path d="M1207 1294 c-9 -10 2 -24 18 -24 9 0 12 6 9 15 -6 16 -17 19 -27 9z"/>
<path d="M1868 1293 c7 -3 16 -2 19 1 4 3 -2 6 -13 5 -11 0 -14 -3 -6 -6z"/>
<path d="M1250 1278 c0 -12 7 -18 23 -17 15 0 17 2 7 6 -8 3 -18 11 -22 17 -5
7 -8 4 -8 -6z"/>
<path d="M2507 1279 c7 -7 15 -10 18 -7 3 3 -2 9 -12 12 -14 6 -15 5 -6 -5z"/>
<path d="M170 1269 c0 -6 9 -8 21 -4 16 5 19 4 14 -5 -5 -9 -4 -11 3 -6 20 12
13 26 -13 26 -14 0 -25 -5 -25 -11z"/>
<path d="M1000 1269 c0 -5 5 -7 10 -4 6 3 10 8 10 11 0 2 -4 4 -10 4 -5 0 -10
-5 -10 -11z"/>
<path d="M695 1260 c-7 -12 2 -12 30 0 19 8 19 9 -2 9 -12 1 -25 -3 -28 -9z"/>
<path d="M1070 1261 c0 -6 4 -13 10 -16 6 -3 7 1 4 9 -7 18 -14 21 -14 7z"/>
<path d="M975 1250 c-3 -5 -1 -10 4 -10 6 0 11 5 11 10 0 6 -2 10 -4 10 -3 0
-8 -4 -11 -10z"/>
<path d="M730 1243 c0 -5 11 -13 25 -20 27 -12 33 -5 13 15 -13 13 -38 16 -38
5z"/>
<path d="M1898 1233 c7 -3 16 -2 19 1 4 3 -2 6 -13 5 -11 0 -14 -3 -6 -6z"/>
<path d="M2018 1233 c7 -3 16 -2 19 1 4 3 -2 6 -13 5 -11 0 -14 -3 -6 -6z"/>
<path d="M510 1220 c0 -5 5 -10 11 -10 5 0 7 5 4 10 -3 6 -8 10 -11 10 -2 0
-4 -4 -4 -10z"/>
<path d="M882 1213 c-6 -2 -9 -9 -6 -15 4 -6 1 -14 -6 -18 -8 -5 -7 -9 6 -14
10 -4 15 -4 12 -1 -4 4 -3 18 2 31 5 13 8 24 7 23 -1 0 -8 -3 -15 -6z"/>
<path d="M1183 1213 c9 -2 25 -2 35 0 9 3 1 5 -18 5 -19 0 -27 -2 -17 -5z"/>
<path d="M1660 1210 c0 -6 -15 -19 -32 -30 -18 -11 -29 -20 -25 -20 18 0 67
35 67 47 0 7 -2 13 -5 13 -3 0 -5 -5 -5 -10z"/>
<path d="M196 1193 c-6 -14 -5 -15 5 -6 7 7 10 15 7 18 -3 3 -9 -2 -12 -12z"/>
<path d="M480 1206 c0 -2 7 -9 15 -16 9 -7 15 -8 15 -2 0 5 -7 12 -15 16 -8 3
-15 4 -15 2z"/>
<path d="M937 1193 c3 -7 6 -13 8 -13 2 0 5 6 8 13 3 8 -1 14 -8 14 -7 0 -11
-6 -8 -14z"/>
<path d="M1316 1199 c4 -7 44 0 44 7 0 2 -11 3 -24 2 -14 -1 -23 -5 -20 -9z"/>
<path d="M2530 1200 c-18 -12 -2 -12 25 0 13 6 15 9 5 9 -8 0 -22 -4 -30 -9z"/>
<path d="M520 1196 c0 -2 11 -6 25 -8 13 -3 22 -1 19 3 -5 9 -44 13 -44 5z"/>
<path d="M1352 1170 c-27 -36 -29 -47 -4 -22 16 16 36 52 29 52 -2 0 -13 -13
-25 -30z"/>
<path d="M790 1186 c0 -2 7 -7 16 -10 8 -3 12 -2 9 4 -6 10 -25 14 -25 6z"/>
<path d="M1106 1173 c-6 -14 -5 -15 5 -6 7 7 10 15 7 18 -3 3 -9 -2 -12 -12z"/>
<path d="M1164 1178 c-4 -6 -3 -8 4 -4 6 3 15 -2 21 -11 12 -20 14 -13 5 11
-7 19 -20 21 -30 4z"/>
<path d="M1286 1175 c-3 -9 0 -15 9 -15 16 0 20 16 6 24 -5 3 -11 -1 -15 -9z"/>
<path d="M968 1173 c7 -3 16 -2 19 1 4 3 -2 6 -13 5 -11 0 -14 -3 -6 -6z"/>
<path d="M1037 1162 c3 -12 9 -25 14 -28 14 -8 11 10 -6 32 -13 18 -14 18 -8
-4z"/>
<path d="M1220 1170 c0 -5 5 -10 10 -10 6 0 10 5 10 10 0 6 -4 10 -10 10 -5 0
-10 -4 -10 -10z"/>
<path d="M76 1159 c2 -4 -2 -10 -8 -12 -8 -4 -7 -6 3 -6 9 -1 19 5 22 12 3 8
-1 14 -9 14 -7 0 -11 -4 -8 -8z"/>
<path d="M905 1160 c3 -5 11 -10 16 -10 6 0 7 5 4 10 -3 6 -11 10 -16 10 -6 0
-7 -4 -4 -10z"/>
<path d="M1152 1138 c12 -20 27 -37 32 -38 4 0 1 11 -8 24 -8 14 -12 26 -8 29
4 2 2 3 -4 1 -6 -1 -17 3 -24 9 -6 7 -1 -5 12 -25z"/>
<path d="M526 1152 c-2 -4 4 -8 14 -8 10 0 16 4 14 8 -3 4 -9 8 -14 8 -5 0
-11 -4 -14 -8z"/>
<path d="M1950 1148 c25 -5 64 -7 88 -4 24 3 51 2 61 -3 10 -6 23 -6 32 0 18
11 18 11 -121 13 -83 2 -95 0 -60 -6z"/>
<path d="M458 1143 c7 -3 16 -2 19 1 4 3 -2 6 -13 5 -11 0 -14 -3 -6 -6z"/>
<path d="M871 1137 c7 -8 22 -12 33 -9 11 3 24 -2 32 -13 8 -11 14 -15 14 -9
0 20 -17 31 -53 38 -33 6 -37 5 -26 -7z"/>
<path d="M986 1139 c4 -8 -1 -9 -17 -4 -13 4 -21 5 -18 1 4 -4 21 -11 39 -16
32 -9 32 -9 15 10 -20 22 -30 27 -19 9z"/>
<path d="M1110 1147 c0 -5 5 -17 11 -28 10 -19 29 -18 29 2 0 6 -4 8 -9 4 -6
-3 -14 3 -20 12 -6 10 -11 14 -11 10z"/>
<path d="M1240 1131 c0 -25 6 -27 13 -6 4 8 2 17 -3 20 -6 4 -10 -3 -10 -14z"/>
<path d="M1281 1134 c0 -11 3 -14 6 -6 3 7 2 16 -1 19 -3 4 -6 -2 -5 -13z"/>
<path d="M1305 1140 c-3 -5 -1 -10 4 -10 6 0 11 5 11 10 0 6 -2 10 -4 10 -3 0
-8 -4 -11 -10z"/>
<path d="M1196 1125 c4 -8 8 -15 10 -15 2 0 4 7 4 15 0 8 -4 15 -10 15 -5 0
-7 -7 -4 -15z"/>
<path d="M2190 1131 c0 -6 4 -13 10 -16 6 -3 7 1 4 9 -7 18 -14 21 -14 7z"/>
<path d="M2234 1118 l-19 -21 28 18 c28 18 33 25 19 25 -5 0 -17 -10 -28 -22z"/>
<path d="M1040 1113 c0 -6 8 -17 18 -24 16 -13 16 -13 2 6 -8 11 -16 22 -17
24 -2 2 -3 0 -3 -6z"/>
<path d="M1097 1098 c5 -23 5 -23 -11 -3 -17 20 -17 20 -6 -2 16 -34 26 -35
28 -2 1 16 -2 29 -7 29 -5 0 -7 -10 -4 -22z"/>
<path d="M1316 1108 c-11 -6 -32 -11 -48 -10 -17 0 -28 -4 -28 -13 0 -20 20
-29 33 -16 6 6 19 11 29 11 9 0 22 9 28 20 12 23 12 23 -14 8z"/>
<path d="M984 1091 c20 -22 26 -25 26 -13 0 4 -10 13 -22 21 -23 14 -23 14 -4
-8z"/>
<path d="M1498 1103 c7 -3 16 -2 19 1 4 3 -2 6 -13 5 -11 0 -14 -3 -6 -6z"/>
<path d="M890 1090 c-9 -6 -10 -10 -3 -10 7 0 21 -9 32 -21 12 -13 21 -17 26
-10 3 6 11 8 17 5 6 -4 6 1 -1 14 -16 30 -45 39 -71 22z"/>
<path d="M1020 1092 c0 -12 19 -26 26 -19 2 2 -2 10 -11 17 -9 8 -15 8 -15 2z"/>
<path d="M20 1081 c0 -6 4 -13 10 -16 6 -3 7 1 4 9 -7 18 -14 21 -14 7z"/>
<path d="M486 1082 c-2 -4 7 -9 22 -10 21 -1 24 0 12 8 -18 12 -27 12 -34 2z"/>
<path d="M547 1077 c-8 -22 20 -50 43 -44 14 3 20 1 17 -6 -2 -7 -13 -12 -25
-11 -13 0 -18 -4 -15 -13 7 -18 17 -16 35 5 28 32 27 38 -4 40 -17 1 -35 5
-40 8 -14 9 2 23 20 18 14 -5 15 -4 2 5 -20 14 -27 14 -33 -2z"/>
<path d="M1144 1082 c-12 -8 -38 -52 -30 -52 3 0 14 14 26 30 22 31 23 35 4
22z"/>
<path d="M1198 1073 c6 -2 18 -2 25 0 6 3 1 5 -13 5 -14 0 -19 -2 -12 -5z"/>
<path d="M1548 1073 c7 -3 16 -2 19 1 4 3 -2 6 -13 5 -11 0 -14 -3 -6 -6z"/>
<path d="M445 1054 c-20 -20 -19 -27 3 -15 9 5 22 10 27 11 16 3 17 7 1 13 -9
4 -22 -1 -31 -9z"/>
<path d="M1065 1060 c3 -5 8 -10 11 -10 2 0 4 5 4 10 0 6 -5 10 -11 10 -5 0
-7 -4 -4 -10z"/>
<path d="M367 1045 c-4 -8 -3 -16 1 -19 4 -3 9 4 9 15 2 23 -3 25 -10 4z"/>
<path d="M537 1029 c4 -13 8 -18 11 -10 2 7 -1 18 -6 23 -8 8 -9 4 -5 -13z"/>
<path d="M330 1026 c0 -2 7 -7 16 -10 8 -3 12 -2 9 4 -6 10 -25 14 -25 6z"/>
<path d="M31 1006 c-20 -11 -21 -14 -7 -19 10 -4 15 -10 12 -15 -2 -4 4 -9 16
-9 l20 -2 -20 18 c-19 16 -19 18 -4 28 23 16 12 15 -17 -1z"/>
<path d="M108 1013 c7 -3 16 -2 19 1 4 3 -2 6 -13 5 -11 0 -14 -3 -6 -6z"/>
<path d="M205 1010 c-3 -5 -12 -7 -20 -3 -8 3 -15 0 -15 -7 0 -7 -8 -9 -22 -5
-16 4 -19 3 -9 -3 7 -5 9 -12 5 -14 -5 -3 -2 -3 6 0 26 9 91 8 97 -1 2 -4 11
-2 20 4 12 10 16 10 24 -2 6 -10 9 -10 9 -1 0 21 47 14 53 -8 3 -11 13 -20 22
-20 9 0 13 -5 10 -11 -4 -6 2 -5 14 3 18 11 23 10 36 -7 14 -19 15 -19 8 -1
-5 15 -3 17 7 11 10 -6 12 -4 7 9 -6 14 -2 17 20 14 14 -2 29 -9 31 -17 3 -9
0 -12 -9 -9 -8 3 -20 -1 -27 -8 -8 -9 -9 -14 -2 -15 5 -1 16 -2 23 -3 6 -1 20
1 29 6 9 4 19 4 23 -1 11 -20 63 -39 76 -29 11 8 11 9 -1 5 -10 -3 -23 11 -38
37 -13 23 -20 32 -17 21 5 -15 3 -17 -6 -8 -6 6 -18 9 -27 6 -11 -5 -13 -3 -7
8 4 8 5 11 0 7 -4 -4 -14 0 -22 8 -8 8 -23 12 -32 10 -9 -3 -31 -7 -48 -8 -18
-1 -33 -6 -33 -11 0 -5 -7 -4 -16 4 -14 11 -14 13 0 21 9 5 21 6 28 2 7 -4 8
-3 4 5 -5 8 -24 10 -52 7 -24 -2 -42 -1 -40 3 9 14 -33 10 -45 -5 -12 -15 -34
-20 -25 -5 3 5 -1 12 -10 15 -20 8 -22 8 -29 -4z m22 -16 c-3 -3 -12 -4 -19
-1 -8 3 -5 6 6 6 11 1 17 -2 13 -5z m353 -74 c0 -5 -7 -7 -15 -4 -8 4 -15 8
-15 10 0 2 7 4 15 4 8 0 15 -4 15 -10z"/>
<path d="M670 1000 c-13 -8 -13 -11 0 -24 13 -14 15 -13 15 9 0 14 0 25 0 25
0 0 -7 -5 -15 -10z"/>
<path d="M78 993 c6 -2 18 -2 25 0 6 3 1 5 -13 5 -14 0 -19 -2 -12 -5z"/>
<path d="M591 981 c-7 -5 -11 -13 -7 -19 8 -13 46 -23 46 -12 0 5 -10 11 -22
13 -20 4 -20 4 4 6 15 0 30 6 33 11 8 12 -35 13 -54 1z"/>
<path d="M220 966 c0 -2 7 -7 16 -10 8 -3 12 -2 9 4 -6 10 -25 14 -25 6z"/>
<path d="M722 953 c-7 -7 -18 -11 -23 -7 -5 3 -17 0 -25 -7 -12 -10 -15 -10
-12 1 2 7 -3 15 -11 18 -8 2 -11 0 -7 -6 3 -5 -2 -13 -12 -18 -13 -6 -9 -9 18
-14 19 -3 41 -2 48 3 8 6 12 5 12 -3 0 -7 9 -2 19 11 18 22 20 22 26 7 5 -12
18 -18 38 -18 36 0 31 7 -21 30 -32 14 -40 15 -50 3z"/>
<path d="M1038 933 c7 -3 16 -2 19 1 4 3 -2 6 -13 5 -11 0 -14 -3 -6 -6z"/>
<path d="M825 910 c-20 -3 -26 -8 -17 -13 7 -5 9 -13 6 -19 -4 -6 -2 -8 4 -4
6 3 16 -2 22 -11 10 -16 11 -16 6 -1 -6 19 9 34 18 19 3 -5 15 -7 25 -4 16 4
17 8 8 18 -7 7 -14 11 -16 9 -2 -2 -9 0 -15 4 -6 5 -24 6 -41 2z"/>
<path d="M751 888 c6 -13 22 -31 36 -42 l25 -19 -7 24 c-7 24 -40 59 -56 59
-5 0 -4 -10 2 -22z"/>
<path d="M1069 888 l-24 -20 27 15 c23 14 27 14 32 2 3 -9 0 -15 -8 -15 -9 0
-12 -8 -9 -24 6 -30 -41 -116 -50 -92 -3 8 -2 18 3 21 6 4 10 14 10 23 -1 37
-24 -23 -25 -63 0 -34 -3 -40 -20 -37 -18 3 -18 2 3 -13 13 -10 26 -14 29 -11
4 3 1 6 -5 6 -7 0 -3 15 10 38 52 90 78 145 78 162 0 27 -23 30 -51 8z"/>
<path d="M717 889 c7 -7 15 -10 18 -7 3 3 -2 9 -12 12 -14 6 -15 5 -6 -5z"/>
<path d="M1267 875 c-4 -8 -22 -25 -42 -36 -19 -12 -35 -26 -35 -31 0 -6 -11
-32 -25 -60 -14 -27 -25 -58 -25 -67 0 -10 -16 -38 -34 -62 -19 -24 -38 -54
-41 -67 -3 -13 -17 -41 -30 -63 -14 -21 -25 -45 -25 -52 0 -7 -11 -24 -25 -37
-14 -13 -31 -42 -37 -64 -7 -24 -29 -58 -53 -81 -71 -70 -225 -250 -216 -253
10 -3 55 41 140 139 35 41 81 90 101 110 21 20 41 50 45 67 3 17 15 42 26 56
21 27 83 147 93 181 3 11 19 34 35 51 16 16 32 41 35 55 14 48 61 149 69 149
4 0 22 13 40 30 23 21 29 32 21 40 -8 8 -13 7 -17 -5z"/>
<path d="M319 850 c-19 -13 -8 -18 21 -10 19 4 21 7 9 12 -9 3 -22 2 -30 -2z"/>
<path d="M555 850 c-3 -5 1 -10 10 -10 9 0 13 5 10 10 -3 6 -8 10 -10 10 -2 0
-7 -4 -10 -10z"/>
<path d="M280 839 c0 -5 5 -7 10 -4 6 3 10 8 10 11 0 2 -4 4 -10 4 -5 0 -10
-5 -10 -11z"/>
<path d="M400 846 c0 -2 9 -6 20 -9 11 -3 18 -1 14 4 -5 9 -34 13 -34 5z"/>
<path d="M720 840 c0 -5 5 -10 10 -10 6 0 10 5 10 10 0 6 -4 10 -10 10 -5 0
-10 -4 -10 -10z"/>
<path d="M965 840 c3 -5 13 -10 21 -10 8 0 12 5 9 10 -3 6 -13 10 -21 10 -8 0
-12 -4 -9 -10z"/>
<path d="M1160 840 c-9 -6 -10 -10 -3 -10 6 0 15 5 18 10 8 12 4 12 -15 0z"/>
<path d="M2 823 c2 -11 14 -19 31 -21 20 -2 27 -8 23 -18 -5 -13 6 -19 28 -15
4 1 16 -7 26 -19 14 -16 29 -20 77 -20 33 0 84 -8 114 -17 69 -21 64 -20 97
-22 26 -2 26 -3 5 -11 -15 -6 -36 -5 -63 5 -22 8 -40 10 -40 5 0 -6 7 -10 15
-10 9 0 33 -9 55 -20 47 -24 63 -25 35 -4 -19 15 -18 16 20 9 22 -3 60 -13 85
-22 64 -21 81 -24 99 -13 17 9 15 11 -34 23 -11 3 -50 17 -87 30 -89 34 -248
66 -292 60 -24 -3 -36 -1 -36 7 0 7 -7 10 -15 7 -8 -4 -17 -2 -20 3 -3 4 1 10
7 13 7 2 -4 8 -24 12 -24 5 -40 14 -44 27 -3 11 -8 17 -11 14 -3 -2 -16 0 -30
5 -21 8 -24 6 -21 -8z"/>
<path d="M600 830 c0 -5 7 -7 15 -4 8 4 15 8 15 10 0 2 -7 4 -15 4 -8 0 -15
-4 -15 -10z"/>
<path d="M660 831 c0 -5 9 -7 20 -4 11 3 20 7 20 9 0 2 -9 4 -20 4 -11 0 -20
-4 -20 -9z"/>
<path d="M840 837 c0 -14 34 -69 37 -61 5 16 -15 64 -27 64 -5 0 -10 -2 -10
-3z"/>
<path d="M820 811 c0 -25 6 -27 13 -6 4 8 2 17 -3 20 -6 4 -10 -3 -10 -14z"/>
<path d="M886 803 c9 -39 8 -38 65 -68 38 -19 54 -24 63 -15 14 14 -9 30 -35
23 -10 -3 -19 -1 -19 5 0 6 -12 17 -27 24 -16 7 -29 23 -31 36 -2 12 -8 22
-13 22 -5 0 -6 -12 -3 -27z"/>
<path d="M370 809 c-12 -6 -9 -9 11 -9 14 0 30 -5 37 -12 7 -7 12 -9 12 -4 0
10 -22 30 -36 33 -5 1 -17 -2 -24 -8z"/>
<path d="M435 811 c11 -5 23 -7 27 -5 4 3 9 -5 13 -16 3 -11 10 -20 15 -20 5
0 7 7 4 15 -9 22 32 20 46 -2 11 -17 11 -17 6 0 -3 10 0 17 9 17 7 0 16 -8 18
-17 4 -14 5 -12 6 5 1 16 -5 22 -21 23 -13 0 -50 2 -83 4 -37 2 -52 1 -40 -4z"/>
<path d="M1111 813 c-1 -17 16 -25 25 -12 4 7 3 9 -4 5 -5 -3 -13 0 -15 6 -4
9 -6 10 -6 1z"/>
<path d="M295 800 c-4 -7 3 -8 22 -4 38 9 42 14 10 14 -14 0 -29 -5 -32 -10z"/>
<path d="M593 790 c2 -24 20 -26 37 -5 11 13 14 13 26 -2 13 -17 13 -17 14 0
0 9 5 17 11 17 6 0 9 -6 6 -13 -4 -10 2 -13 19 -9 14 2 24 0 24 -7 0 -6 4 -11
10 -11 5 0 6 7 3 17 -4 11 -3 14 5 9 7 -4 12 -18 12 -32 0 -19 -4 -24 -17 -20
-45 13 -74 14 -34 1 51 -17 61 -13 61 21 0 16 4 23 11 18 6 -3 9 -15 6 -25 -3
-11 -1 -19 4 -19 5 0 9 9 9 20 0 31 18 23 29 -12 l9 -33 1 32 c1 30 -2 33 -51
48 -88 26 -142 30 -161 10 -15 -14 -17 -15 -17 -1 0 9 -4 16 -9 16 -6 0 -9 -9
-8 -20z"/>
<path d="M1130 761 c0 -6 5 -13 10 -16 6 -3 10 1 10 9 0 9 -4 16 -10 16 -5 0
-10 -4 -10 -9z"/>
<path d="M0 753 c0 -4 34 -42 76 -85 42 -43 74 -81 70 -85 -3 -4 -13 2 -21 13
-13 17 -14 17 -15 2 0 -9 14 -31 32 -47 35 -32 31 -54 -5 -32 -21 13 -22 13
-4 -6 9 -11 14 -23 10 -28 -5 -4 -3 -5 3 -2 7 4 17 0 23 -7 10 -12 7 -15 -16
-18 l-28 -3 24 -24 25 -25 8 30 c23 83 -31 212 -108 260 -22 13 -32 23 -24 24
26 0 210 -66 203 -73 -3 -4 1 -7 10 -7 9 0 18 -4 21 -9 4 -5 -4 -7 -16 -5 -13
2 -16 1 -8 -2 86 -38 119 -56 122 -65 2 -7 9 -4 18 7 13 16 13 17 -2 11 -12
-4 -15 -2 -11 9 3 10 -5 18 -26 25 -17 6 -28 16 -24 22 3 6 1 7 -6 3 -6 -4
-19 1 -29 12 -9 11 -48 30 -87 42 -38 12 -81 27 -95 33 -14 6 -37 11 -52 12
-15 0 -33 6 -40 13 -13 13 -28 16 -28 5z"/>
<path d="M382 755 c4 -4 69 -13 130 -18 9 -1 14 -5 12 -9 -3 -4 0 -9 5 -9 12
-2 26 -5 39 -9 4 -1 11 -2 15 -1 16 3 77 -31 71 -40 -3 -5 7 -9 23 -9 22 0 25
-2 13 -10 -13 -8 -13 -10 1 -10 9 0 19 -6 22 -14 3 -7 19 -16 35 -19 16 -3 44
-21 62 -39 31 -30 32 -31 26 -8 -6 21 0 17 33 -19 32 -34 41 -40 41 -25 0 30
-56 82 -100 94 -22 6 -40 15 -40 19 0 5 -23 21 -51 36 -28 14 -61 35 -72 46
-11 10 -32 19 -46 19 -14 1 -37 7 -51 15 -23 13 -181 22 -168 10z"/>
<path d="M638 753 c7 -3 16 -2 19 1 4 3 -2 6 -13 5 -11 0 -14 -3 -6 -6z"/>
<path d="M857 739 c4 -16 8 -17 14 -7 6 9 9 5 9 -13 0 -15 -7 -29 -16 -33 -21
-8 -26 -8 -20 2 2 4 -8 7 -22 6 -15 0 -42 3 -59 7 -18 4 -33 3 -33 -2 0 -5 11
-9 24 -9 14 0 31 -7 40 -15 17 -18 30 -20 20 -3 -9 15 14 2 44 -25 12 -11 22
-16 22 -12 0 5 7 -1 16 -13 8 -12 22 -22 30 -22 8 0 14 -7 14 -15 0 -8 7 -15
15 -15 8 0 15 -9 15 -19 0 -14 -5 -18 -20 -14 -11 3 -20 0 -20 -6 0 -5 7 -8
15 -5 8 4 15 1 15 -5 0 -7 -8 -15 -19 -19 -15 -6 -17 -11 -8 -32 9 -23 10 -23
14 -5 6 30 25 65 36 65 5 0 6 -7 3 -16 -10 -27 6 -38 19 -13 11 20 10 26 -4
39 -9 8 -22 27 -28 42 -7 15 -25 35 -40 45 -15 10 -30 20 -33 23 -3 4 -14 10
-25 14 -19 7 -19 8 -2 17 9 6 17 19 17 30 0 27 20 14 21 -14 1 -17 2 -18 6 -4
6 23 23 12 24 -16 0 -21 1 -21 9 -2 8 18 9 18 9 -5 1 -20 3 -22 11 -10 8 12
10 12 10 -5 0 -15 2 -17 9 -6 11 18 25 -7 36 -64 7 -36 9 -38 15 -15 3 14 3
27 -2 28 -4 2 -8 12 -8 23 0 22 -37 57 -111 105 -62 40 -69 41 -62 13z"/>
<path d="M1096 733 c-6 -14 -5 -15 5 -6 7 7 10 15 7 18 -3 3 -9 -2 -12 -12z"/>
<path d="M1050 681 c0 -5 7 -11 15 -15 9 -3 15 0 15 9 0 8 -7 15 -15 15 -8 0
-15 -4 -15 -9z"/>
<path d="M186 601 c14 -27 26 -67 28 -88 1 -22 6 -45 11 -53 6 -9 4 -11 -6 -5
-12 8 -12 6 0 -8 7 -9 17 -15 21 -12 4 3 7 -3 6 -12 0 -9 5 -18 13 -21 10 -3
11 0 5 9 -4 8 -10 31 -11 52 -2 21 -10 51 -18 67 -8 15 -11 30 -8 34 3 3 -4
15 -17 26 -14 12 -18 20 -10 20 9 0 6 7 -8 20 -32 30 -33 25 -6 -29z"/>
<path d="M960 628 c14 -13 31 -33 38 -44 7 -10 5 -5 -3 13 -8 18 -25 38 -38
44 -20 11 -20 10 3 -13z"/>
<path d="M420 621 c0 -13 143 -141 157 -141 7 0 10 -7 7 -17 -5 -14 -4 -15 4
-4 5 7 15 10 21 6 7 -4 18 -1 26 5 12 10 15 10 15 -2 0 -13 48 -48 61 -45 4 1
16 -6 27 -16 12 -11 25 -16 30 -13 6 3 12 0 15 -8 3 -7 17 -16 32 -18 22 -5
26 -2 23 15 -2 11 -12 21 -22 23 -10 1 -22 6 -25 11 -3 4 -14 9 -25 11 -10 2
-56 28 -102 58 -45 30 -85 54 -88 54 -2 0 -35 20 -73 45 -69 46 -83 52 -83 36z
m167 -97 c-3 -3 6 -17 21 -31 27 -25 27 -25 2 -11 -55 32 -53 30 -39 39 16 10
25 12 16 3z"/>
<path d="M230 601 c6 -11 22 -28 36 -38 34 -24 136 -104 152 -120 24 -23 -15
-28 -61 -8 -17 7 -17 8 0 21 16 11 15 12 -12 9 -16 -2 -31 -4 -33 -4 -2 -1 10
-13 27 -27 17 -14 35 -23 40 -20 5 4 13 2 16 -4 5 -8 11 -8 19 -1 8 7 23 4 47
-11 32 -19 33 -19 17 -1 -10 11 -18 25 -18 31 0 6 -6 15 -14 19 -8 4 -33 25
-55 46 -61 56 -174 132 -161 108z"/>
<path d="M25 591 c1 -11 7 -26 14 -35 8 -9 10 -16 5 -16 -4 0 2 -10 14 -23 12
-13 20 -26 17 -29 -3 -3 1 -11 10 -18 23 -19 19 2 -14 75 -29 64 -49 84 -46
46z"/>
<path d="M290 510 c11 -11 25 -20 31 -20 7 0 0 9 -14 20 -14 11 -28 20 -31 20
-3 0 3 -9 14 -20z"/>
<path d="M10 510 c-9 -6 -10 -10 -3 -10 6 0 15 5 18 10 8 12 4 12 -15 0z"/>
<path d="M6 471 c-4 -5 -2 -12 3 -16 6 -3 8 -12 4 -20 -3 -8 0 -15 6 -15 7 0
10 11 8 25 -4 29 -13 40 -21 26z"/>
<path d="M845 463 c-31 -7 -41 -21 -26 -35 10 -11 11 -9 5 6 -6 15 -4 18 9 13
8 -3 21 1 27 9 7 8 11 13 9 13 -2 -1 -13 -3 -24 -6z"/>
<path d="M574 425 c1 -8 5 -18 9 -21 4 -4 2 -13 -4 -20 -7 -8 -7 -14 1 -19 5
-3 11 0 12 7 6 50 4 68 -8 68 -7 0 -11 -7 -10 -15z"/>
<path d="M870 435 c-1 -5 -1 -18 0 -29 1 -13 -2 -16 -12 -10 -7 4 -4 -2 6 -14
11 -12 16 -22 13 -22 -4 0 2 -9 13 -20 11 -11 24 -20 30 -20 11 0 -9 50 -27
65 -6 6 -14 21 -16 35 -2 14 -5 21 -7 15z"/>
<path d="M218 418 c9 -9 7 -14 -6 -24 -11 -9 -13 -14 -4 -15 6 -1 17 -3 22 -4
6 -1 13 -3 18 -4 4 -1 -4 -8 -18 -17 -25 -15 -25 -15 -1 -8 16 4 21 3 17 -5
-4 -7 -1 -9 7 -5 17 6 16 32 0 42 -6 4 -13 17 -17 30 -4 12 -12 22 -19 22 -8
0 -8 -3 1 -12z"/>
<path d="M424 393 c10 -11 37 -12 30 -2 -3 5 -12 9 -21 9 -9 0 -13 -3 -9 -7z"/>
<path d="M76 367 c3 -10 9 -15 12 -12 3 3 0 11 -7 18 -10 9 -11 8 -5 -6z"/>
<path d="M5 360 c3 -5 11 -10 16 -10 6 0 7 5 4 10 -3 6 -11 10 -16 10 -6 0 -7
-4 -4 -10z"/>
<path d="M434 361 c4 -6 13 -8 22 -4 9 3 14 0 12 -8 -2 -7 6 -13 17 -14 11 0
20 7 20 15 0 10 -12 16 -39 18 -24 2 -36 0 -32 -7z"/>
<path d="M595 350 c-4 -6 -11 -8 -16 -5 -5 3 -6 -1 -3 -9 8 -21 11 -20 24 4
11 20 6 29 -5 10z"/>
<path d="M260 315 c0 -8 4 -15 8 -15 5 0 14 -10 21 -23 6 -12 25 -31 41 -42
16 -10 26 -23 23 -29 -3 -5 -1 -6 5 -2 17 10 15 26 -3 26 -8 0 -15 7 -15 15 0
8 -4 15 -9 15 -5 0 -19 16 -31 35 -23 37 -40 45 -40 20z"/>
<path d="M595 311 c-3 -5 -1 -12 4 -16 6 -3 8 -12 4 -20 -8 -22 5 -18 17 5 8
16 8 20 -2 18 -7 -2 -12 3 -10 10 2 14 -4 16 -13 3z"/>
<path d="M99 300 c-8 -6 -8 -9 1 -15 7 -4 18 -1 26 7 13 13 13 15 0 15 -8 0
-20 -4 -27 -7z"/>
<path d="M210 304 c0 -5 11 -26 25 -47 14 -20 23 -37 20 -37 -3 0 3 -8 14 -19
10 -10 20 -24 23 -31 2 -7 12 -11 21 -9 14 3 6 19 -43 78 -33 41 -60 70 -60
65z"/>
<path d="M363 295 c0 -8 4 -12 9 -9 5 3 6 10 3 15 -9 13 -12 11 -12 -6z"/>
<path d="M644 295 c1 -8 6 -18 11 -22 4 -5 5 -2 0 6 -6 11 -4 13 10 7 15 -5
16 -4 5 9 -16 19 -29 19 -26 0z"/>
<path d="M0 289 c0 -5 5 -7 10 -4 5 3 10 8 10 11 0 2 -4 4 -10 4 -5 0 -10 -5
-10 -11z"/>
<path d="M110 264 c-14 -7 -23 -14 -20 -15 3 0 13 -2 23 -4 10 -2 17 3 17 13
1 15 2 15 11 0 5 -10 17 -18 26 -18 14 0 14 2 -2 20 -21 23 -21 23 -55 4z"/>
<path d="M1 254 c0 -11 3 -14 6 -6 3 7 2 16 -1 19 -3 4 -6 -2 -5 -13z"/>
<path d="M476 237 c-16 -12 -16 -13 2 -13 10 0 19 6 19 13 0 7 -1 13 -2 13 -1
0 -9 -6 -19 -13z"/>
<path d="M145 199 c-11 -16 -1 -19 13 -3 7 8 8 14 3 14 -5 0 -13 -5 -16 -11z"/>
<path d="M397 186 c-4 -9 -1 -15 6 -13 7 1 11 -6 10 -16 0 -10 1 -16 5 -13 3
3 11 -2 19 -12 8 -9 12 -12 9 -5 -4 6 -2 14 4 18 5 3 10 1 10 -5 0 -6 5 -8 10
-5 14 9 12 -8 -2 -25 -8 -8 -2 -7 15 3 15 10 27 13 27 8 0 -5 3 -18 7 -28 6
-16 5 -17 -13 -3 -19 14 -19 14 0 -8 20 -23 32 -30 21 -12 -6 10 7 14 34 11 7
-2 11 4 9 11 -3 7 -13 13 -24 13 -10 0 -18 6 -16 13 2 10 -12 17 -20 10 -2 -2
-14 5 -27 14 -13 9 -28 15 -35 12 -6 -2 -18 8 -27 22 -13 21 -17 23 -22 10z"/>
<path d="M1 139 c-1 -33 20 -77 35 -72 7 2 14 -3 18 -12 3 -9 2 -13 -4 -10 -6
3 -10 1 -10 -4 0 -6 11 -11 25 -11 14 0 28 -7 31 -15 4 -8 15 -15 25 -15 14 0
4 14 -37 55 -31 30 -60 55 -64 55 -5 0 -11 12 -13 28 l-4 27 -2 -26z"/>
<path d="M349 133 c15 -30 71 -84 71 -69 0 6 -19 30 -41 51 -26 25 -37 32 -30
18z"/>
<path d="M559 133 c-13 -16 -12 -17 4 -4 9 7 17 15 17 17 0 8 -8 3 -21 -13z"/>
<path d="M611 138 c-1 -9 4 -20 10 -23 6 -4 8 -12 6 -19 -7 -19 43 -13 57 6 7
10 16 15 19 11 4 -3 7 -2 7 4 0 6 -7 13 -15 17 -8 3 -15 2 -15 -2 0 -4 -9 -13
-21 -20 -15 -10 -19 -10 -14 -1 5 8 4 10 -4 5 -7 -4 -15 2 -20 16 -7 16 -10
18 -10 6z"/>
<path d="M295 129 c-11 -16 -1 -19 13 -3 7 8 8 14 3 14 -5 0 -13 -5 -16 -11z"/>
<path d="M320 63 c5 -12 15 -25 22 -29 7 -5 8 -3 3 6 -6 10 -3 12 12 8 14 -4
20 -1 19 8 -3 18 -16 31 -16 15 0 -7 -4 -9 -10 -6 -5 3 -10 1 -10 -6 0 -7 -7
-4 -16 7 -15 18 -15 18 -4 -3z"/>
<path d="M651 47 c-22 -13 -30 -22 -21 -25 8 -3 16 0 18 6 2 7 10 12 17 12 7
0 15 7 19 15 3 8 4 15 3 14 -1 0 -17 -10 -36 -22z"/>
<path d="M180 41 c0 -6 4 -13 10 -16 6 -3 7 1 4 9 -7 18 -14 21 -14 7z"/>
<path d="M398 33 c-10 -2 -18 -8 -18 -13 0 -12 33 -5 38 8 2 7 2 11 0 11 -1
-1 -11 -3 -20 -6z"/>
<path d="M573 3 c9 -2 23 -2 30 0 6 3 -1 5 -18 5 -16 0 -22 -2 -12 -5z"/>
</g>
</svg>
